<?xml version="1.0" standalone="no"?>
<!DOCTYPE svg PUBLIC "-//W3C//DTD SVG 1.1//EN" "http://www.w3.org/Graphics/SVG/1.1/DTD/svg11.dtd" >
<svg xmlns="http://www.w3.org/2000/svg">
<metadata>
This is a custom SVG webfont generated by Font Squirrel.
Copyright   : Copyright  1990 1995 2002 Adobe Systems Incorporated  All Rights Reserved  Copyright 1990 2002 The Monotype Corporation All Rights Reserved
Designer    : FH Pierpont
Foundry URL : httpwwwadobecomtype
</metadata>
<defs>
<font id="PlantinStdBold" horiz-adv-x="1067" >
<font-face units-per-em="2048" ascent="1423" descent="-625" />
<missing-glyph horiz-adv-x="569" />
<glyph unicode=" "  horiz-adv-x="569" />
<glyph unicode="&#x09;" horiz-adv-x="569" />
<glyph unicode="&#xa0;" horiz-adv-x="569" />
<glyph unicode="!" horiz-adv-x="704" d="M164 170q0 78 54 132t132 54t133.5 -54t55.5 -132t-55.5 -133t-133.5 -55t-132 55t-54 133zM183 1372q19 53 102 53h135q78 0 98 -49q11 -26 11 -69q0 -39 -9 -90l-96 -623q-12 -76 -25 -82q-4 -4 -16 -4h-61q-16 0 -23.5 12t-15.5 60l-99 637q-11 53 -10 92q0 37 9 63z " />
<glyph unicode="&#x22;" horiz-adv-x="1136" d="M178 1243q0 66 42 110t105.5 44t105.5 -44t42 -110q0 -51 -20 -129l-103 -383h-49l-102 383q-21 78 -21 129zM661 1243q0 66 42 110t105.5 44t105.5 -44t42 -110q0 -51 -20 -129l-102 -383h-50l-102 383q-21 78 -21 129z" />
<glyph unicode="#" horiz-adv-x="1368" d="M78 346v189h209l61 303h-270v190h307l84 383h188l-82 -383h355l82 383h188l-82 -383h170v-190h-207l-61 -303h268v-189h-305l-82 -379h-190l84 379h-359l-80 -379h-190l80 379h-168zM475 537h356l62 301h-354z" />
<glyph unicode="$" d="M76 225q0 45 52 77t87 32q27 0 49.5 -34t40 -76t63.5 -86t111 -58v469q-197 115 -292 220t-95 245q0 152 106.5 252t280.5 110v64h101v-64q156 -6 262 -95t106 -167q0 -37 -40 -63.5t-93 -26.5q-29 0 -45 18.5t-23.5 45t-27 66.5t-49.5 71q-43 43 -90 51v-414 q219 -119 315 -233.5t96 -263.5q0 -164 -106.5 -263.5t-304.5 -117.5v-152h-101v152h-8q-163 0 -277 83q-118 84 -118 158zM332 1116q0 -55 33.5 -99t113.5 -95v358q-66 -12 -106.5 -58.5t-40.5 -105.5zM580 80q80 14 126 64.5t46 119.5q0 63 -37 111.5t-135 109.5v-405z " />
<glyph unicode="%" horiz-adv-x="1878" d="M10 1049q0 174 94.5 275t253.5 101q166 0 262.5 -99t96.5 -271t-95.5 -272.5t-259.5 -100.5q-162 0 -257 99.5t-95 267.5zM270 1053q0 -176 19.5 -240.5t72.5 -64.5q55 0 75 65.5t20 247.5q0 170 -19.5 234.5t-77.5 64.5q-53 0 -71.5 -69.5t-18.5 -237.5zM360 -70 l928 1495h197l-918 -1495h-207zM1159 334q0 174 94.5 275.5t253.5 101.5q166 0 262.5 -99.5t96.5 -271.5t-95.5 -272.5t-259.5 -100.5q-162 0 -257 99.5t-95 267.5zM1419 338q0 -176 19.5 -240.5t72.5 -64.5q55 0 75 65.5t20 247.5q0 170 -19.5 234.5t-77.5 64.5 q-53 0 -71.5 -68.5t-18.5 -238.5z" />
<glyph unicode="&#x26;" horiz-adv-x="1599" d="M31 303q0 252 434 473q-150 201 -150 295q0 123 151.5 238.5t281.5 115.5q109 0 200.5 -86t91.5 -186q0 -139 -227 -281q152 -180 305 -387q102 117 103 209q0 39 -16.5 58.5t-35 22.5t-35 13.5t-16.5 30.5v45q0 18 19 19h360q27 0 33 -4.5t6 -24.5v-43 q0 -16 -16.5 -26.5t-43 -22.5t-73.5 -56t-96 -116l-131 -187l69 -104q63 -94 124 -147.5t95.5 -60.5t56 -14t21.5 -26v-51q0 -18 -8 -22.5t-51 -4.5h-230q-92 0 -156.5 40t-144.5 147q-127 -100 -242.5 -143.5t-256.5 -43.5q-205 0 -313.5 98.5t-108.5 231.5zM350 492 q0 -111 111.5 -242t206.5 -131q51 0 114.5 32.5t112.5 88.5l-371 469q-94 -63 -134 -111.5t-40 -105.5zM573 1212q0 -14 3.5 -29.5t7.5 -27.5t15 -30l18 -28q7 -11 26 -33l29 -33l35 -40l36 -43q129 76 129 150q0 51 -60 129t-130 78q-45 0 -77 -27t-32 -66z" />
<glyph unicode="'" horiz-adv-x="569" d="M139 1243q0 66 42 110t105.5 44t105.5 -44t42 -110q0 -51 -20 -129l-103 -383h-49l-102 383q-21 78 -21 129z" />
<glyph unicode="(" horiz-adv-x="854" d="M195 506q0 270 165.5 528t419.5 383l41 -90q-176 -141 -275.5 -360t-99.5 -461t99.5 -461t275.5 -360l-41 -91q-254 125 -419.5 383.5t-165.5 528.5z" />
<glyph unicode=")" horiz-adv-x="854" d="M33 -315q176 141 275.5 360t99.5 461t-99.5 461t-275.5 360l41 90q254 -125 419.5 -383t165.5 -528t-165.5 -528.5t-419.5 -383.5z" />
<glyph unicode="*" horiz-adv-x="1044" d="M53 1040l29 93l317 -35l76 327h84l72 -321l334 33l28 -97l-276 -157l129 -305l-82 -54l-242 219l-243 -219l-76 54l131 305z" />
<glyph unicode="+" horiz-adv-x="1366" d="M127 571v205h453v453h204v-453h453v-205h-453v-452h-204v452h-453z" />
<glyph unicode="," horiz-adv-x="704" d="M158 180q0 82 47 129t125 47q109 0 175 -85t66 -224q0 -178 -116.5 -297t-251.5 -119q-43 0 -43 33v51q0 29 28 29q80 0 146.5 56.5t66.5 133.5q0 43 -22.5 63.5t-52 23t-66.5 11.5t-57 29q-45 45 -45 119z" />
<glyph unicode="-" horiz-adv-x="937" d="M113 381v264h714v-264h-714z" />
<glyph unicode="." horiz-adv-x="704" d="M164 170q0 78 54 132t132 54t133.5 -54t55.5 -132t-55.5 -133t-133.5 -55t-132 55t-54 133z" />
<glyph unicode="/" horiz-adv-x="569" d="M0 -37l338 1462h231l-336 -1462h-233z" />
<glyph unicode="0" d="M66 676q0 227 100 424q61 119 160.5 188.5t205.5 69.5q98 0 192.5 -60.5t156.5 -162.5q53 -90 85.5 -218.5t32.5 -246.5q0 -291 -136 -494t-331 -203q-115 0 -213 76t-163 213q-90 193 -90 414zM362 696v-161q0 -186 25 -302q14 -74 55 -118.5t94.5 -44.5t92.5 47t55 133 q18 90 18 358v158q-6 197 -18 297q-10 90 -52 144.5t-100 54.5q-154 0 -165 -349q-5 -70 -5 -217z" />
<glyph unicode="1" d="M195 0v82h22q109 0 149 43t40 168v604q0 96 -40 137t-137 41h-34v90q88 27 194.5 84.5t161.5 108.5h123v-1116q0 -160 176 -160h37v-82h-692z" />
<glyph unicode="2" d="M66 0v88q567 532 567 821q0 109 -74 180.5t-186 71.5q-121 0 -230 -102l-55 63q195 236 440 236q154 0 260.5 -94.5t106.5 -231.5q0 -125 -60.5 -236.5t-189.5 -240.5l-303 -303h377q66 0 100.5 23.5t59.5 86.5h92l-117 -362h-788z" />
<glyph unicode="3" d="M80 1128q106 125 207.5 177.5t242.5 52.5q160 0 258.5 -77t98.5 -200q0 -168 -215 -270q139 -49 208.5 -146.5t69.5 -199.5q0 -195 -166 -343.5t-415 -148.5q-119 0 -200 34t-81 85q0 29 25.5 69t66.5 40q51 0 127 -65.5t142 -65.5q94 0 157.5 77.5t63.5 192.5 q0 164 -119 227.5t-348 67.5l16 88q176 0 281.5 70.5t105.5 187.5q0 86 -60.5 141.5t-154.5 55.5q-61 0 -113.5 -27t-138.5 -100z" />
<glyph unicode="4" d="M74 305v184l610 869h182v-850h156v-203h-156v-330h-254v330h-538zM186 508h426v610h-4z" />
<glyph unicode="5" d="M121 57q0 47 24.5 85t57.5 38q16 0 123.5 -32.5t183.5 -32.5q94 0 151.5 55t57.5 149q0 244 -559 400l262 612h432l29 60l73 -33l-100 -199q-12 -25 -24.5 -31t-53.5 -6h-356l-74 -172q287 -63 434.5 -190t147.5 -303q0 -219 -180.5 -350.5t-446.5 -131.5q-182 0 -182 82 z" />
<glyph unicode="6" d="M66 530q0 305 233 539q174 174 551 289l100 -72q-266 -106 -389 -232t-168 -335l4 -4q111 109 244 108q154 0 259.5 -115.5t105.5 -283.5q0 -190 -134.5 -320.5t-328.5 -130.5q-205 0 -341 159.5t-136 397.5zM362 500q0 -430 185 -430q74 0 118 68.5t44 185.5 q0 61 -8.5 118.5t-29 111.5t-59.5 87t-92 33q-158 0 -158 -174z" />
<glyph unicode="7" d="M117 965l92 366h772l-463 -1356h-135l377 1106h-398q-88 0 -118.5 -22.5t-42.5 -93.5h-84z" />
<glyph unicode="8" d="M82 291q0 90 59.5 164.5t206.5 173.5q-133 102 -191.5 188t-58.5 180q0 152 130 256.5t317 104.5q162 0 272.5 -85t110.5 -208q0 -84 -58.5 -156.5t-189.5 -154.5q143 -84 224 -196t81 -222q0 -158 -136 -260.5t-343 -102.5q-211 0 -317.5 100.5t-106.5 217.5zM268 295 q0 -106 57.5 -165.5t159.5 -59.5q88 0 145.5 53t57.5 137q0 78 -54 141.5t-210 171.5q-156 -120 -156 -278zM367 1092q0 -72 50 -127.5t181 -149.5q145 74 145 221q0 96 -57 161t-143 65q-72 0 -124 -50t-52 -120z" />
<glyph unicode="9" d="M63 911q0 180 129.5 313.5t327.5 133.5q215 0 346 -157t131 -404q0 -317 -218 -536.5t-560 -285.5l-63 80q66 27 108.5 47.5t116.5 63.5t132 104.5t97 134.5q55 96 66 201q-37 -35 -108.5 -66.5t-143.5 -31.5q-150 0 -255.5 113.5t-105.5 289.5zM360 971 q0 -70 15.5 -137.5t57.5 -122t102 -54.5q92 0 159 64q6 70 6 153q0 94 -14 176.5t-56 147t-108 64.5q-72 0 -117 -69.5t-45 -221.5z" />
<glyph unicode=":" horiz-adv-x="704" d="M164 170q0 78 54 132t132 54t133.5 -54t55.5 -132t-55.5 -133t-133.5 -55t-132 55t-54 133zM164 760q0 78 54 132t132 54t133.5 -54t55.5 -132t-55.5 -133.5t-133.5 -55.5t-132 55.5t-54 133.5z" />
<glyph unicode=";" horiz-adv-x="704" d="M158 180q0 82 47 129t125 47q109 0 175 -85t66 -224q0 -178 -116.5 -297t-251.5 -119q-43 0 -43 33v51q0 29 28 29q80 0 146.5 56.5t66.5 133.5q0 43 -22.5 63.5t-52 23t-66.5 11.5t-57 29q-45 45 -45 119zM164 760q0 78 54 132t132 54t133.5 -54t55.5 -132t-55.5 -133.5 t-133.5 -55.5t-132 55.5t-54 133.5z" />
<glyph unicode="&#x3c;" horiz-adv-x="1366" d="M127 582v188l1110 465v-227l-825 -332l825 -332v-227z" />
<glyph unicode="=" horiz-adv-x="1366" d="M127 334v205h1112v-205h-1112zM127 815v205h1112v-205h-1112z" />
<glyph unicode="&#x3e;" horiz-adv-x="1366" d="M127 117v227l825 332l-825 332v227l1110 -465v-188z" />
<glyph unicode="?" horiz-adv-x="937" d="M41 1286.5q0 59.5 64.5 99t158.5 39.5q119 0 245 -54t223 -175t97 -276q0 -117 -67 -185q-55 -55 -127 -81.5t-123 -29.5t-88 -18.5t-37 -50.5v-49q0 -16 -5 -20.5t-26 -4.5h-41q-18 0 -23 5.5t-7 23.5l-29 326q-4 41 56.5 56t152.5 35.5t141 69.5q39 39 39 95 q0 61 -53 111t-119 50q-72 0 -182.5 -50t-149.5 -50q-45 0 -72.5 37t-27.5 96.5zM156 170q0 78 54 132t132 54t133 -54t55 -132t-55 -133t-133 -55t-132 55t-54 133z" />
<glyph unicode="@" horiz-adv-x="1904" d="M94 434q0 414 273.5 683.5t693.5 269.5q324 0 521.5 -186.5t197.5 -489.5q0 -299 -173 -505t-427 -206q-94 0 -148.5 47t-54.5 131q0 59 24 133l-4 4q-90 -158 -171 -236.5t-171 -78.5q-76 0 -121 61.5t-45 163.5q0 188 91.5 364.5t210 275t213.5 98.5q63 0 97 -37 t44 -119h4l33 115l243 14l-194 -664q-18 -64 -19 -107q0 -91 82 -91q51 0 122 43t141.5 117.5t118.5 197.5t48 262q0 279 -178 454t-463 175q-207 0 -377.5 -79t-279.5 -210t-168 -293.5t-59 -339.5q0 -346 219 -566t563 -220q262 0 495.5 144.5t321.5 406.5h64 q-119 -293 -347.5 -450.5t-535.5 -157.5q-385 0 -635 246.5t-250 629.5zM745 279q0 -41 16.5 -68t43.5 -27q45 0 114.5 87t126 225.5t56.5 259.5q0 135 -72 135q-82 0 -183.5 -232.5t-101.5 -379.5z" />
<glyph unicode="A" horiz-adv-x="1599" d="M12 0v96q96 18 139.5 59.5t75.5 123.5l402 1021l-47 97h383l440 -1133q35 -88 77 -128t105 -40v-96h-692v96q104 8 132 54q12 19 12 47q0 38 -21 92l-92 237h-480l-65 -190q-21 -62 -21 -108q0 -117 134 -132v-96h-482zM494 647h385l-203 514z" />
<glyph unicode="B" horiz-adv-x="1599" d="M59 1300v97h897q268 0 391 -90t123 -236q0 -129 -97 -216t-283 -120v-4q207 -31 317.5 -121t110.5 -227q0 -68 -29 -132.5t-88.5 -121.5t-167 -93t-248.5 -36h-919v96q106 4 141 48t35 141v825q0 102 -38.5 146t-144.5 44zM602 301q0 -205 213 -205q147 0 230 75t83 200 t-87 214t-226 89h-213v-373zM602 770h232q115 0 184 70.5t69 175.5q0 113 -71.5 198.5t-206.5 85.5h-207v-530z" />
<glyph unicode="C" horiz-adv-x="1642" d="M100 674q0 145 53.5 279t155 239.5t262 169t359.5 63.5q295 0 561 -125l41 -325h-152q-70 156 -188.5 255t-273.5 99q-199 0 -314 -159.5t-115 -436.5q0 -299 130.5 -481t343.5 -182q154 0 267 99t165 288h153v-342q-254 -141 -600 -142q-229 0 -417.5 74t-309.5 237 t-121 390z" />
<glyph unicode="D" horiz-adv-x="1792" d="M61 0v96q100 0 140.5 42t40.5 138v840q0 98 -37 141t-144 43v97h914q178 0 317.5 -57.5t222 -156t125.5 -217t43 -249.5q0 -106 -27.5 -206.5t-91 -194t-154.5 -163t-229.5 -111.5t-303.5 -42h-816zM602 326q0 -121 53.5 -175.5t182.5 -54.5q106 0 188 35t132 90t82 132 t44 153t12 160q0 338 -174 512q-70 70 -155.5 96t-218.5 26h-146v-974z" />
<glyph unicode="E" horiz-adv-x="1536" d="M61 0v96q96 0 139.5 40t43.5 136v863q0 86 -41 125.5t-142 39.5v97h1344v-293h-133q-94 119 -171 157.5t-208 38.5h-289v-518h246q125 0 185.5 39t82.5 133h135v-452h-135q-31 111 -91 147.5t-187 36.5h-236v-393q0 -102 53.5 -149.5t210.5 -47.5q154 0 256.5 49.5 t231.5 200.5h141l-61 -346h-1375z" />
<glyph unicode="F" horiz-adv-x="1404" d="M63 0v96q94 0 134.5 43t40.5 137v840q0 100 -37 142t-138 42v97h1299v-293h-133q-80 119 -155 157.5t-224 38.5h-252v-538h184q137 0 202 40t77 138h137v-465h-137q-25 100 -84 145.5t-178 45.5h-201v-349q0 -129 36 -175t171 -46v-96h-742z" />
<glyph unicode="G" horiz-adv-x="1728" d="M98 674q0 313 221.5 532t606.5 219q166 0 323.5 -33.5t247.5 -91.5l25 -317h-133q-66 158 -195 252t-281 94q-203 0 -311 -157.5t-108 -454.5q0 -305 124.5 -476t348.5 -171q111 0 204 55v291q0 98 -37.5 141t-144.5 43v96h701v-96q-86 0 -122 -43t-36 -131v-344 q-78 -41 -271.5 -75t-347.5 -34q-379 0 -597 186.5t-218 514.5z" />
<glyph unicode="H" horiz-adv-x="1792" d="M53 0v96h29q172 0 172 162v866q0 94 -40 135t-142 41h-19v97h740v-97q-100 0 -139.5 -44t-39.5 -142v-336h578v348q0 88 -39 131t-143 43v97h729v-97q-111 0 -149 -47t-38 -153v-813q0 -104 41 -147.5t146 -43.5v-96h-719v96q98 0 135 45t37 138v378h-578v-366 q0 -106 37 -147.5t142 -47.5v-96h-740z" />
<glyph unicode="I" horiz-adv-x="831" d="M55 0v96q96 0 136 42t40 128v852q0 96 -38.5 139t-137.5 43v97h721v-97q-109 0 -146.5 -46t-37.5 -140v-846q0 -88 41 -130t143 -42v-96h-721z" />
<glyph unicode="J" horiz-adv-x="831" d="M-123 -252q0 45 39 76t94 31q51 0 78 -24t31 -50.5t17.5 -50t39.5 -23.5q33 0 47.5 36t14.5 120v1272q0 86 -41 125.5t-136 39.5v97h713v-97q-98 0 -137 -44t-39 -142v-938q0 -307 -131 -438q-68 -68 -165 -109t-202 -41q-96 0 -159.5 45t-63.5 115z" />
<glyph unicode="K" horiz-adv-x="1599" d="M57 1300v97h721v-97q-102 0 -139 -44t-37 -144v-358l301 247q178 147 178 222q0 78 -120 77v97h567v-97q-96 -18 -146.5 -43.5t-138.5 -99.5l-369 -309l484 -551q166 -190 264 -201v-96h-434q-109 86 -164 154l-422 497v-364q0 -98 36 -144.5t140 -46.5v-96h-721v96 q102 0 143.5 41t41.5 131v860q0 90 -40.5 131t-144.5 41z" />
<glyph unicode="L" horiz-adv-x="1404" d="M72 0v96q170 0 170 166v879q0 160 -170 159v97h714v-97q-102 0 -143 -41.5t-41 -136.5v-786q0 -131 46 -185.5t155 -54.5q127 0 234.5 60.5t224.5 191.5h127l-60 -348h-1257z" />
<glyph unicode="M" horiz-adv-x="2068" d="M20 0v96q43 0 74 20.5t51.5 67.5t30.5 90t25 119l125 694q7 39 7 71q0 51 -19 83q-30 51 -134 59v97h512q2 -76 30 -167t62 -171l111 -250l135 -313q51 133 142.5 310t142.5 299t51 218q0 43 -8 74h559v-97h-29q-102 0 -129 -55q-15 -31 -15 -86q0 -42 9 -98l127 -770 q16 -100 53 -146.5t117 -48.5v-96h-719v96h21q160 0 159 164q0 84 -29.5 252l-31.5 180l-43 346h-4q-33 -80 -130 -274.5t-178 -387t-124 -376.5h-129q-25 109 -86 262q-66 164 -171.5 383t-162.5 375h-4l-109 -639q-10 -68 -10 -115q0 -78 40 -124t110 -46h34v-96h-463z " />
<glyph unicode="N" horiz-adv-x="1622" d="M23 0v96h14q111 0 158 67.5t47 205.5v825q-109 92 -211 106v97h506l772 -875v393q0 240 -43 311.5t-193 73.5v97h529v-97q-117 -10 -152 -66t-35 -224v-660q0 -117 15.5 -222t17.5 -144h-143l-969 1101v-618q0 -205 48 -288t179 -83h15v-96h-555z" />
<glyph unicode="O" horiz-adv-x="1792" d="M102 674q0 227 117 402t297 262t385 87q102 0 204.5 -20.5t209 -73.5t187.5 -131t133.5 -205t52.5 -284q0 -143 -52.5 -274.5t-151 -236t-254 -166t-347.5 -61.5q-367 0 -574 206t-207 495zM500 737q0 -328 112.5 -497.5t307.5 -169.5q129 0 233 104q137 137 137 469 q0 319 -107.5 497.5t-299.5 178.5q-182 0 -282.5 -153t-100.5 -429z" />
<glyph unicode="P" horiz-adv-x="1492" d="M53 0v96q109 0 148 41t39 137v840q0 100 -39 143t-148 43v97h914q131 0 229 -37t152.5 -96.5t80 -124t25.5 -131.5q0 -176 -141.5 -283t-423.5 -107q-106 0 -136 11.5t-30 54.5q0 25 6 33t27 8q14 0 43.5 1t42.5 1q109 0 167 72.5t58 191.5q0 143 -80 226t-225 83h-162 v-1019q0 -100 40 -142.5t151 -42.5v-96h-738z" />
<glyph unicode="Q" horiz-adv-x="1771" d="M94 682q0 319 232.5 531t564.5 212q104 0 208.5 -22.5t210 -75.5t186.5 -132t131 -203t50 -277q0 -250 -136 -437.5t-374 -263.5q74 -45 265.5 -105.5t287.5 -74.5v-231q-38 -3 -75 -3q-166 0 -326 52q-197 63 -420 188l-303 170q-502 162 -502 672zM492 739 q0 -319 111.5 -492t295.5 -173q176 0 278.5 145.5t102.5 419.5q0 319 -108 499q-108 181 -298 181q-182 0 -282 -153t-100 -427z" />
<glyph unicode="R" horiz-adv-x="1579" d="M61 0v96q109 0 149 40t40 138v852q0 94 -41 134t-148 40v97h940q125 0 217.5 -36t140.5 -93.5t70.5 -115.5t22.5 -116q0 -131 -101.5 -231t-256.5 -125q61 -68 181 -228.5t157 -205.5q80 -94 108.5 -120t67.5 -30v-96h-402q-57 18 -325 406q-102 147 -137 183t-85 36h-49 v-338q0 -102 36 -146.5t140 -44.5v-96h-725zM610 721h127q174 0 251 68.5t77 216.5q0 133 -76 213.5t-229 80.5h-150v-579z" />
<glyph unicode="S" horiz-adv-x="1343" d="M104 1022q0 176 159 289.5t401 113.5q115 0 253 -32.5t242 -83.5v-308h-145q-23 143 -123 235.5t-232 92.5q-96 0 -156.5 -48t-60.5 -126q0 -70 60.5 -126t149.5 -93t194.5 -87t194.5 -103.5t149.5 -147.5t60.5 -215q0 -199 -158.5 -304.5t-424.5 -105.5q-129 0 -285 30 t-264 75v346h164q27 -168 134 -261t247 -93q102 0 168.5 51t66.5 133q0 80 -46 138.5t-125 97t-165 74.5t-187.5 92.5t-170.5 125.5q-101 101 -101 240z" />
<glyph unicode="T" horiz-adv-x="1515" d="M47 1096v301h1421v-301h-129q-145 205 -331 204h-70v-1019q0 -100 38 -142.5t140 -42.5v-96h-717v96q98 0 138.5 42t40.5 141v1021h-70q-186 0 -332 -204h-129z" />
<glyph unicode="U" horiz-adv-x="1705" d="M49 1300v97h731v-97q-104 0 -146 -38.5t-42 -135.5v-591q0 -201 90 -300.5t287 -99.5q78 0 146.5 18.5t133 59.5t101 121t36.5 190v510q0 139 -50 200.5t-169 65.5v97h510v-97q-106 -18 -146 -66t-40 -159v-581q0 -520 -614 -521q-645 0 -646 512v625q0 98 -36.5 144 t-145.5 46z" />
<glyph unicode="V" horiz-adv-x="1492" d="M29 1300v97h649v-97q-98 -4 -124 -49q-10 -17 -10 -40q0 -36 25 -87l328 -716l240 585q38 85 37 153q0 31 -8 59q-26 87 -142 95v97h442v-97q-53 -8 -85.5 -49t-71.5 -127l-334 -745q-74 -166 -139 -406h-158q-18 106 -100 293l-398 879q-37 82 -72.5 116.5t-78.5 38.5z " />
<glyph unicode="W" horiz-adv-x="2111" d="M35 1300v97h604v-97q-66 0 -90 -42q-13 -22 -13 -50q0 -26 11 -59l264 -748h4l199 574l-62 166q-29 74 -62.5 107.5t-98.5 51.5v97h634v-97q-80 0 -105 -45q-13 -23 -13 -51t12 -61l268 -733h4l187 565q33 98 32 162q0 139 -139 163v97h408v-97q-68 -27 -96.5 -69.5 t-73.5 -177.5l-176 -539q-12 -39 -54 -158l-72 -216q-32 -97 -51 -167h-184q-4 39 -30.5 135.5t-45.5 147.5l-227 582l-182 -510q-104 -289 -121 -355h-176q-70 242 -123 387l-270 738q-66 182 -162 202z" />
<glyph unicode="X" horiz-adv-x="1599" d="M10 1300v97h793v-97q-121 0 -146 -51q-7 -14 -6 -31q0 -43 45 -100l170 -225l181 209q59 68 59 115q0 82 -119 83v97h504v-97q-84 -12 -143.5 -50t-139.5 -128l-274 -309l389 -512q109 -143 148.5 -174t119.5 -31v-96h-800v96q143 0 161 55q3 8 3 18q0 56 -89 167 l-166 203l-192 -226q-52 -58 -52 -109q0 -17 6 -34q24 -66 132 -74v-96h-557v96q145 4 250 121l352 404l-420 553q-55 72 -96 97t-113 29z" />
<glyph unicode="Y" horiz-adv-x="1492" d="M29 1300v97h751v-97q-129 0 -159 -45q-12 -17 -12 -40q0 -40 32 -99l238 -454l241 438q22 48 22 91q0 40 -35 73q-38 35 -112 36v97h471v-97q-115 -16 -227 -210l-311 -539v-275q0 -98 43 -139t153 -41v-96h-753v96q113 0 154.5 41t41.5 152v219l-348 657 q-25 47 -42 69.5t-54 42t-94 23.5z" />
<glyph unicode="Z" horiz-adv-x="1404" d="M59 0v74l805 1226h-239q-139 0 -193.5 -32.5t-173.5 -180.5h-131v310h1178v-62l-813 -1239h299q125 0 220 60.5t185 191.5h145l-67 -348h-1215z" />
<glyph unicode="[" horiz-adv-x="811" d="M150 -375v1774h548v-96h-96q-98 0 -128 -30t-30 -116v-1290q0 -86 30 -116t128 -30h96v-96h-548z" />
<glyph unicode="\" horiz-adv-x="569" d="M0 1425h233l336 -1462h-233z" />
<glyph unicode="]" horiz-adv-x="811" d="M113 -279h96q98 0 128 30t30 116v1290q0 86 -30 116t-128 30h-96v96h549v-1774h-549v96z" />
<glyph unicode="^" horiz-adv-x="1189" d="M113 598l376 799h222l366 -799h-284l-197 489l-197 -489h-286z" />
<glyph unicode="_" horiz-adv-x="1024" d="M-12 -154h1048v-102h-1048v102z" />
<glyph unicode="`" horiz-adv-x="681" d="M39 1401h299l117 -346h-86z" />
<glyph unicode="a" horiz-adv-x="1148" d="M66 188q0 47 18 88t45 71t75 58.5t86 46t102.5 37t99 28.5t103.5 24.5t89 21.5v152q0 61 -39 98t-106 37q-86 0 -129 -56q-24 -31 -24 -75q0 -36 15 -80l-272 -86q-29 74 -29 135q0 125 124 191.5t366 66.5q213 0 301 -61.5t88 -190.5v-426q0 -63 37 -74q9 -3 20 -3 q31 0 70 24l16 -100q-92 -137 -233 -138q-152 0 -205 138q-84 -76 -156.5 -107t-169.5 -31q-131 0 -211.5 58.5t-80.5 152.5zM385 262q0 -57 34 -96t83 -39q72 0 182 88v254q-162 -45 -230.5 -87t-68.5 -120z" />
<glyph unicode="b" horiz-adv-x="1236" d="M-18 1253v54l385 112h65v-626q100 84 175 118.5t159 34.5q182 0 287.5 -139t105.5 -318q0 -92 -32.5 -180t-98 -163.5t-180.5 -122t-264 -46.5q-258 0 -447 134v1042zM432 328q0 -113 45 -183.5t131 -70.5q102 0 167 92t65 242q0 145 -70 241t-174 96q-72 0 -164 -63 v-354z" />
<glyph unicode="c" d="M72 444q0 90 27.5 173t88 160t173 123t264.5 46q158 0 251 -60.5t93 -160.5q0 -59 -41 -101t-98.5 -42t-92.5 42t-46 91t-43 91t-87 42q-88 0 -148.5 -74t-60.5 -186q0 -166 99.5 -283t238.5 -117q66 0 114 22.5t111 86.5l76 -70q-59 -119 -182 -184.5t-281 -65.5 q-147 0 -254.5 72t-154.5 175t-47 220z" />
<glyph unicode="d" horiz-adv-x="1259" d="M66 432q0 221 143 367.5t360 146.5q109 0 224 -47v275l-162 83v66l391 96h65v-1181q0 -106 111 -106q20 0 43 3v-110l-356 -43h-92v153q-164 -158 -334 -158q-164 0 -278.5 132.5t-114.5 322.5zM385 510q0 -147 69.5 -245.5t174.5 -98.5q76 0 164 67v363 q0 113 -48.5 183.5t-134.5 70.5q-98 0 -161.5 -95t-63.5 -245z" />
<glyph unicode="e" d="M74 440q0 225 137 365.5t358 140.5q199 0 315.5 -113.5t121.5 -308.5h-650q10 -139 106.5 -235t221.5 -96q104 0 242 100l80 -60q-199 -256 -486 -256q-201 0 -323.5 127t-122.5 336zM350 621h338q0 111 -43 170t-121 59t-126 -62.5t-48 -166.5z" />
<glyph unicode="f" horiz-adv-x="724" d="M45 801v121q113 0 133 30q10 14 20.5 70.5t41 128.5t92.5 133q135 135 360 135q139 0 217 -42t78 -117q0 -57 -50 -103.5t-114 -46.5q-43 0 -75.5 30.5t-51 68.5t-48.5 69t-66 31q-84 0 -84 -129v-258h192v-121h-192v-520q0 -100 37.5 -142.5t134.5 -42.5h35v-96h-644v96 q82 8 112 50t30 133v522h-158z" />
<glyph unicode="g" horiz-adv-x="1130" d="M78 -193q0 45 32.5 80t120.5 82q-57 16 -94 60.5t-37 91.5q0 131 205 231q-199 88 -199 269q0 150 114 237.5t306 87.5q92 0 240.5 -14t194.5 -14q29 0 81 2t78 2v-195q-29 -3 -59 -3q-60 0 -121 11q25 -43 25 -114q0 -147 -133.5 -224.5t-331.5 -77.5q-57 0 -103 11 q-74 -49 -73 -92q0 -27 26.5 -34t114.5 -7q33 0 132 4t130 4q156 0 235.5 -73t79.5 -177q0 -55 -27.5 -111.5t-87 -109.5t-171 -86t-258.5 -33q-420 -1 -420 192zM250 -166q0 -119 254 -119q184 0 271 44t87 112q0 80 -166 80q-31 0 -123 -4t-146 -5q-11 0 -21 -1 q-42 0 -80 4q-76 -50 -76 -111zM399 653q0 -238 146 -237q133 0 133 174q0 260 -139 260q-66 0 -103 -51.5t-37 -145.5z" />
<glyph unicode="h" horiz-adv-x="1280" d="M31 0v96q143 0 143 174v889l-143 88v60l358 112h80v-643h4q133 170 328 170q137 0 219 -68.5t82 -205.5v-365q0 -115 25.5 -154.5t109.5 -56.5v-96h-547v96q72 20 94.5 60.5t22.5 150.5v238q0 98 -46 148t-112 50q-74 0 -180 -59v-412q0 -160 119 -176v-96h-557z" />
<glyph unicode="i" horiz-adv-x="681" d="M37 0v96q88 0 126 43t38 140v397l-164 96v66l354 102h105v-657q0 -94 31.5 -138.5t119.5 -48.5v-96h-610zM145 1245.5q0 71.5 51.5 122.5t123 51t124 -51t52.5 -122.5t-52.5 -124t-124 -52.5t-123 52.5t-51.5 124z" />
<glyph unicode="j" horiz-adv-x="641" d="M4 -279q115 119 155 187.5t40 152.5v615l-168 100v55l354 109h109v-756q0 -168 -90.5 -296t-323.5 -273zM154 1245.5q0 71.5 51 122.5t122.5 51t124 -51t52.5 -122.5t-52.5 -124t-124 -52.5t-122.5 52.5t-51 124z" />
<glyph unicode="k" horiz-adv-x="1130" d="M10 1233v74l355 112h90v-907q158 158 178 193q18 29 18 61q0 61 -88 61v95h494v-95q-92 -2 -175 -53t-194 -172l135 -151q66 -74 129.5 -133.5t93 -84t48 -47t18.5 -47.5v-106q0 -23 -7 -28t-38 -5h-143q-92 16 -226 170l-243 281v-144q0 -115 23.5 -152.5t105.5 -58.5 v-96h-568v96q84 8 114 48t30 128v887z" />
<glyph unicode="l" horiz-adv-x="636" d="M14 0v96q88 0 128 44t40 134v885l-168 88v60l396 112h67v-1147q0 -164 146 -176v-96h-609z" />
<glyph unicode="m" horiz-adv-x="2004" d="M16 772v66l353 102h104v-168q100 94 183 134t182 40q221 0 297 -182q180 182 389 182q156 0 232.5 -87t76.5 -247v-340q0 -86 34 -129t113 -47v-96h-577v96q82 14 108.5 61.5t26.5 149.5v268q0 90 -42 138.5t-122 48.5q-127 0 -221 -88v-404q0 -92 30.5 -131t123.5 -43 v-96h-584v96q84 8 109.5 54.5t25.5 156.5v293q0 78 -46 120t-118 42q-63 0 -124.5 -26.5t-96.5 -67.5v-389q0 -92 33 -137.5t121 -45.5v-96h-584v96q82 14 108.5 55.5t26.5 155.5v361z" />
<glyph unicode="n" horiz-adv-x="1280" d="M39 0v96q143 6 143 168v406l-143 106v55l336 109h102v-164q158 170 334 170q139 0 219 -76.5t80 -224.5v-338q0 -113 25.5 -153.5t107.5 -57.5v-96h-551v96q66 10 94.5 52t28.5 122v318q0 78 -38 125t-109 47q-90 0 -191 -72v-416q0 -78 27.5 -120.5t101.5 -55.5v-96 h-567z" />
<glyph unicode="o" horiz-adv-x="1173" d="M76 444q0 205 137 353.5t387 148.5q131 0 231.5 -46t155.5 -119.5t82 -154.5t27 -165q0 -205 -131 -344.5t-387 -139.5q-225 0 -363.5 129t-138.5 338zM393 522q0 -449 209 -448q84 0 130 70.5t46 197.5q0 508 -207 508q-100 0 -139 -86t-39 -242z" />
<glyph unicode="p" horiz-adv-x="1259" d="M20 776v62l338 108h109v-145q150 145 324 145q168 0 280.5 -130t112.5 -322q0 -227 -156 -372t-395 -145q-88 0 -166 23v-102q0 -100 36 -143.5t128 -43.5v-96h-611v96q152 0 152 174v791zM467 332q0 -256 184 -256q88 0 150.5 95t62.5 230q0 150 -69.5 248.5 t-171.5 98.5q-70 0 -156 -62v-354z" />
<glyph unicode="q" horiz-adv-x="1259" d="M80 432q0 223 155.5 368.5t397.5 145.5q180 0 358 -86v86h111v-1057q0 -90 32.5 -131t120.5 -49v-94h-618v96q96 0 133 43t37 133v248q-92 -84 -164 -121t-160 -37q-170 0 -286.5 131t-116.5 324zM401 510q0 -141 69 -234.5t175 -93.5q80 0 162 64v370q0 109 -50 171.5 t-136 62.5q-98 0 -159 -94t-61 -246z" />
<glyph unicode="r" horiz-adv-x="980" d="M27 776v62l352 102h106v-264h4q139 270 310 270q72 0 125 -43t53 -100.5t-38 -148.5t-89 -91q-35 0 -108.5 66.5t-98.5 66.5q-55 0 -106.5 -83t-51.5 -154v-183q0 -106 41 -143t150 -37v-96h-633v96q82 4 114.5 45t32.5 123v412z" />
<glyph unicode="s" horiz-adv-x="937" d="M74 655q0 150 107.5 220.5t262.5 70.5q166 0 342 -69l23 -224h-88q-45 90 -124 143.5t-165 53.5q-63 0 -104 -26.5t-41 -67.5q0 -45 59.5 -78t144 -59.5t169.5 -62.5t144.5 -107.5t59.5 -172.5q0 -139 -99 -219t-276 -80q-168 0 -387 84l-16 240h90q121 -215 313 -215 q80 0 123 30.5t43 76t-60 78t-145 59t-170 60.5t-145.5 101.5t-60.5 163.5z" />
<glyph unicode="t" horiz-adv-x="768" d="M37 801v106q121 18 217 94t123 158h90v-237h278v-121h-278v-492q0 -88 28.5 -123.5t116.5 -35.5q63 0 133 30v-112q-111 -90 -317 -91q-115 0 -185.5 62.5t-70.5 171.5v590h-135z" />
<glyph unicode="u" horiz-adv-x="1280" d="M45 811v92l412 19v-596q0 -78 48 -119t109 -41q82 0 179 67v439q0 55 -33 94t-88 45v92l415 19v-609q0 -121 25 -151.5t123 -30.5v-96l-361 -53h-81v155q-94 -90 -166 -125t-162 -35q-303 0 -303 336v318q0 86 -25.5 125t-91.5 55z" />
<glyph unicode="v" horiz-adv-x="1110" d="M8 825v97h535v-97q-82 -2 -97 -41q-4 -10 -3 -22q0 -36 30 -94l191 -371l143 278q35 68 45 120q3 15 3 28q0 35 -19 62q-27 38 -95 40v97h361v-97q-66 -23 -115 -120l-368 -728h-121l-365 728q-35 68 -59.5 94t-65.5 26z" />
<glyph unicode="w" horiz-adv-x="1579" d="M6 825v97h463v-97q-71 0 -71 -59q0 -35 24 -90l164 -365l162 305l-50 113q-25 53 -48 73.5t-70 22.5v97h518v-97q-80 -2 -93 -40q-4 -10 -4 -22q0 -34 27 -83l158 -336l123 287q23 53 23 92q0 86 -111 102v97h350v-97q-41 -10 -66.5 -41.5t-64.5 -126.5l-291 -680h-115 l-231 510l-275 -510h-106l-266 625q-66 154 -87.5 185.5t-62.5 37.5z" />
<glyph unicode="x" horiz-adv-x="1130" d="M23 0v96q88 23 170 99l243 223l-301 346q-31 37 -51.5 47t-60.5 14v97h544v-97q-68 0 -78 -33q-2 -7 -2 -15q0 -28 31 -60l109 -123l75 70q43 39 57.5 73.5t-7 59t-80.5 28.5v97h428v-97q-86 -8 -176 -92l-232 -215l275 -305q53 -59 77.5 -79.5t65.5 -37.5v-96h-557v96 q70 2 84 38q4 9 4 19q0 28 -31 60l-110 133l-119 -117q-42 -39 -42 -73q0 -8 2 -16q11 -42 91 -44v-96h-409z" />
<glyph unicode="y" horiz-adv-x="1110" d="M8 825v97h549v-97q-114 -4 -114 -67q0 -26 20 -64l223 -405l152 336q24 50 23 91q0 26 -9 49q-25 58 -109 60v97h365v-97q-41 -4 -70.5 -37.5t-70.5 -125.5l-361 -791q-63 -137 -138 -196.5t-183 -59.5q-90 0 -147.5 46t-57.5 122q0 57 37 96t92 39q45 0 74.5 -29.5 t54 -59.5t57.5 -30q88 0 148 170l-404 738q-43 78 -61.5 94t-69.5 24z" />
<glyph unicode="z" horiz-adv-x="1044" d="M39 0l10 96l563 729h-118q-131 0 -187.5 -37.5t-136.5 -169.5h-100l22 345h80q29 -25 59 -33q33 -8 105 -8h627v-84l-547 -742h90q125 0 200.5 41t172.5 158h108l-41 -295h-907z" />
<glyph unicode="{" horiz-adv-x="806" d="M106 487v58q92 8 141.5 70.5t49.5 148.5q0 51 -23.5 165.5t-23.5 157.5q0 129 110.5 227.5t301.5 98.5v-39q-84 -8 -139.5 -65.5t-55.5 -124.5q0 -57 24.5 -160.5t24.5 -177.5q0 -109 -84 -202t-244 -126v-4q160 -33 244 -126t84 -202q0 -74 -24.5 -177t-24.5 -161 q0 -68 55.5 -125t139.5 -65v-39q-190 0 -301 98.5t-111 227.5q0 43 23.5 157.5t23.5 165.5q0 86 -49.5 148.5t-141.5 70.5z" />
<glyph unicode="|" horiz-adv-x="1204" d="M492 -512v2048h217v-2048h-217z" />
<glyph unicode="}" horiz-adv-x="806" d="M145 -342q84 8 139.5 65.5t55.5 124.5q0 57 -24.5 161t-24.5 177q0 109 84 202t243 126v4q-160 33 -243.5 126t-83.5 202q0 74 24.5 177t24.5 161q0 68 -55.5 125t-139.5 65v39q190 0 301 -98t111 -228q0 -43 -23.5 -157.5t-23.5 -165.5q0 -86 49 -148.5t141 -70.5v-58 q-92 -8 -141 -70.5t-49 -148.5q0 -51 23.5 -165.5t23.5 -157.5q0 -129 -110.5 -227.5t-301.5 -98.5v39z" />
<glyph unicode="~" horiz-adv-x="1064" d="M39 500q14 168 91 260t204 92q84 0 239.5 -71.5t237.5 -71.5q123 0 154 143h63q-4 -152 -81 -252t-195 -100q-92 0 -260 69.5t-228 69.5q-127 0 -160 -139h-65z" />
<glyph unicode="&#xa1;" horiz-adv-x="704" d="M166 870.5q0 77.5 55 133t133 55.5t132.5 -55.5t54.5 -133t-54.5 -132t-132.5 -54.5t-133 54.5t-55 132zM184 -176l97 622q12 76 24 82q4 4 17 4h61q16 0 23.5 -12t15.5 -59l98 -637q11 -53 11 -92q0 -38 -10 -64q-19 -53 -101 -53h-135q-78 0 -99 49q-11 26 -10 69 q-1 39 8 91z" />
<glyph unicode="&#xa2;" d="M72 444q0 213 142 357.5t409 144.5l135 379h100l-139 -385q123 -18 186.5 -77.5t63.5 -137.5q0 -59 -41 -101t-99 -42q-61 0 -91.5 43t-71.5 159h-4l-181 -508q88 -88 209 -88q66 0 114 22.5t111 86.5l76 -70q-59 -117 -181 -183.5t-278 -66.5q-88 0 -153 23l-76 -215 h-96l90 248q-106 63 -165.5 172.5t-59.5 238.5zM352 584q0 -113 62 -222l172 480q-18 4 -36 4q-66 0 -124 -54q-74 -69 -74 -208z" />
<glyph unicode="&#xa3;" horiz-adv-x="1044" d="M53 -199q0 76 55.5 138.5t151.5 99.5q33 131 43 301h-221l20 149h213q29 324 77 496t153 277q96 96 233 96q102 0 159.5 -49t57.5 -135q0 -61 -27.5 -100.5t-72.5 -39.5q-37 0 -62.5 28t-25.5 64q0 8 1 34t0 38t-5 29.5t-15.5 26t-29.5 8.5q-72 0 -103 -244l-69 -529h239 l-24 -149h-242q-8 -57 -35.5 -146.5t-52.5 -132.5q53 0 107 -44l109 -89q56 -45 118 -45q66 0 65 58q0 29 -46 74.5t-46 82.5q0 41 33 75t76 34q45 0 72.5 -45t27.5 -123q0 -162 -78 -256t-209 -94q-84 0 -154.5 44t-152.5 158q-106 -203 -227 -202q-51 0 -82 30.5t-31 81.5 z" />
<glyph unicode="&#xa4;" horiz-adv-x="1366" d="M158 295l131 129q-72 117 -72 254q0 129 72 250l-131 131l139 143l135 -133q121 74 250 74t254 -74l131 133l141 -143l-131 -131q74 -125 74 -250q0 -133 -74 -254l131 -129l-141 -141l-131 129q-119 -74 -256 -74q-129 0 -250 74l-129 -129zM416 675.5 q0 -110.5 77.5 -189t190.5 -78.5q111 0 188.5 78.5t77.5 189t-77.5 188.5t-188.5 78q-113 0 -190.5 -78t-77.5 -188.5z" />
<glyph unicode="&#xa5;" horiz-adv-x="1345" d="M14 1300v97h742v-97q-86 0 -129 -18t-43 -70q0 -35 34 -100l89 -166h305l84 154q23 41 22 80q0 53 -39 84.5t-108 35.5v97h471v-97q-68 -16 -109 -53q-61 -57 -119 -157l-81 -144h249v-98h-307l-170 -295h477v-98h-479v-138q0 -139 39 -176q41 -45 127 -45h31v-96h-744 v96h31q90 0 127 31q74 59 74 190v138h-479v98h456l-162 295h-294v98h241q-29 47 -75 139l-52 105q-8 16 -18 29.5t-22.5 23.5l-22.5 17.5t-24.5 13.5t-24 9t-24.5 6t-21.5 4t-20.5 3t-16 2zM758 848l96 -186l102 186h-198z" />
<glyph unicode="&#xa6;" horiz-adv-x="1204" d="M492 358h217v-716h-217v716zM492 666v716h217v-716h-217z" />
<glyph unicode="&#xa7;" horiz-adv-x="1173" d="M70 932q0 68 18 134.5t61.5 132t106.5 115.5t162.5 81.5t222.5 31.5q193 0 312.5 -66.5t119.5 -164.5q0 -61 -36 -97t-95 -36q-37 0 -65.5 15.5t-49 35t-71.5 78.5q-49 57 -115 97t-119 40q-47 0 -81.5 -28.5t-34.5 -67.5q0 -18 4 -37.5t16 -44.5t23.5 -44.5t34.5 -50.5 l39 -52q15 -20 49 -60l54 -60l61 -70l63 -73l89 -101l82 -94l61 -78q42 -54 55 -84l34 -78q20 -48 26.5 -94t6.5 -101q0 -231 -148.5 -367.5t-398.5 -136.5q-240 0 -353.5 68.5t-113.5 168.5q0 57 42 98.5t101 41.5q53 0 91.5 -29t63.5 -70l54 -83q29 -42 79 -70.5 t122 -28.5q70 0 113 30.5t43 82.5q0 68 -63.5 148.5t-250.5 275.5q-39 39 -59 61q-197 207 -276.5 338t-79.5 293zM184 995q0 -45 6.5 -83t33.5 -87l44 -76q16 -28 77 -97l87 -98l119 -128q123 -131 183.5 -202.5t111.5 -165t51 -171.5q0 -74 -45 -141l4 -4q127 80 127 268 q0 106 -43 202.5t-104.5 170.5t-200.5 221q-172 182 -259 305t-87 215q0 88 43 166l-4 4q-144 -127 -144 -299z" />
<glyph unicode="&#xa8;" horiz-adv-x="681" d="M20 1196q0 55 39 94t94.5 39t94.5 -39t39 -94t-39 -94t-94.5 -39t-94.5 39t-39 94zM395 1196q0 55 39 94t94.5 39t94.5 -39t39 -94t-39 -94t-94.5 -39t-94.5 39t-39 94z" />
<glyph unicode="&#xa9;" horiz-adv-x="1529" d="M57 688q0 293 208 501t501 208t501 -208t208 -501t-208 -500.5t-501 -207.5t-501 207.5t-208 500.5zM154 688q0 -254 179 -433t433 -179t433 179t179 433t-179 433t-433 179t-433 -179t-179 -433zM334 678q0 190 124 315t314 125q76 0 154 -26.5t90 -26.5q39 0 47 51h39 v-268h-39q-20 102 -86 160.5t-162 58.5q-121 0 -189.5 -96.5t-68.5 -276.5q0 -182 71.5 -273t184.5 -91q147 0 260 139v-72q-123 -127 -319 -127q-186 0 -303 114t-117 294z" />
<glyph unicode="&#xaa;" horiz-adv-x="747" d="M41 903q0 84 102.5 136.5t298.5 86.5v93q0 35 -24.5 56t-67.5 21q-57 0 -85 -33q-16 -19 -16 -46q0 -20 9 -43l-176 -54q-18 47 -19 82q0 156 320 156q145 0 198.5 -39t53.5 -121v-242q0 -51 37 -51q18 0 45 13l12 -60q-59 -82 -154 -82q-96 0 -133 82q-98 -82 -211 -82 q-84 0 -137 35t-53 92zM248 948q0 -35 21.5 -58.5t54.5 -23.5q51 0 118 54v151q-104 -25 -149 -53.5t-45 -69.5z" />
<glyph unicode="&#xab;" horiz-adv-x="1130" d="M78 516q98 131 160 229q74 119 118 230h205q-59 -197 -235 -445l-11 -14l15 -22q150 -238 188 -326q27 -61 43 -113h-205q-41 92 -112 211q-105 174 -166 250zM569 516q98 131 160 229q74 119 119 230h205q-59 -197 -236 -445l-10 -14l14 -22q178 -281 232 -439h-205 q-43 90 -113 211q-86 150 -166 250z" />
<glyph unicode="&#xac;" horiz-adv-x="1366" d="M127 815v205h1112v-686h-205v481h-907z" />
<glyph unicode="&#xad;" horiz-adv-x="937" d="M113 381v264h714v-264h-714z" />
<glyph unicode="&#xae;" horiz-adv-x="1529" d="M57 688q0 293 208 501t501 208t501 -208t208 -501t-208 -500.5t-501 -207.5t-501 207.5t-208 500.5zM154 688q0 -254 179 -433t433 -179t433 179t179 433t-179 433t-433 179t-433 -179t-179 -433zM371 291v33q4 0 8 -1q55 0 75 27q22 29 21 111v471q0 80 -17.5 106.5 t-70.5 26.5v35h428q137 0 213 -62.5t76 -156.5q0 -156 -178 -207l135 -250q47 -88 106 -100v-33h-241l-207 368h-45v-198q0 -84 21.5 -109.5t99.5 -27.5v-33h-424zM674 711h51q78 0 121 47t43 127q0 172 -178 172h-37v-346z" />
<glyph unicode="&#xaf;" horiz-adv-x="681" d="M20 1130v209h644v-209h-644z" />
<glyph unicode="&#xb0;" horiz-adv-x="819" d="M63 1050.5q0 143.5 101.5 245t245 101.5t245 -101.5t101.5 -245t-101.5 -244.5t-245 -101t-245 101t-101.5 244.5zM195 1051q0 -88 62 -151.5t152.5 -63.5t153 63.5t62.5 151.5t-62.5 151.5t-153 63.5t-152.5 -63.5t-62 -151.5z" />
<glyph unicode="&#xb1;" horiz-adv-x="1368" d="M129 0v205h1110v-205h-1110zM129 788v205h453v432h204v-432h453v-205h-453v-432h-204v432h-453z" />
<glyph unicode="&#xb2;" horiz-adv-x="661" d="M41 651v56q143 109 238.5 225.5t95.5 189.5q0 53 -40 88t-102 35q-66 0 -135 -57l-45 43q49 57 125 92t148 35q96 0 162.5 -50.5t66.5 -121.5q0 -66 -49 -135.5t-97 -110.5l-173 -141v-4h180q57 0 75.5 10t34.5 45h76l-76 -199h-485z" />
<glyph unicode="&#xb3;" horiz-adv-x="661" d="M51 1235q66 66 129.5 94.5t149.5 28.5q98 0 160.5 -41t62.5 -107q0 -88 -121 -137q72 -25 115 -73t43 -105q0 -102 -106.5 -179t-250.5 -77q-76 0 -126 19.5t-50 48.5q0 23 20.5 41t45.5 18q35 0 81 -32t77 -32q51 0 84.5 38t33.5 94q0 76 -62.5 107.5t-213.5 35.5l12 57 h12q106 0 159 35q56 37 56 94q0 43 -31.5 70t-82.5 27q-61 0 -152 -78z" />
<glyph unicode="&#xb4;" horiz-adv-x="681" d="M227 1055l117 346h299l-330 -346h-86z" />
<glyph unicode="&#xb5;" horiz-adv-x="1138" d="M59 -322q0 49 36 187.5t36 298.5v758h279v-680q0 -72 19.5 -102.5t64.5 -30.5q90 0 165 120v693h279v-668q0 -131 65.5 -131t79.5 143h41q0 -7 1 -13q0 -124 -73 -200q-77 -80 -186 -80q-150 0 -200 156q-139 -156 -291 -156q-70 0 -148 58q0 -92 29 -198.5t29 -139.5 q0 -61 -33 -97t-86 -36q-107 -1 -107 118z" />
<glyph unicode="&#xb6;" horiz-adv-x="1105" d="M-2 936q0 90 26.5 169t83 146.5t161 106.5t247.5 39h590v-43h-43q-74 0 -109.5 -33t-35.5 -111v-1611h-99v1722h-182v-1722h-100v870q-254 0 -396.5 128t-142.5 339z" />
<glyph unicode="&#xb7;" horiz-adv-x="704" d="M164 667.5q0 77.5 54 132t132 54.5t133.5 -54.5t55.5 -132t-55.5 -133t-133.5 -55.5t-132 55.5t-54 133z" />
<glyph unicode="&#xb8;" horiz-adv-x="681" d="M88 -375q227 0 227 119q0 82 -120 82l155 186h90l-63 -80q166 -25 166 -161q0 -86 -88 -142.5t-267 -56.5h-100v53z" />
<glyph unicode="&#xb9;" horiz-adv-x="661" d="M119 1200v57q145 35 217 101h90v-565q0 -47 21.5 -66.5t70.5 -19.5h33v-56h-432v56h24q63 0 82 20.5t19 85.5v287q0 61 -17.5 80.5t-74.5 19.5h-33z" />
<glyph unicode="&#xba;" horiz-adv-x="768" d="M51 1057q0 133 96.5 217t245.5 84q156 0 240 -90t84 -201q0 -131 -93.5 -211t-246.5 -80q-145 0 -235.5 78t-90.5 203zM262 1106q0 -270 129 -270q63 0 89 47t26 147q0 268 -131 268q-57 0 -85 -44t-28 -148z" />
<glyph unicode="&#xbb;" horiz-adv-x="1130" d="M78 55q63 209 235 445l13 14l-17 23q-172 264 -231 438h205q43 -90 112 -211q88 -150 166 -250q-82 -111 -160 -231q-74 -115 -118 -228h-205zM569 975h205q43 -90 113 -211q86 -150 166 -250q-100 -135 -160 -231q-82 -135 -119 -228h-205q59 197 236 445l10 14l-14 23 q-141 223 -189 325q-18 39 -43 113z" />
<glyph unicode="&#xbc;" horiz-adv-x="1878" d="M154 1200v57q145 35 217 101h90v-565q0 -47 21.5 -66.5t70.5 -19.5h33v-56h-432v56h24q63 0 82 20.5t19 85.5v287q0 61 -17.5 80.5t-75.5 19.5h-32zM457 -27l784 1424h141l-782 -1424h-143zM1112 156v104l367 445h127v-429h92v-120h-92v-168h-174v168h-320zM1208 276h224 v271h-5z" />
<glyph unicode="&#xbd;" horiz-adv-x="1878" d="M154 1200v57q145 35 217 101h90v-565q0 -47 21.5 -66.5t70.5 -19.5h33v-56h-432v56h24q63 0 82 20.5t19 85.5v287q0 61 -17.5 80.5t-75.5 19.5h-32zM457 -27l784 1424h141l-782 -1424h-143zM1180 0v55q143 109 238 225.5t95 190.5q0 53 -39.5 88t-101.5 35 q-66 0 -135 -57l-45 43q49 57 125 92t147 35q96 0 163 -50.5t67 -121.5q0 -66 -49.5 -135.5t-97.5 -110.5l-173 -142v-4h180q57 0 76 10.5t35 45.5h76l-76 -199h-485z" />
<glyph unicode="&#xbe;" horiz-adv-x="1878" d="M109 1235q66 66 129 94.5t149 28.5q98 0 160.5 -41t62.5 -107q0 -88 -121 -137q72 -25 115 -73t43 -105q0 -102 -106.5 -179t-249.5 -77q-76 0 -126 19.5t-50 48.5q0 23 20.5 41t44.5 18q35 0 81 -32t77 -32q51 0 85 38t34 94q0 76 -62.5 107.5t-214.5 35.5l13 57h11 q106 0 160 35q56 37 56 94q0 43 -32 70t-83 27q-61 0 -151 -78zM479 -27l785 1424h141l-782 -1424h-144zM1135 156v104l366 445h127v-429h92v-120h-92v-168h-174v168h-319zM1231 276h223v271h-4z" />
<glyph unicode="&#xbf;" horiz-adv-x="937" d="M109 121q0 117 67 184q55 55 127 82t123 30t88 18.5t37 49.5v50q0 16 5 20t26 4h41q18 0 23 -5t7 -24l29 -325q4 -41 -56.5 -56.5t-152.5 -36t-141 -69.5q-39 -39 -39 -94q0 -61 53 -111.5t119 -50.5q72 0 182.5 50t149.5 50q45 0 72.5 -36.5t27.5 -96t-64.5 -99.5 t-158.5 -40q-119 0 -245 54.5t-223 175t-97 276.5zM408 870.5q0 77.5 55 133t133 55.5t132 -55.5t54 -133t-54 -132t-132 -54.5t-133 54.5t-55 132z" />
<glyph unicode="&#xc0;" horiz-adv-x="1599" d="M12 0v96q96 18 139.5 59.5t75.5 123.5l402 1021l-47 97h383l440 -1133q35 -88 77 -128t105 -40v-96h-692v96q104 8 132 54q12 19 12 47q0 38 -21 92l-92 237h-480l-65 -190q-21 -62 -21 -108q0 -117 134 -132v-96h-482zM494 647h385l-203 514zM498 1878h299l116 -346h-86 z" />
<glyph unicode="&#xc1;" horiz-adv-x="1599" d="M12 0v96q96 18 139.5 59.5t75.5 123.5l402 1021l-47 97h383l440 -1133q35 -88 77 -128t105 -40v-96h-692v96q104 8 132 54q12 19 12 47q0 38 -21 92l-92 237h-480l-65 -190q-21 -62 -21 -108q0 -117 134 -132v-96h-482zM494 647h385l-203 514zM686 1532l117 346h299 l-330 -346h-86z" />
<glyph unicode="&#xc2;" horiz-adv-x="1599" d="M12 0v96q96 18 139.5 59.5t75.5 123.5l402 1021l-47 97h383l440 -1133q35 -88 77 -128t105 -40v-96h-692v96q104 8 132 54q12 19 12 47q0 38 -21 92l-92 237h-480l-65 -190q-21 -62 -21 -108q0 -117 134 -132v-96h-482zM479 1522l213 383h228l200 -383h-76l-239 202 l-244 -202h-82zM494 647h385l-203 514z" />
<glyph unicode="&#xc3;" horiz-adv-x="1599" d="M12 0v96q96 18 139.5 59.5t75.5 123.5l402 1021l-47 97h383l440 -1133q35 -88 77 -128t105 -40v-96h-692v96q104 8 132 54q12 19 12 47q0 38 -21 92l-92 237h-480l-65 -190q-21 -62 -21 -108q0 -117 134 -132v-96h-482zM479 1542v16q0 116 58 186q61 75 159 75 q51 0 148.5 -46.5t140.5 -46.5q29 0 47.5 19.5t34.5 71.5h53q2 -20 2 -40q0 -98 -53 -161q-63 -76 -160 -76q-63 0 -163.5 47t-131.5 47q-63 0 -77 -92h-58zM494 647h385l-203 514z" />
<glyph unicode="&#xc4;" horiz-adv-x="1599" d="M12 0v96q96 18 139.5 59.5t75.5 123.5l402 1021l-47 97h383l440 -1133q35 -88 77 -128t105 -40v-96h-692v96q104 8 132 54q12 19 12 47q0 38 -21 92l-92 237h-480l-65 -190q-21 -62 -21 -108q0 -117 134 -132v-96h-482zM479 1673.5q0 55.5 39 94t94.5 38.5t94 -38.5 t38.5 -94t-38.5 -94.5t-94 -39t-94.5 39t-39 94.5zM494 647h385l-203 514zM854 1673.5q0 55.5 39 94t94 38.5t94 -38.5t39 -94t-39 -94.5t-94 -39t-94 39t-39 94.5z" />
<glyph unicode="&#xc5;" horiz-adv-x="1599" d="M12 0v96q96 18 139.5 59.5t75.5 123.5l402 1021l-47 97h383l440 -1133q35 -88 77 -128t105 -40v-96h-692v96q104 8 132 54q12 19 12 47q0 38 -21 92l-92 237h-480l-65 -190q-21 -62 -21 -108q0 -117 134 -132v-96h-482zM494 647h385l-203 514zM592 1704q0 86 61.5 147.5 t147.5 61.5t147.5 -61.5t61.5 -147.5t-61.5 -147.5t-147.5 -61.5t-147.5 61.5t-61.5 147.5zM668 1704q0 -55 38.5 -94t94 -39t94.5 39t39 94t-39 94t-94.5 39t-94 -39t-38.5 -94z" />
<glyph unicode="&#xc6;" horiz-adv-x="2111" d="M33 0v96q94 8 130 55.5t93 206.5l240 666q45 105 44 170q0 21 -4 38q-19 69 -147 68v97h1428l61 -307h-135q-123 121 -209 165.5t-219 44.5h-277l133 -546h213q143 0 196.5 37.5t59.5 142.5h129l80 -440h-135q-43 104 -98 133.5t-207 29.5h-211l111 -436q16 -68 55 -96.5 t143 -28.5q109 0 195 49.5t227 190.5h137l-65 -336h-1215v96q111 0 142 41q17 23 17 63q0 32 -11 76l-94 381h-355l-88 -305q-17 -58 -17 -103q0 -130 140 -153v-96h-487zM520 754h297l-131 546h-4z" />
<glyph unicode="&#xc7;" horiz-adv-x="1642" d="M100 674q0 145 53.5 279t155 239.5t262 169t359.5 63.5q295 0 561 -125l41 -325h-152q-70 156 -188.5 255t-273.5 99q-199 0 -314 -159.5t-115 -436.5q0 -299 130.5 -481t343.5 -182q154 0 267 99t165 288h153v-342q-254 -141 -600 -142q-55 0 -84 7l-37 -48 q166 -25 166 -161q0 -86 -88 -142.5t-266 -56.5h-100v53q227 0 227 119q0 82 -121 82l137 164q-299 35 -490.5 211t-191.5 473z" />
<glyph unicode="&#xc8;" horiz-adv-x="1536" d="M61 0v96q96 0 139.5 40t43.5 136v863q0 86 -41 125.5t-142 39.5v97h1344v-293h-133q-94 119 -171 157.5t-208 38.5h-289v-518h246q125 0 185.5 39t82.5 133h135v-452h-135q-31 111 -91 147.5t-187 36.5h-236v-393q0 -102 53.5 -149.5t210.5 -47.5q154 0 256.5 49.5 t231.5 200.5h141l-61 -346h-1375zM467 1878h299l117 -346h-86z" />
<glyph unicode="&#xc9;" horiz-adv-x="1536" d="M61 0v96q96 0 139.5 40t43.5 136v863q0 86 -41 125.5t-142 39.5v97h1344v-293h-133q-94 119 -171 157.5t-208 38.5h-289v-518h246q125 0 185.5 39t82.5 133h135v-452h-135q-31 111 -91 147.5t-187 36.5h-236v-393q0 -102 53.5 -149.5t210.5 -47.5q154 0 256.5 49.5 t231.5 200.5h141l-61 -346h-1375zM655 1532l117 346h299l-330 -346h-86z" />
<glyph unicode="&#xca;" horiz-adv-x="1536" d="M61 0v96q96 0 139.5 40t43.5 136v863q0 86 -41 125.5t-142 39.5v97h1344v-293h-133q-94 119 -171 157.5t-208 38.5h-289v-518h246q125 0 185.5 39t82.5 133h135v-452h-135q-31 111 -91 147.5t-187 36.5h-236v-393q0 -102 53.5 -149.5t210.5 -47.5q154 0 256.5 49.5 t231.5 200.5h141l-61 -346h-1375zM449 1522l213 383h227l201 -383h-76l-240 202l-244 -202h-81z" />
<glyph unicode="&#xcb;" horiz-adv-x="1536" d="M61 0v96q96 0 139.5 40t43.5 136v863q0 86 -41 125.5t-142 39.5v97h1344v-293h-133q-94 119 -171 157.5t-208 38.5h-289v-518h246q125 0 185.5 39t82.5 133h135v-452h-135q-31 111 -91 147.5t-187 36.5h-236v-393q0 -102 53.5 -149.5t210.5 -47.5q154 0 256.5 49.5 t231.5 200.5h141l-61 -346h-1375zM449 1673.5q0 55.5 38.5 94t94 38.5t94.5 -38.5t39 -94t-39 -94.5t-94.5 -39t-94 39t-38.5 94.5zM823 1673.5q0 55.5 39 94t94.5 38.5t94.5 -38.5t39 -94t-39 -94.5t-94.5 -39t-94.5 39t-39 94.5z" />
<glyph unicode="&#xcc;" horiz-adv-x="831" d="M55 0v96q96 0 136 42t40 128v852q0 96 -38.5 139t-137.5 43v97h721v-97q-109 0 -146.5 -46t-37.5 -140v-846q0 -88 41 -130t143 -42v-96h-721zM115 1878h299l116 -346h-86z" />
<glyph unicode="&#xcd;" horiz-adv-x="831" d="M55 0v96q96 0 136 42t40 128v852q0 96 -38.5 139t-137.5 43v97h721v-97q-109 0 -146.5 -46t-37.5 -140v-846q0 -88 41 -130t143 -42v-96h-721zM303 1532l117 346h299l-330 -346h-86z" />
<glyph unicode="&#xce;" horiz-adv-x="831" d="M55 0v96q96 0 136 42t40 128v852q0 96 -38.5 139t-137.5 43v97h721v-97q-109 0 -146.5 -46t-37.5 -140v-846q0 -88 41 -130t143 -42v-96h-721zM96 1522l213 383h228l200 -383h-75l-240 202l-244 -202h-82z" />
<glyph unicode="&#xcf;" horiz-adv-x="831" d="M55 0v96q96 0 136 42t40 128v852q0 96 -38.5 139t-137.5 43v97h721v-97q-109 0 -146.5 -46t-37.5 -140v-846q0 -88 41 -130t143 -42v-96h-721zM96 1673.5q0 55.5 39 94t94.5 38.5t94 -38.5t38.5 -94t-38.5 -94.5t-94 -39t-94.5 39t-39 94.5zM471 1673.5q0 55.5 39 94 t94 38.5t94 -38.5t39 -94t-39 -94.5t-94 -39t-94 39t-39 94.5z" />
<glyph unicode="&#xd0;" horiz-adv-x="1792" d="M61 0v96q100 0 140.5 42t40.5 138v408h-181v98h181v334q0 98 -37 141t-144 43v97h914q178 0 317.5 -57.5t222 -156t125.5 -217t43 -249.5q0 -106 -27.5 -206.5t-91 -194t-154.5 -163t-229.5 -111.5t-303.5 -42h-816zM602 326q0 -121 52.5 -175.5t183.5 -54.5 q106 0 188 35t132 90t82 132t44 153t12 160q0 338 -174 512q-70 70 -155.5 96t-218.5 26h-146v-518h371v-98h-371v-358z" />
<glyph unicode="&#xd1;" horiz-adv-x="1622" d="M23 0v96h14q111 0 158 67.5t47 205.5v825q-109 92 -211 106v97h506l772 -875v393q0 240 -43 311.5t-193 73.5v97h529v-97q-117 -10 -152 -66t-35 -224v-660q0 -117 15.5 -222t17.5 -144h-143l-969 1101v-618q0 -205 48 -288t179 -83h15v-96h-555zM492 1542q0 8 -1 16 q0 116 58 186q61 75 160 75q51 0 148 -46.5t140 -46.5q29 0 47.5 19.5t34.5 71.5h54q2 -20 2 -40q0 -98 -54 -161q-63 -76 -159 -76q-63 0 -164 47t-131 47q-63 0 -78 -92h-57z" />
<glyph unicode="&#xd2;" horiz-adv-x="1792" d="M102 674q0 227 117 402t297 262t385 87q102 0 204.5 -20.5t209 -73.5t187.5 -131t133.5 -205t52.5 -284q0 -143 -52.5 -274.5t-151 -236t-254 -166t-347.5 -61.5q-367 0 -574 206t-207 495zM500 737q0 -328 112.5 -497.5t307.5 -169.5q129 0 233 104q137 137 137 469 q0 319 -107.5 497.5t-299.5 178.5q-182 0 -282.5 -153t-100.5 -429zM594 1878h299l117 -346h-86z" />
<glyph unicode="&#xd3;" horiz-adv-x="1792" d="M102 674q0 227 117 402t297 262t385 87q102 0 204.5 -20.5t209 -73.5t187.5 -131t133.5 -205t52.5 -284q0 -143 -52.5 -274.5t-151 -236t-254 -166t-347.5 -61.5q-367 0 -574 206t-207 495zM500 737q0 -328 112.5 -497.5t307.5 -169.5q129 0 233 104q137 137 137 469 q0 319 -107.5 497.5t-299.5 178.5q-182 0 -282.5 -153t-100.5 -429zM782 1532l117 346h299l-330 -346h-86z" />
<glyph unicode="&#xd4;" horiz-adv-x="1792" d="M102 674q0 227 117 402t297 262t385 87q102 0 204.5 -20.5t209 -73.5t187.5 -131t133.5 -205t52.5 -284q0 -143 -52.5 -274.5t-151 -236t-254 -166t-347.5 -61.5q-367 0 -574 206t-207 495zM500 737q0 -328 112.5 -497.5t307.5 -169.5q129 0 233 104q137 137 137 469 q0 319 -107.5 497.5t-299.5 178.5q-182 0 -282.5 -153t-100.5 -429zM575 1522l213 383h228l201 -383h-76l-240 202l-244 -202h-82z" />
<glyph unicode="&#xd5;" horiz-adv-x="1792" d="M102 674q0 227 117 402t297 262t385 87q102 0 204.5 -20.5t209 -73.5t187.5 -131t133.5 -205t52.5 -284q0 -143 -52.5 -274.5t-151 -236t-254 -166t-347.5 -61.5q-367 0 -574 206t-207 495zM500 737q0 -328 112.5 -497.5t307.5 -169.5q129 0 233 104q137 137 137 469 q0 319 -107.5 497.5t-299.5 178.5q-182 0 -282.5 -153t-100.5 -429zM575 1542v16q0 116 58 186q61 75 160 75q51 0 148 -46.5t140 -46.5q29 0 47.5 19.5t34.5 71.5h54q2 -20 2 -40q0 -98 -54 -161q-63 -76 -159 -76q-63 0 -164 47t-131 47q-63 0 -78 -92h-58z" />
<glyph unicode="&#xd6;" horiz-adv-x="1792" d="M102 674q0 227 117 402t297 262t385 87q102 0 204.5 -20.5t209 -73.5t187.5 -131t133.5 -205t52.5 -284q0 -143 -52.5 -274.5t-151 -236t-254 -166t-347.5 -61.5q-367 0 -574 206t-207 495zM500 737q0 -328 112.5 -497.5t307.5 -169.5q129 0 233 104q137 137 137 469 q0 319 -107.5 497.5t-299.5 178.5q-182 0 -282.5 -153t-100.5 -429zM575 1673.5q0 55.5 39 94t94.5 38.5t94.5 -38.5t39 -94t-39 -94.5t-94.5 -39t-94.5 39t-39 94.5zM950 1673.5q0 55.5 39 94t94.5 38.5t94.5 -38.5t39 -94t-39 -94.5t-94.5 -39t-94.5 39t-39 94.5z" />
<glyph unicode="&#xd7;" horiz-adv-x="1366" d="M158 1049l151 151l375 -375l375 375l151 -151l-374 -375l370 -371l-151 -151l-371 370l-371 -370l-151 151l370 371z" />
<glyph unicode="&#xd8;" horiz-adv-x="1792" d="M102 674q0 227 117 402t297 262t385 87q254 0 457 -116l121 141l71 -68l-110 -129q248 -186 248 -542q0 -143 -52.5 -274.5t-151 -236t-254 -166t-347.5 -61.5q-250 0 -443 111l-123 -143l-73 65l112 133q-123 96 -188.5 238.5t-65.5 296.5zM500 737q0 -197 53 -370 l641 751q-106 201 -311 201q-182 0 -282.5 -153t-100.5 -429zM596 266q127 -197 324 -196q129 0 233 104q137 137 137 469q0 217 -53 373z" />
<glyph unicode="&#xd9;" horiz-adv-x="1705" d="M49 1300v97h731v-97q-104 0 -146 -38.5t-42 -135.5v-591q0 -201 90 -300.5t287 -99.5q78 0 146.5 18.5t133 59.5t101 121t36.5 190v510q0 139 -50 200.5t-169 65.5v97h510v-97q-106 -18 -146 -66t-40 -159v-581q0 -520 -614 -521q-645 0 -646 512v625q0 98 -36.5 144 t-145.5 46zM592 1878h299l117 -346h-86z" />
<glyph unicode="&#xda;" horiz-adv-x="1705" d="M49 1300v97h731v-97q-104 0 -146 -38.5t-42 -135.5v-591q0 -201 90 -300.5t287 -99.5q78 0 146.5 18.5t133 59.5t101 121t36.5 190v510q0 139 -50 200.5t-169 65.5v97h510v-97q-106 -18 -146 -66t-40 -159v-581q0 -520 -614 -521q-645 0 -646 512v625q0 98 -36.5 144 t-145.5 46zM780 1532l117 346h299l-330 -346h-86z" />
<glyph unicode="&#xdb;" horiz-adv-x="1705" d="M49 1300v97h731v-97q-104 0 -146 -38.5t-42 -135.5v-591q0 -201 90 -300.5t287 -99.5q78 0 146.5 18.5t133 59.5t101 121t36.5 190v510q0 139 -50 200.5t-169 65.5v97h510v-97q-106 -18 -146 -66t-40 -159v-581q0 -520 -614 -521q-645 0 -646 512v625q0 98 -36.5 144 t-145.5 46zM573 1522l213 383h228l200 -383h-75l-240 202l-244 -202h-82z" />
<glyph unicode="&#xdc;" horiz-adv-x="1705" d="M49 1300v97h731v-97q-104 0 -146 -38.5t-42 -135.5v-591q0 -201 90 -300.5t287 -99.5q78 0 146.5 18.5t133 59.5t101 121t36.5 190v510q0 139 -50 200.5t-169 65.5v97h510v-97q-106 -18 -146 -66t-40 -159v-581q0 -520 -614 -521q-645 0 -646 512v625q0 98 -36.5 144 t-145.5 46zM573 1673.5q0 55.5 39 94t94.5 38.5t94.5 -38.5t39 -94t-39 -94.5t-94.5 -39t-94.5 39t-39 94.5zM948 1673.5q0 55.5 39 94t94.5 38.5t94 -38.5t38.5 -94t-38.5 -94.5t-94 -39t-94.5 39t-39 94.5z" />
<glyph unicode="&#xdd;" horiz-adv-x="1492" d="M29 1300v97h751v-97q-129 0 -159 -45q-12 -17 -12 -40q0 -40 32 -99l238 -454l241 438q22 48 22 91q0 40 -35 73q-38 35 -112 36v97h471v-97q-115 -16 -227 -210l-311 -539v-275q0 -98 43 -139t153 -41v-96h-753v96q113 0 154.5 41t41.5 152v219l-348 657 q-25 47 -42 69.5t-54 42t-94 23.5zM674 1532l117 346h299l-330 -346h-86z" />
<glyph unicode="&#xde;" horiz-adv-x="1492" d="M53 1300v97h733v-97q-123 -6 -154.5 -47t-31.5 -166h371q236 0 359.5 -118.5t123.5 -272.5q0 -43 -9 -86t-45 -100t-92.5 -100t-164 -73t-248.5 -30h-295v-41q0 -88 42 -129t149 -41v-96h-738v96q102 0 144.5 42t42.5 147v823q0 109 -39 150.5t-148 41.5zM600 403h225 q129 0 185.5 83t56.5 198q0 127 -72.5 217t-242.5 90h-152v-588z" />
<glyph unicode="&#xdf;" horiz-adv-x="1300" d="M43 803v119q90 2 123 34q16 16 27.5 67.5t41 121t89.5 129.5q145 145 403 145q213 0 325.5 -92t112.5 -211q0 -92 -71.5 -169t-204.5 -124v-4q160 -27 253 -137.5t93 -275.5q0 -188 -102.5 -308.5t-264.5 -120.5q-92 0 -153.5 50.5t-61.5 126.5q0 39 23.5 63.5t60.5 24.5 q57 0 86 -78q10 -29 15.5 -41t18.5 -25.5t30 -13.5q35 0 58.5 36t23.5 93q0 186 -94.5 346t-221.5 178v84q217 57 217 271q0 100 -56 165.5t-142 65.5t-134.5 -53t-48.5 -140v-905q0 -121 109 -135v-90h-545v96q74 10 108 45t34 111v551h-152z" />
<glyph unicode="&#xe0;" horiz-adv-x="1148" d="M66 188q0 47 18 88t45 71t75 58.5t86 46t102.5 37t99 28.5t103.5 24.5t89 21.5v152q0 61 -39 98t-106 37q-86 0 -129 -56q-24 -31 -24 -75q0 -36 15 -80l-272 -86q-29 74 -29 135q0 125 124 191.5t366 66.5q213 0 301 -61.5t88 -190.5v-426q0 -63 37 -74q9 -3 20 -3 q31 0 70 24l16 -100q-92 -137 -233 -138q-152 0 -205 138q-84 -76 -156.5 -107t-169.5 -31q-131 0 -211.5 58.5t-80.5 152.5zM272 1401h299l117 -346h-86zM385 262q0 -57 34 -96t83 -39q72 0 182 88v254q-162 -45 -230.5 -87t-68.5 -120z" />
<glyph unicode="&#xe1;" horiz-adv-x="1148" d="M66 188q0 47 18 88t45 71t75 58.5t86 46t102.5 37t99 28.5t103.5 24.5t89 21.5v152q0 61 -39 98t-106 37q-86 0 -129 -56q-24 -31 -24 -75q0 -36 15 -80l-272 -86q-29 74 -29 135q0 125 124 191.5t366 66.5q213 0 301 -61.5t88 -190.5v-426q0 -63 37 -74q9 -3 20 -3 q31 0 70 24l16 -100q-92 -137 -233 -138q-152 0 -205 138q-84 -76 -156.5 -107t-169.5 -31q-131 0 -211.5 58.5t-80.5 152.5zM385 262q0 -57 34 -96t83 -39q72 0 182 88v254q-162 -45 -230.5 -87t-68.5 -120zM461 1055l117 346h299l-330 -346h-86z" />
<glyph unicode="&#xe2;" horiz-adv-x="1148" d="M66 188q0 47 18 88t45 71t75 58.5t86 46t102.5 37t99 28.5t103.5 24.5t89 21.5v152q0 61 -39 98t-106 37q-86 0 -129 -56q-24 -31 -24 -75q0 -36 15 -80l-272 -86q-29 74 -29 135q0 125 124 191.5t366 66.5q213 0 301 -61.5t88 -190.5v-426q0 -63 37 -74q9 -3 20 -3 q31 0 70 24l16 -100q-92 -137 -233 -138q-152 0 -205 138q-84 -76 -156.5 -107t-169.5 -31q-131 0 -211.5 58.5t-80.5 152.5zM254 1044l213 383h227l201 -383h-76l-239 203l-244 -203h-82zM385 262q0 -57 34 -96t83 -39q72 0 182 88v254q-162 -45 -230.5 -87t-68.5 -120z " />
<glyph unicode="&#xe3;" horiz-adv-x="1148" d="M66 188q0 47 18 88t45 71t75 58.5t86 46t102.5 37t99 28.5t103.5 24.5t89 21.5v152q0 61 -39 98t-106 37q-86 0 -129 -56q-24 -31 -24 -75q0 -36 15 -80l-272 -86q-29 74 -29 135q0 125 124 191.5t366 66.5q213 0 301 -61.5t88 -190.5v-426q0 -63 37 -74q9 -3 20 -3 q31 0 70 24l16 -100q-92 -137 -233 -138q-152 0 -205 138q-84 -76 -156.5 -107t-169.5 -31q-131 0 -211.5 58.5t-80.5 152.5zM254 1065v16q0 116 57 186q61 75 160 74q51 0 148.5 -46t140.5 -46q29 0 47 19.5t35 70.5h53q2 -20 2 -39q0 -98 -53 -161q-63 -76 -160 -76 q-63 0 -163.5 47t-131.5 47q-63 0 -78 -92h-57zM385 262q0 -57 34 -96t83 -39q72 0 182 88v254q-162 -45 -230.5 -87t-68.5 -120z" />
<glyph unicode="&#xe4;" horiz-adv-x="1148" d="M66 188q0 47 18 88t45 71t75 58.5t86 46t102.5 37t99 28.5t103.5 24.5t89 21.5v152q0 61 -39 98t-106 37q-86 0 -129 -56q-24 -31 -24 -75q0 -36 15 -80l-272 -86q-29 74 -29 135q0 125 124 191.5t366 66.5q213 0 301 -61.5t88 -190.5v-426q0 -63 37 -74q9 -3 20 -3 q31 0 70 24l16 -100q-92 -137 -233 -138q-152 0 -205 138q-84 -76 -156.5 -107t-169.5 -31q-131 0 -211.5 58.5t-80.5 152.5zM254 1196q0 55 39 94t94 39t94 -39t39 -94t-39 -94t-94 -39t-94 39t-39 94zM385 262q0 -57 34 -96t83 -39q72 0 182 88v254q-162 -45 -230.5 -87 t-68.5 -120zM629 1196q0 55 39 94t94 39t94 -39t39 -94t-39 -94t-94 -39t-94 39t-39 94z" />
<glyph unicode="&#xe5;" horiz-adv-x="1148" d="M66 188q0 47 18 88t45 71t75 58.5t86 46t102.5 37t99 28.5t103.5 24.5t89 21.5v152q0 61 -39 98t-106 37q-86 0 -129 -56q-24 -31 -24 -75q0 -36 15 -80l-272 -86q-29 74 -29 135q0 125 124 191.5t366 66.5q213 0 301 -61.5t88 -190.5v-426q0 -63 37 -74q9 -3 20 -3 q31 0 70 24l16 -100q-92 -137 -233 -138q-152 0 -205 138q-84 -76 -156.5 -107t-169.5 -31q-131 0 -211.5 58.5t-80.5 152.5zM367 1227q0 86 61 147.5t147.5 61.5t147.5 -61.5t61 -147.5t-61 -147.5t-147.5 -61.5t-147.5 61.5t-61 147.5zM385 262q0 -57 34 -96t83 -39 q72 0 182 88v254q-162 -45 -230.5 -87t-68.5 -120zM442 1226.5q0 -55.5 39 -94t94.5 -38.5t94.5 38.5t39 94t-39 94.5t-94.5 39t-94.5 -39t-39 -94.5z" />
<glyph unicode="&#xe6;" horiz-adv-x="1665" d="M59 203q0 254 611 362v127q0 158 -138 158q-82 0 -132 -49q-28 -27 -27 -74q0 -38 18 -88l-268 -88q-30 69 -31 128q0 91 74 158q121 110 358 109q211 0 322 -102q141 102 317 102q190 0 303 -92t138 -268l-639 -97q-1 -16 -1 -31q0 -137 65 -205q73 -75 198 -75 q152 0 311 127l66 -69q-72 -121 -201 -190t-291 -69q-123 0 -210 34t-171 116q-209 -150 -391 -150q-123 0 -202 64t-79 162zM379 260q0 -55 32.5 -92t82.5 -37q82 0 176 70v266q-162 -35 -226.5 -81t-64.5 -126zM967 586l319 51q-31 213 -166 213q-82 0 -117.5 -60.5 t-35.5 -203.5z" />
<glyph unicode="&#xe7;" d="M72 444q0 90 27.5 173t88 160t173 123t264.5 46q158 0 251 -60.5t93 -160.5q0 -59 -41 -101t-98.5 -42t-92.5 42t-46 91t-43 91t-87 42q-88 0 -148.5 -74t-60.5 -186q0 -166 99.5 -283t238.5 -117q66 0 114 22.5t111 86.5l76 -70q-59 -119 -182 -184.5t-283 -65.5 l-37 -45q166 -25 166 -161q0 -86 -88 -142.5t-266 -56.5h-100v53q227 0 227 119q0 82 -121 82l135 162q-178 27 -274 159.5t-96 296.5z" />
<glyph unicode="&#xe8;" d="M74 440q0 225 137 365.5t358 140.5q199 0 315.5 -113.5t121.5 -308.5h-650q10 -139 106.5 -235t221.5 -96q104 0 242 100l80 -60q-199 -256 -486 -256q-201 0 -323.5 127t-122.5 336zM252 1401h299l117 -346h-86zM350 621h338q0 111 -43 170t-121 59t-126 -62.5 t-48 -166.5z" />
<glyph unicode="&#xe9;" d="M74 440q0 225 137 365.5t358 140.5q199 0 315.5 -113.5t121.5 -308.5h-650q10 -139 106.5 -235t221.5 -96q104 0 242 100l80 -60q-199 -256 -486 -256q-201 0 -323.5 127t-122.5 336zM350 621h338q0 111 -43 170t-121 59t-126 -62.5t-48 -166.5zM420 1055l117 346h299 l-330 -346h-86z" />
<glyph unicode="&#xea;" d="M74 440q0 225 137 365.5t358 140.5q199 0 315.5 -113.5t121.5 -308.5h-650q10 -139 106.5 -235t221.5 -96q104 0 242 100l80 -60q-199 -256 -486 -256q-201 0 -323.5 127t-122.5 336zM233 1044l213 383h228l200 -383h-75l-240 203l-244 -203h-82zM350 621h338 q0 111 -43 170t-121 59t-126 -62.5t-48 -166.5z" />
<glyph unicode="&#xeb;" d="M74 440q0 225 137 365.5t358 140.5q199 0 315.5 -113.5t121.5 -308.5h-650q10 -139 106.5 -235t221.5 -96q104 0 242 100l80 -60q-199 -256 -486 -256q-201 0 -323.5 127t-122.5 336zM233 1196q0 55 39 94t94.5 39t94.5 -39t39 -94t-39 -94t-94.5 -39t-94.5 39t-39 94z M350 621h338q0 111 -43 170t-121 59t-126 -62.5t-48 -166.5zM608 1196q0 55 39 94t94.5 39t94 -39t38.5 -94t-38.5 -94t-94 -39t-94.5 39t-39 94z" />
<glyph unicode="&#xec;" horiz-adv-x="681" d="M37 0v96q88 0 126 43t38 140v397l-164 96v66l354 102h105v-657q0 -94 31.5 -138.5t119.5 -48.5v-96h-610zM59 1401h299l117 -346h-86z" />
<glyph unicode="&#xed;" horiz-adv-x="681" d="M37 0v96q88 0 126 43t38 140v397l-164 96v66l354 102h105v-657q0 -94 31.5 -138.5t119.5 -48.5v-96h-610zM227 1055l117 346h299l-330 -346h-86z" />
<glyph unicode="&#xee;" horiz-adv-x="681" d="M20 1044l213 383h228l201 -383h-76l-240 203l-244 -203h-82zM37 0v96q88 0 126 43t38 140v397l-164 96v66l354 102h105v-657q0 -94 31.5 -138.5t119.5 -48.5v-96h-610z" />
<glyph unicode="&#xef;" horiz-adv-x="681" d="M20 1196q0 55 39 94t94.5 39t94.5 -39t39 -94t-39 -94t-94.5 -39t-94.5 39t-39 94zM37 0v96q88 0 126 43t38 140v397l-164 96v66l354 102h105v-657q0 -94 31.5 -138.5t119.5 -48.5v-96h-610zM395 1196q0 55 39 94t94.5 39t94.5 -39t39 -94t-39 -94t-94.5 -39t-94.5 39 t-39 94z" />
<glyph unicode="&#xf0;" horiz-adv-x="1159" d="M70 440q0 215 143 360.5t360 145.5q66 0 115 -37h8q-23 109 -92 217l-297 -139l-45 94l279 131q-70 90 -172 150l139 63q129 -49 221 -122l258 122l45 -98l-215 -100q143 -143 208 -337t65 -380q0 -252 -136.5 -392.5t-380.5 -140.5q-246 0 -374.5 133t-128.5 330z M387 522q0 -449 209 -448q84 0 130 70.5t46 197.5q0 508 -207 508q-100 0 -139 -86t-39 -242z" />
<glyph unicode="&#xf1;" horiz-adv-x="1280" d="M39 0v96q143 6 143 168v406l-143 106v55l336 109h102v-164q158 170 334 170q139 0 219 -76.5t80 -224.5v-338q0 -113 25.5 -153.5t107.5 -57.5v-96h-551v96q66 10 94.5 52t28.5 122v318q0 78 -38 125t-109 47q-90 0 -191 -72v-416q0 -78 27.5 -120.5t101.5 -55.5v-96 h-567zM319 1065v16q0 116 58 186q61 75 160 74q51 0 148 -46t140 -46q29 0 47.5 19.5t34.5 70.5h54q2 -20 2 -39q0 -98 -54 -161q-63 -76 -159 -76q-63 0 -164 47t-131 47q-63 0 -78 -92h-58z" />
<glyph unicode="&#xf2;" horiz-adv-x="1173" d="M76 444q0 205 137 353.5t387 148.5q131 0 231.5 -46t155.5 -119.5t82 -154.5t27 -165q0 -205 -131 -344.5t-387 -139.5q-225 0 -363.5 129t-138.5 338zM305 1401h299l117 -346h-86zM393 522q0 -449 209 -448q84 0 130 70.5t46 197.5q0 508 -207 508q-100 0 -139 -86 t-39 -242z" />
<glyph unicode="&#xf3;" horiz-adv-x="1173" d="M76 444q0 205 137 353.5t387 148.5q131 0 231.5 -46t155.5 -119.5t82 -154.5t27 -165q0 -205 -131 -344.5t-387 -139.5q-225 0 -363.5 129t-138.5 338zM393 522q0 -449 209 -448q84 0 130 70.5t46 197.5q0 508 -207 508q-100 0 -139 -86t-39 -242zM473 1055l117 346h299 l-330 -346h-86z" />
<glyph unicode="&#xf4;" horiz-adv-x="1173" d="M76 444q0 205 137 353.5t387 148.5q131 0 231.5 -46t155.5 -119.5t82 -154.5t27 -165q0 -205 -131 -344.5t-387 -139.5q-225 0 -363.5 129t-138.5 338zM287 1044l213 383h227l201 -383h-76l-240 203l-243 -203h-82zM393 522q0 -449 209 -448q84 0 130 70.5t46 197.5 q0 508 -207 508q-100 0 -139 -86t-39 -242z" />
<glyph unicode="&#xf5;" horiz-adv-x="1173" d="M76 444q0 205 137 353.5t387 148.5q131 0 231.5 -46t155.5 -119.5t82 -154.5t27 -165q0 -205 -131 -344.5t-387 -139.5q-225 0 -363.5 129t-138.5 338zM266 1065v16q0 116 58 186q61 75 159 74q51 0 148.5 -46t140.5 -46q29 0 47.5 19.5t34.5 70.5h53q2 -20 2 -39 q0 -98 -53 -161q-63 -76 -160 -76q-63 0 -163.5 47t-131.5 47q-63 0 -77 -92h-58zM393 522q0 -449 209 -448q84 0 130 70.5t46 197.5q0 508 -207 508q-100 0 -139 -86t-39 -242z" />
<glyph unicode="&#xf6;" horiz-adv-x="1173" d="M76 444q0 205 137 353.5t387 148.5q131 0 231.5 -46t155.5 -119.5t82 -154.5t27 -165q0 -205 -131 -344.5t-387 -139.5q-225 0 -363.5 129t-138.5 338zM287 1196q0 55 39 94t94 39t94 -39t39 -94t-39 -94t-94 -39t-94 39t-39 94zM393 522q0 -449 209 -448q84 0 130 70.5 t46 197.5q0 508 -207 508q-100 0 -139 -86t-39 -242zM662 1196q0 55 38.5 94t94 39t94.5 -39t39 -94t-39 -94t-94.5 -39t-94 39t-38.5 94z" />
<glyph unicode="&#xf7;" horiz-adv-x="1368" d="M129 571v205h1110v-205h-1110zM559 254q0 53 36 89t89 36t89 -36t36 -89t-36 -89t-89 -36t-89 36t-36 89zM559 1093.5q0 53.5 36 89.5t89 36t89 -36t36 -89.5t-36 -89t-89 -35.5t-89 35.5t-36 89z" />
<glyph unicode="&#xf8;" horiz-adv-x="1173" d="M76 444q0 205 138 353.5t386 148.5q174 0 287 -78l108 125l72 -59l-106 -123q135 -147 135 -350q0 -205 -131 -344.5t-387 -139.5q-164 0 -281 70l-96 -110l-68 63l86 100q-143 133 -143 344zM393 522q0 -117 13 -209l329 381q-49 156 -164 156q-100 0 -139 -86t-39 -242 zM434 205q55 -131 168 -131q82 0 129 70.5t47 197.5q0 145 -16 240z" />
<glyph unicode="&#xf9;" horiz-adv-x="1280" d="M45 811v92l412 19v-596q0 -78 48 -119t109 -41q82 0 179 67v439q0 55 -33 94t-88 45v92l415 19v-609q0 -121 25 -151.5t123 -30.5v-96l-361 -53h-81v155q-94 -90 -166 -125t-162 -35q-303 0 -303 336v318q0 86 -25.5 125t-91.5 55zM338 1401h299l117 -346h-86z" />
<glyph unicode="&#xfa;" horiz-adv-x="1280" d="M45 811v92l412 19v-596q0 -78 48 -119t109 -41q82 0 179 67v439q0 55 -33 94t-88 45v92l415 19v-609q0 -121 25 -151.5t123 -30.5v-96l-361 -53h-81v155q-94 -90 -166 -125t-162 -35q-303 0 -303 336v318q0 86 -25.5 125t-91.5 55zM526 1055l117 346h299l-330 -346h-86z " />
<glyph unicode="&#xfb;" horiz-adv-x="1280" d="M45 811v92l412 19v-596q0 -78 48 -119t109 -41q82 0 179 67v439q0 55 -33 94t-88 45v92l415 19v-609q0 -121 25 -151.5t123 -30.5v-96l-361 -53h-81v155q-94 -90 -166 -125t-162 -35q-303 0 -303 336v318q0 86 -25.5 125t-91.5 55zM319 1044l213 383h228l201 -383h-76 l-240 203l-244 -203h-82z" />
<glyph unicode="&#xfc;" horiz-adv-x="1280" d="M45 811v92l412 19v-596q0 -78 48 -119t109 -41q82 0 179 67v439q0 55 -33 94t-88 45v92l415 19v-609q0 -121 25 -151.5t123 -30.5v-96l-361 -53h-81v155q-94 -90 -166 -125t-162 -35q-303 0 -303 336v318q0 86 -25.5 125t-91.5 55zM319 1196q0 55 39 94t94.5 39t94.5 -39 t39 -94t-39 -94t-94.5 -39t-94.5 39t-39 94zM694 1196q0 55 39 94t94.5 39t94.5 -39t39 -94t-39 -94t-94.5 -39t-94.5 39t-39 94z" />
<glyph unicode="&#xfd;" horiz-adv-x="1110" d="M8 825v97h549v-97q-114 -4 -114 -67q0 -26 20 -64l223 -405l152 336q24 50 23 91q0 26 -9 49q-25 58 -109 60v97h365v-97q-41 -4 -70.5 -37.5t-70.5 -125.5l-361 -791q-63 -137 -138 -196.5t-183 -59.5q-90 0 -147.5 46t-57.5 122q0 57 37 96t92 39q45 0 74.5 -29.5 t54 -59.5t57.5 -30q88 0 148 170l-404 738q-43 78 -61.5 94t-69.5 24zM442 1055l117 346h299l-330 -346h-86z" />
<glyph unicode="&#xfe;" horiz-adv-x="1259" d="M20 -289q152 0 152 174v1262l-152 100v62l338 110h109v-618q150 145 324 145q168 0 280.5 -130t112.5 -322q0 -229 -153.5 -373t-397.5 -144q-82 0 -166 23v-102q0 -100 36 -143.5t128 -43.5v-96h-611v96zM467 332q0 -256 184 -256q88 0 150.5 95t62.5 230 q0 150 -69.5 248.5t-171.5 98.5q-70 0 -156 -62v-354z" />
<glyph unicode="&#xff;" horiz-adv-x="1110" d="M8 825v97h549v-97q-114 -4 -114 -67q0 -26 20 -64l223 -405l152 336q24 50 23 91q0 26 -9 49q-25 58 -109 60v97h365v-97q-41 -4 -70.5 -37.5t-70.5 -125.5l-361 -791q-63 -137 -138 -196.5t-183 -59.5q-90 0 -147.5 46t-57.5 122q0 57 37 96t92 39q45 0 74.5 -29.5 t54 -59.5t57.5 -30q88 0 148 170l-404 738q-43 78 -61.5 94t-69.5 24zM256 1196q0 55 39 94t94 39t94 -39t39 -94t-39 -94t-94 -39t-94 39t-39 94zM631 1196q0 55 39 94t94 39t94 -39t39 -94t-39 -94t-94 -39t-94 39t-39 94z" />
<glyph unicode="&#x152;" horiz-adv-x="2134" d="M90 684q0 129 40 250t121 227.5t225.5 171t334.5 64.5h1196v-293h-133q-96 117 -168 156.5t-174 39.5h-379v-4q135 -78 217 -216t92 -302h41q100 0 152.5 39t77.5 133h135v-452h-135q-35 100 -87.5 142t-142.5 42h-41q-2 -172 -87 -332t-257 -250v-4h309q176 0 286 55.5 t233 192.5h143l-66 -344h-1232q-178 0 -317.5 59.5t-220.5 158.5t-122 218t-41 248zM477 741q0 -643 314 -643q139 0 210.5 131t71.5 375q0 338 -79 515t-230 177q-287 0 -287 -555z" />
<glyph unicode="&#x153;" horiz-adv-x="1771" d="M74 453q0 217 135 355t346 138q205 0 330 -115q172 115 370 115q106 0 200.5 -39t166.5 -138t78 -243h-656q-1 -16 0 -30q0 -157 78 -233q86 -83 232 -83q164 0 258 107l71 -58q-78 -131 -201.5 -191.5t-252.5 -60.5q-201 0 -344 119q-170 -119 -338 -119 q-207 0 -340 134.5t-133 341.5zM401 520q0 -225 41 -335.5t144 -110.5q164 0 164 321q0 219 -40 337t-147 118q-162 0 -162 -330zM1047 623h333q2 19 3 36q0 73 -42 125q-51 66 -124 66q-76 0 -122 -60.5t-48 -166.5z" />
<glyph unicode="&#x178;" horiz-adv-x="1492" d="M29 1300v97h751v-97q-129 0 -159 -45q-12 -17 -12 -40q0 -40 32 -99l238 -454l241 438q22 48 22 91q0 40 -35 73q-38 35 -112 36v97h471v-97q-115 -16 -227 -210l-311 -539v-275q0 -98 43 -139t153 -41v-96h-753v96q113 0 154.5 41t41.5 152v219l-348 657 q-25 47 -42 69.5t-54 42t-94 23.5zM467 1673.5q0 55.5 39 94t94 38.5t94 -38.5t39 -94t-39 -94.5t-94 -39t-94 39t-39 94.5zM842 1673.5q0 55.5 39 94t94 38.5t94 -38.5t39 -94t-39 -94.5t-94 -39t-94 39t-39 94.5z" />
<glyph unicode="&#x2c6;" horiz-adv-x="681" d="M20 1044l213 383h228l201 -383h-76l-240 203l-244 -203h-82z" />
<glyph unicode="&#x2dc;" horiz-adv-x="681" d="M20 1065v16q0 116 58 186q61 75 160 74q51 0 148 -46t140 -46q29 0 47.5 19.5t34.5 70.5h54q2 -20 1 -39q0 -98 -53 -161q-63 -76 -159 -76q-63 0 -164 47t-131 47q-63 0 -78 -92h-58z" />
<glyph unicode="&#x2013;" horiz-adv-x="1024" d="M-12 387v252h1048v-252h-1048z" />
<glyph unicode="&#x2014;" horiz-adv-x="2048" d="M-12 387v252h2072v-252h-2072z" />
<glyph unicode="&#x2018;" horiz-adv-x="704" d="M143 1061q0 141 99 239q45 45 109.5 77t107.5 41t47 1l33 -65q12 -23 -19 -29q-88 -27 -142 -76t-54 -102q0 -33 16 -45t59 -12q76 0 118 -41t42 -103q0 -72 -51 -119t-133 -47q-100 0 -166 79t-66 202z" />
<glyph unicode="&#x2019;" horiz-adv-x="704" d="M143 1257q0 72 51.5 119t133.5 47q100 0 165.5 -78.5t65.5 -201.5q0 -141 -98 -240q-45 -45 -109.5 -76.5t-107.5 -41t-47 -1.5l-33 66q-12 23 18 29q88 27 142.5 76t54.5 102q0 33 -16.5 45t-59.5 12q-76 0 -118 41t-42 102z" />
<glyph unicode="&#x201a;" horiz-adv-x="681" d="M135 141q0 72 51.5 119t132.5 47q100 0 166 -78.5t66 -201.5q0 -141 -98 -240q-45 -45 -109.5 -77t-107.5 -41q-23 -5 -35 -5q-11 0 -13 4l-32 66q-12 23 18 28q88 27 142.5 76t54.5 103q0 33 -16.5 45t-59.5 12q-76 0 -118 41t-42 102z" />
<glyph unicode="&#x201c;" horiz-adv-x="1259" d="M152 1010q0 178 116.5 296.5t251.5 118.5q43 0 43 -32v-52q0 -29 -28 -28q-80 0 -146.5 -56.5t-66.5 -134.5q0 -43 22.5 -63.5t52 -22.5t66.5 -11t57 -30q45 -45 45 -118q0 -82 -47 -129.5t-125 -47.5q-109 0 -175 85.5t-66 224.5zM694 1010q0 178 117 296.5t252 118.5 q43 0 43 -32v-52q0 -29 -29 -28q-80 0 -146.5 -56.5t-66.5 -134.5q0 -43 22.5 -63.5t52.5 -22.5t66.5 -11t57.5 -30q45 -45 45 -118q0 -82 -47 -129.5t-125 -47.5q-109 0 -175.5 85.5t-66.5 224.5z" />
<glyph unicode="&#x201d;" horiz-adv-x="1259" d="M152 1249q0 82 47 129t125 47q109 0 175 -85t66 -224q0 -178 -116.5 -297t-251.5 -119q-43 0 -43 33v51q0 29 28 29q80 0 146.5 56.5t66.5 134.5q0 43 -22.5 63t-52 22.5t-66.5 11.5t-57 29q-45 45 -45 119zM694 1249q0 82 47 129t125 47q109 0 175.5 -85t66.5 -224 q0 -178 -117 -297t-252 -119q-43 0 -43 33v51q0 29 29 29q80 0 146.5 56.5t66.5 134.5q0 43 -22.5 63t-52 22.5t-66.5 11.5t-58 29q-45 45 -45 119z" />
<glyph unicode="&#x201e;" horiz-adv-x="1259" d="M152 180q0 78 47 127t127 49q109 0 175 -85t66 -224q0 -178 -116.5 -297t-251.5 -119q-43 0 -43 33v51q0 29 28 29q80 0 146.5 56.5t66.5 133.5q0 43 -22.5 63.5t-52 23t-66.5 11.5t-57 29q-47 47 -47 119zM694 180q0 82 47 129t125 47q109 0 175.5 -85t66.5 -224 q0 -178 -117 -297t-252 -119q-43 0 -43 33v51q0 29 29 29q80 0 146.5 56.5t66.5 133.5q0 43 -22.5 63.5t-52 23t-66.5 11.5t-58 29q-45 45 -45 119z" />
<glyph unicode="&#x2022;" horiz-adv-x="718" d="M76 678q0 119 83 202t201.5 83t202.5 -83t84 -202t-84 -203t-202.5 -84t-201.5 84t-83 203z" />
<glyph unicode="&#x2026;" horiz-adv-x="2111" d="M184 170q0 78 54.5 132t132.5 54t133 -54t55 -132t-55 -133t-133 -55t-132.5 55t-54.5 133zM868 170q0 78 54.5 132t132.5 54t133 -54t55 -132t-55 -133t-133 -55t-132.5 55t-54.5 133zM1552 170q0 78 54.5 132t132.5 54t133 -54t55 -132t-55 -133t-133 -55t-132.5 55 t-54.5 133z" />
<glyph unicode="&#x2039;" horiz-adv-x="636" d="M74 516q98 131 159 229q74 119 119 230h205q-59 -197 -235 -445l-11 -14l15 -22q182 -289 231 -439h-205l-16 27l-96 184q-57 111 -166 250z" />
<glyph unicode="&#x203a;" horiz-adv-x="636" d="M80 55q63 209 235 445l13 14l-17 23q-172 264 -231 438h207q39 -86 110 -211q88 -150 166 -250q-76 -102 -160 -229q-70 -104 -116 -230h-207z" />
<glyph unicode="&#x20ac;" d="M25 461l20 149h74v31q0 55 2 82h-96l20 149h96q47 215 174 350.5t320 135.5q111 0 211 -30t133 -54l27 -289h-95q-18 53 -35.5 91t-48 86t-78 74t-104.5 26q-88 0 -146.5 -102.5t-76.5 -287.5h496l-25 -149h-479v-27q0 -16 1 -43.5t1 -42.5h461l-25 -149h-426 q45 -385 246 -385q135 0 284 125q-2 -2 31 -47t37 -45q-162 -135 -377 -136q-188 0 -330.5 125t-183.5 363h-108z" />
<glyph unicode="&#x2122;" horiz-adv-x="2048" d="M-4 1130v228h770v-228h-33q-8 94 -53 134.5t-141 40.5h-35v-588q0 -90 15.5 -109.5t86.5 -23.5v-35h-450v35q74 4 88 23.5t14 109.5v588h-33q-96 0 -141 -40t-55 -135h-33zM877 549v35q76 4 93 24.5t17 108.5v469q0 84 -17.5 108.5t-74.5 24.5h-18v39h368l232 -498 l227 498h348v-39q-66 0 -84 -23.5t-18 -109.5v-498q0 -53 21.5 -77.5t80.5 -26.5v-35h-461v35q74 0 93.5 23.5t19.5 109.5v502h-4l-314 -670h-24l-315 670h-5v-529q0 -63 25 -84.5t90 -21.5v-35h-280z" />
<glyph unicode="&#xe000;" horiz-adv-x="920" d="M0 920h920v-920h-920v920z" />
<glyph unicode="&#xfb01;" horiz-adv-x="1386" d="M57 803v119q88 0 121 32q25 25 33 74t31.5 113.5t81.5 122.5q156 156 471 155q166 0 258 -48t92 -134q0 -59 -37 -94t-98 -35q-63 0 -101.5 34t-52.5 73.5t-49 73.5t-90 34q-80 0 -145.5 -65.5t-65.5 -174.5v-161h403q135 0 205 24h68v-665q0 -178 139 -185v-96h-559v96 q76 14 100.5 57.5t24.5 153.5v336q0 80 -45 119t-170 39h-166v-525q0 -78 26.5 -122.5t96.5 -57.5v-96h-555v96q78 10 107.5 49t29.5 131v527h-154z" />
<glyph unicode="&#xfb02;" horiz-adv-x="1386" d="M55 801v121q86 0 117 30q27 27 56.5 140.5t88.5 173.5q154 154 482 153q143 0 231 -39l94 39h58v-1140q0 -170 133 -183v-96h-557v96q74 10 101.5 54.5t27.5 130.5v520h-385v-494q0 -111 24.5 -152.5t100.5 -58.5v-96h-559v96q78 8 108.5 48t30.5 130v527h-152zM502 922 h385v233q-16 12 -36 56t-52.5 78t-89.5 34q-78 0 -142.5 -63.5t-64.5 -192.5v-145z" />
<glyph unicode="&#xfb03;" horiz-adv-x="2131" d="M45 801v121q113 0 133 30q10 14 20.5 70.5t41 128.5t92.5 133q135 135 360 135q139 0 217 -42t78 -117q0 -57 -50 -103.5t-114 -46.5q-43 0 -75.5 30.5t-51 68.5t-48.5 69t-66 31q-84 0 -84 -129v-258h192v-121h-192v-520q0 -100 37.5 -142.5t134.5 -42.5h35v-96h-644v96 q82 8 112 50t30 133v522h-158zM770 801v121q113 0 133 30q10 14 20.5 70.5t41 128.5t92.5 133q135 135 360 135q139 0 217 -42t78 -117q0 -57 -50 -103.5t-114 -46.5q-43 0 -75.5 30.5t-51 68.5t-48.5 69t-66 31q-84 0 -84 -129v-258h192v-121h-192v-520q0 -100 37.5 -142.5 t134.5 -42.5h35v-96h-644v96q82 8 112 50t30 133v522h-158zM1487 0v96q88 0 126 43t38 140v397l-164 96v66l354 102h105v-657q0 -94 31.5 -138.5t119.5 -48.5v-96h-610zM1595 1245.5q0 71.5 51.5 122.5t123 51t124 -51t52.5 -122.5t-52.5 -124t-124 -52.5t-123 52.5 t-51.5 124z" />
<glyph unicode="&#xfb04;" horiz-adv-x="2086" d="M45 801v121q113 0 133 30q10 14 20.5 70.5t41 128.5t92.5 133q135 135 360 135q139 0 217 -42t78 -117q0 -57 -50 -103.5t-114 -46.5q-43 0 -75.5 30.5t-51 68.5t-48.5 69t-66 31q-84 0 -84 -129v-258h192v-121h-192v-520q0 -100 37.5 -142.5t134.5 -42.5h35v-96h-644v96 q82 8 112 50t30 133v522h-158zM770 801v121q113 0 133 30q10 14 20.5 70.5t41 128.5t92.5 133q135 135 360 135q139 0 217 -42t78 -117q0 -57 -50 -103.5t-114 -46.5q-43 0 -75.5 30.5t-51 68.5t-48.5 69t-66 31q-84 0 -84 -129v-258h192v-121h-192v-520q0 -100 37.5 -142.5 t134.5 -42.5h35v-96h-644v96q82 8 112 50t30 133v522h-158zM1464 0v96q88 0 128 44t40 134v885l-168 88v60l396 112h67v-1147q0 -164 146 -176v-96h-609z" />
</font>
</defs>
</svg>
