<?xml version="1.0" standalone="no"?>
<!DOCTYPE svg PUBLIC "-//W3C//DTD SVG 1.1//EN" "http://www.w3.org/Graphics/SVG/1.1/DTD/svg11.dtd" >
<svg xmlns="http://www.w3.org/2000/svg">
<metadata>
This is a custom SVG webfont generated by Font Squirrel.
Copyright   : Copyright  1991 2002 Adobe Systems Incorporated All Rights Reserved   Copyright 1991 2002 The Monotype Corporation Plc All Rights Reserved
Designer    : FH Pierpont
Foundry URL : httpwwwadobecomtype
</metadata>
<defs>
<font id="PlantinStdSemibold" horiz-adv-x="1087" >
<font-face units-per-em="2048" ascent="1423" descent="-625" />
<missing-glyph horiz-adv-x="542" />
<glyph unicode=" "  horiz-adv-x="542" />
<glyph unicode="&#x09;" horiz-adv-x="542" />
<glyph unicode="&#xa0;" horiz-adv-x="542" />
<glyph unicode="!" horiz-adv-x="598" d="M147 126.5q0 63.5 44.5 106.5t107.5 43t106.5 -43t43.5 -106.5t-43.5 -107.5t-106.5 -44t-107.5 44t-44.5 107.5zM160 1319q0 106 90 106h102q88 0 88 -108q0 -74 -22 -225l-88 -629q-2 -25 -8.5 -31t-24.5 -6q-20 0 -25 37l-90 629q-22 151 -22 227z" />
<glyph unicode="&#x22;" horiz-adv-x="1136" d="M246 1245q0 51 32.5 86t81.5 35q53 0 87 -34t34 -87q0 -63 -22 -166l-74 -327h-45l-72 327q-22 107 -22 166zM655 1245q0 51 33 86t82 35q53 0 87 -34t34 -87q0 -63 -23 -166l-73 -327h-45l-72 327q-23 107 -23 166z" />
<glyph unicode="#" horiz-adv-x="1368" d="M82 348v166h215l68 326h-283v166h317l82 391h166l-82 -391h375l82 391h166l-82 -391h178v-166h-213l-67 -326h280v-166h-315l-82 -389h-166l82 389h-375l-82 -389h-166l82 389h-180zM463 514h375l67 326h-375z" />
<glyph unicode="$" horiz-adv-x="1044" d="M92 1016q0 164 139 264q96 70 246 70v75h74v-77q150 0 251 -82t101 -176q0 -29 -28.5 -49.5t-69.5 -20.5q-25 0 -40 24.5t-26.5 60.5t-28 71.5t-57.5 64.5t-102 33v-434q244 -160 322.5 -253t78.5 -218q0 -156 -112.5 -266.5t-288.5 -110.5v-168h-74v170q-96 0 -174 27.5 t-119 67.5t-62.5 75t-21.5 57q0 29 32 52.5t58 23.5q31 0 54.5 -32t40 -71.5t65.5 -77.5t127 -48v512q-231 152 -308 238.5t-77 197.5zM279 1104q0 -106 198 -221v393q-92 -6 -145 -52t-53 -120zM551 66q98 6 154.5 64t56.5 142q0 72 -43 122t-168 134v-462z" />
<glyph unicode="%" horiz-adv-x="1665" d="M90 1005.5q0 161.5 75 261t195.5 99.5t195.5 -99.5t75 -261t-75 -262t-195.5 -100.5t-195.5 100.5t-75 262zM258 1006q0 -178 21.5 -245t81 -67t81 66.5t21.5 245.5q0 176 -21.5 242.5t-81 66.5t-81 -64.5t-21.5 -244.5zM319 -86l920 1511h109l-920 -1511h-109zM1034 350 q0 162 75 261.5t195.5 99.5t195.5 -99.5t75 -261.5t-75 -262t-195.5 -100t-195.5 100t-75 262zM1202 350q0 -178 21.5 -244.5t81 -66.5t81 66.5t21.5 244.5q0 176 -21.5 242.5t-81 66.5t-81 -64.5t-21.5 -244.5z" />
<glyph unicode="&#x26;" horiz-adv-x="1642" d="M106 354q0 106 86.5 202.5t346.5 260.5q-147 190 -148 287q0 119 110.5 220t239.5 101q109 0 202 -84t93 -180q0 -150 -245 -274q133 -125 339 -428q111 170 111 252q0 102 -133 116v74h444v-74q-55 -6 -95 -39.5t-103 -125.5l-180 -265l108 -147q141 -190 279 -205v-74 h-150q-137 0 -214 46t-171 180q-190 -225 -487 -226q-188 0 -310.5 124t-122.5 259zM367 489q0 -131 103 -255.5t239 -124.5q143 0 272 149q-137 199 -391 500q-119 -74 -171 -136.5t-52 -132.5zM555 1200q0 -68 76 -145l110 -115q162 98 162 190q0 61 -60.5 141.5 t-135.5 80.5q-59 0 -105.5 -47.5t-46.5 -104.5z" />
<glyph unicode="'" horiz-adv-x="569" d="M166 1245q0 51 32.5 86t82.5 35q51 0 85.5 -34t34.5 -87q0 -63 -22 -166l-74 -327h-45l-72 327q-22 107 -22 166z" />
<glyph unicode="(" horiz-adv-x="768" d="M154 518q0 276 142 525t378 382l37 -63q-385 -293 -385 -846q0 -551 385 -844l-37 -63q-236 133 -378 381.5t-142 527.5z" />
<glyph unicode=")" horiz-adv-x="768" d="M57 -328q385 293 385 846q0 551 -385 844l37 63q236 -133 378 -381.5t142 -527.5q0 -276 -142 -525t-378 -382z" />
<glyph unicode="*" horiz-adv-x="1024" d="M61 1069l21 70l354 -70l39 356h74l39 -356l354 70l21 -70l-328 -147l176 -310l-57 -43l-242 265l-242 -265l-57 43l176 310z" />
<glyph unicode="+" horiz-adv-x="1366" d="M129 461v184h461v461h184v-461h461v-184h-461v-461h-184v461h-461z" />
<glyph unicode="," horiz-adv-x="598" d="M143 156q0 63 36 102t91 39q84 0 141.5 -78t57.5 -192q0 -94 -33 -168t-81 -113t-93 -58.5t-82 -19.5q-27 0 -26 15v43q0 14 18 14q78 0 133 61.5t55 147.5q0 43 -18 60.5t-61 17.5q-68 0 -103 34t-35 95z" />
<glyph unicode="-" horiz-adv-x="788" d="M80 365v198h631v-198h-631z" />
<glyph unicode="." horiz-adv-x="598" d="M147 126.5q0 63.5 44.5 106.5t107.5 43t106.5 -43t43.5 -106.5t-43.5 -107.5t-106.5 -44t-107.5 44t-44.5 107.5z" />
<glyph unicode="/" horiz-adv-x="606" d="M-29 -276l478 1701h186l-477 -1701h-187z" />
<glyph unicode="0" d="M109 672q0 334 130 514t306 180q182 0 309 -186.5t127 -507.5q0 -328 -128 -512.5t-308 -184.5q-174 0 -305 175.5t-131 521.5zM350 672q0 -264 18.5 -396.5t67.5 -181.5q45 -45 109 -45q61 0 104 43q51 51 70.5 184.5t19.5 395.5q0 266 -18.5 396t-71.5 183 q-41 41 -104 41q-66 0 -111 -45q-84 -83 -84 -575z" />
<glyph unicode="1" d="M193 1087v74q123 29 232.5 86.5t170.5 118.5h74v-1102q0 -113 43 -154q38 -37 150 -37q16 0 34 1v-74h-684v74q13 0 25 -1q116 0 158 36q46 39 46 167v685q0 70 -24.5 98t-87.5 28h-137z" />
<glyph unicode="2" d="M86 0v115l102 102q266 266 376 435t110 315q0 109 -74 181.5t-182 72.5q-131 0 -264 -125l-50 53q113 115 217.5 166t225.5 51q162 0 265 -93t103 -231q0 -113 -68.5 -232.5t-258.5 -307.5q-201 -201 -334 -318h367q121 0 164.5 29t101.5 143h76l-117 -356h-760z" />
<glyph unicode="3" d="M102 84q0 33 32 64.5t65 31.5q35 0 124 -61.5t146 -61.5q96 0 158.5 83t62.5 210q0 150 -75.5 228.5t-219.5 78.5q-68 0 -155 -10l12 74q377 53 377 293q0 96 -62.5 159.5t-156.5 63.5q-119 0 -240 -115l-49 54q147 190 381 190q150 0 248 -80t98 -203q0 -178 -215 -268 v-4q133 -33 207.5 -132t74.5 -239q0 -201 -151.5 -333t-380.5 -132q-123 0 -202 31t-79 78z" />
<glyph unicode="4" d="M74 336v135l616 895h135v-877h174v-153h-174v-361h-227v361h-524zM176 489h422v617h-4z" />
<glyph unicode="5" d="M111 57q0 35 24.5 67t52.5 32q25 0 122.5 -35t168.5 -35q113 0 192 80t79 194q0 143 -144.5 242.5t-451.5 171.5l268 567h426l37 66l65 -31l-121 -219h-411l-90 -188q268 -43 426.5 -176.5t158.5 -325.5q0 -68 -30.5 -146.5t-92 -158.5t-180 -133.5t-272.5 -53.5 q-106 0 -166.5 21.5t-60.5 60.5z" />
<glyph unicode="6" d="M98 498q0 184 63.5 340.5t171 263t242 174t281.5 90.5l39 -66q-217 -55 -344 -194t-176 -371q150 98 264 99q143 0 240.5 -118t97.5 -294q0 -199 -119 -323t-311 -124q-213 0 -331 137.5t-118 385.5zM340 442q0 -190 55.5 -291.5t157.5 -101.5q88 0 135 81t47 228 q0 164 -50 256.5t-140 92.5q-76 0 -191 -64q-14 -113 -14 -201z" />
<glyph unicode="7" d="M86 981l107 360h786l-539 -1366h-116l462 1168h-395q-121 0 -162 -28t-67 -134h-76z" />
<glyph unicode="8" d="M113 289q0 109 71.5 195.5t231.5 170.5q-162 106 -221.5 193.5t-59.5 181.5q0 141 111.5 238.5t316.5 97.5q164 0 267.5 -79t103.5 -204q0 -94 -63.5 -175t-200.5 -167q174 -119 245.5 -216t71.5 -201q0 -160 -124 -254.5t-331 -94.5q-193 0 -306 85.5t-113 228.5z M276 281q0 -106 69 -169t185 -63q119 0 195 57.5t76 145.5q0 68 -47 127t-156 137l-121 86q-201 -151 -201 -321zM324 1108q0 -109 137 -213l145 -113q186 123 187 279q0 100 -69 165.5t-173 65.5q-94 0 -160.5 -53t-66.5 -131z" />
<glyph unicode="9" d="M92 917q0 201 121 325t315 124q197 0 320 -130t123 -405q0 -133 -25.5 -247.5t-67.5 -197.5t-103.5 -149.5t-125 -110.5t-139.5 -76t-140.5 -48t-133.5 -27l-52 64q88 20 166 57t156 102.5t133 174t76 248.5q-141 -111 -284.5 -111t-241 116.5t-97.5 290.5zM334 979 q0 -340 198 -340q86 0 191 70q6 49 6 157q0 426 -213 426q-88 0 -135 -81.5t-47 -231.5z" />
<glyph unicode=":" horiz-adv-x="598" d="M147 126.5q0 63.5 44.5 106.5t107.5 43t106.5 -43t43.5 -106.5t-43.5 -107.5t-106.5 -44t-107.5 44t-44.5 107.5zM147 796.5q0 63.5 44.5 106.5t107.5 43t106.5 -43t43.5 -106.5t-43.5 -107.5t-106.5 -44t-107.5 44t-44.5 107.5z" />
<glyph unicode=";" horiz-adv-x="598" d="M143 156q0 63 36 102t91 39q84 0 141.5 -78t57.5 -192q0 -94 -33 -168t-81 -113t-93 -58.5t-82 -19.5q-27 0 -26 15v43q0 14 18 14q78 0 133 61.5t55 147.5q0 43 -18 60.5t-61 17.5q-68 0 -103 34t-35 95zM147 796.5q0 63.5 44.5 106.5t108 43t106.5 -43t43 -106.5 t-43.5 -107.5t-106.5 -44t-107.5 44t-44.5 107.5z" />
<glyph unicode="&#x3c;" horiz-adv-x="1366" d="M131 469v168l1102 461v-201l-850 -344l850 -346v-199z" />
<glyph unicode="=" horiz-adv-x="1366" d="M131 225v185h1104v-185h-1104zM131 700v185h1104v-185h-1104z" />
<glyph unicode="&#x3e;" horiz-adv-x="1366" d="M131 8v199l852 346l-852 344v201l1102 -461v-168z" />
<glyph unicode="?" horiz-adv-x="937" d="M111 1305q0 121 202 120q174 0 342 -154.5t168 -357.5q0 -100 -67.5 -167.5t-196.5 -101.5t-145 -50q-36 -36 -36 -133q0 -15 1 -31h-72q-6 115 -21.5 225.5t-15.5 126.5q0 20 13 33q16 16 84.5 26.5t149.5 32t124 64.5q41 41 41 111q0 88 -73.5 163.5t-162.5 75.5 q-55 0 -144 -40t-118 -40q-73 1 -73 97zM197 126.5q0 63.5 44 106.5t107.5 43t106.5 -43t43 -106.5t-43 -107.5t-106.5 -44t-107.5 44t-44 107.5z" />
<glyph unicode="@" horiz-adv-x="1904" d="M104 459q0 408 273.5 687t673.5 279q348 0 535.5 -196.5t187.5 -487.5q0 -168 -63.5 -325.5t-198 -269t-310.5 -111.5q-80 0 -125 39t-45 108q0 92 23 148l-4 4q-211 -299 -377 -299q-72 0 -122 65.5t-50 159.5q0 174 92 345t218 272.5t232 101.5q63 0 103.5 -39 t50.5 -104h4l31 112l190 17l-188 -648q-23 -80 -23 -131q0 -33 22.5 -55t51.5 -22q45 0 109.5 31.5t115.5 82.5q96 96 150.5 234.5t54.5 287.5q0 270 -176 447q-178 178 -471 178q-338 0 -590 -252q-133 -133 -204.5 -313t-71.5 -379q0 -352 221 -573q219 -219 561 -220 q362 0 606 244q129 129 203 309h59q-78 -250 -314 -431t-556 -181q-383 0 -631 250t-248 635zM696 301q0 -47 28 -84t62 -37q68 0 146 78q104 104 165.5 255t61.5 269q0 63 -28.5 102.5t-75.5 39.5q-74 0 -161 -115t-142.5 -262.5t-55.5 -245.5z" />
<glyph unicode="A" horiz-adv-x="1556" d="M12 0v74q111 18 162 72.5t111 205.5l360 928l-45 117h285l473 -1184q33 -80 70.5 -107.5t115.5 -31.5v-74h-696v74q13 0 24 -1q205 0 205 101q0 27 -30 107l-97 245h-514l-71 -196q-29 -80 -29 -129q0 -57 52 -93q49 -34 140 -34h11v-74h-527zM473 627h438l-229 561z" />
<glyph unicode="B" horiz-adv-x="1579" d="M57 0v74q16 -1 31 -1q107 0 141 40q39 45 39 190v819q0 117 -39 163q-33 39 -134 39q-18 0 -38 -1v74h873q221 0 354 -89t133 -257q0 -127 -97 -209t-282 -107v-4q199 -8 308.5 -100t109.5 -246q0 -61 -23.5 -124.5t-74.5 -124t-147.5 -98.5t-225.5 -38h-928zM545 291 q0 -113 59.5 -165t206.5 -52q92 0 160.5 28.5t104.5 75.5t52.5 96.5t16.5 100.5q0 127 -86 220t-260 93h-254v-397zM545 762h262q129 0 211 74.5t82 191.5q0 123 -87 209t-253 86h-215v-561z" />
<glyph unicode="C" horiz-adv-x="1599" d="M117 672q0 180 66.5 326.5t178 237.5t249 140t284.5 49q246 0 510 -112l49 -316h-123q-53 164 -173 259.5t-275 95.5q-172 0 -273 -101q-176 -176 -176 -557q0 -297 132 -473t354 -176q172 0 290.5 104.5t135.5 274.5h135l-21 -318q-270 -135 -612 -135 q-356 0 -543.5 200t-187.5 501z" />
<glyph unicode="D" horiz-adv-x="1705" d="M55 0v74q11 0 22 -1q114 0 150 41q39 44 39 189v823q0 115 -38 158q-35 39 -150 39h-23v74h789q362 0 562 -191.5t200 -500.5q0 -133 -48.5 -257t-138.5 -225.5t-238.5 -162t-334.5 -60.5h-791zM543 1323v-1036q0 -213 235 -213q238 0 370 164.5t132 463.5 q0 125 -29.5 231.5t-93 197t-178.5 141.5t-268 51h-168z" />
<glyph unicode="E" horiz-adv-x="1472" d="M53 0v74q17 -1 32 -1q105 0 142 37q43 42 43 158v862q0 106 -42 154q-36 40 -137 40q-18 0 -38 -1v74h1258v-293h-113q-88 219 -342 219h-309v-553h227q145 0 206.5 40t76.5 142h135v-444h-135q-10 188 -217 188h-293v-401q0 -121 47 -171t194 -50q193 0 302.5 60.5 t193.5 209.5h129l-78 -344h-1282z" />
<glyph unicode="F" horiz-adv-x="1343" d="M63 0v74h13q115 0 155 37q43 39 43 161v863q0 109 -42 151q-37 38 -138 38q-15 0 -31 -1v74h1223v-299h-119q-49 111 -118.5 168t-182.5 57h-315v-569h215q121 0 172 44t66 160h114v-481h-114q-14 111 -67.5 157t-170.5 46h-215v-420q0 -104 42 -149q36 -38 132 -39 q18 0 37 2v-74h-699z" />
<glyph unicode="G" horiz-adv-x="1685" d="M117 662q0 154 49 289.5t144.5 242t248 169t344.5 62.5q258 0 514 -114l31 -326h-94q-63 176 -183 271.5t-278 95.5q-213 0 -336 -174t-123 -473q0 -305 144.5 -482.5t359.5 -177.5q123 0 244 70v338q0 104 -48 146q-40 35 -136 35q-19 0 -40 -1v74h707v-74q-19 1 -37 1 q-87 0 -125 -34q-45 -41 -45 -154v-360q-254 -115 -557 -115q-367 0 -575.5 183.5t-208.5 507.5z" />
<glyph unicode="H" horiz-adv-x="1748" d="M49 0v74q16 -1 31 -1q101 0 139 37q43 42 43 148v877q0 115 -44 153q-40 35 -146 35h-23v74h705v-74h-23q-117 0 -153 -39q-39 -43 -39 -190v-330h663v375q0 100 -41 146q-35 39 -131 39q-17 0 -37 -1v74h707v-74q-17 1 -33 1q-106 0 -144 -36q-44 -41 -44 -166v-862 q0 -109 46 -151q39 -36 136 -37q19 0 39 2v-74h-707v74q12 0 24 -1q103 0 142 33q43 37 43 156v402h-663v-400q0 -109 42 -151q38 -39 151 -40q11 0 22 1v-74h-705z" />
<glyph unicode="I" horiz-adv-x="811" d="M53 0v74q16 -1 32 -1q98 0 136 35q45 40 45 152v879q0 106 -44 148q-38 37 -138 37q-15 0 -31 -1v74h705v-74q-17 1 -33 1q-102 0 -139 -35q-43 -40 -43 -152v-871q0 -113 42 -156q35 -37 134 -38q18 0 39 2v-74h-705z" />
<glyph unicode="J" horiz-adv-x="823" d="M-92 -250q0 47 29.5 78t74.5 31q43 0 71 -26t37 -57.5t27.5 -57t42.5 -25.5q53 0 74 52t21 169v1221q0 106 -42 150q-37 39 -146 39q-15 0 -31 -1v74h679v-74h-9q-99 0 -136 -42q-39 -44 -39 -159v-999q0 -213 -119.5 -363.5t-314.5 -150.5q-102 0 -160.5 37.5 t-58.5 103.5z" />
<glyph unicode="K" horiz-adv-x="1599" d="M51 0v74q17 -1 33 -1q99 0 139 33q47 39 47 160v873q0 111 -45 150q-39 35 -141 35q-16 0 -33 -1v74h709v-74h-22q-109 0 -148 -38q-43 -42 -43 -165v-350q248 156 395 303q115 115 115 184q0 33 -32 51q-28 16 -77 15h-12v74h580v-74h-10q-118 0 -224 -51 q-35 -16 -94 -72l-175 -162q-116 -106 -237 -204q96 -96 319.5 -356.5t256.5 -293.5q68 -68 109.5 -88t123.5 -22v-74h-407q-94 80 -341 373t-290 334v-451q0 -104 45 -146q39 -37 138 -37q14 0 30 1v-74h-709z" />
<glyph unicode="L" horiz-adv-x="1366" d="M66 1323v74h704v-74q-22 1 -42 1q-101 0 -138 -35q-45 -42 -45 -165v-827q0 -113 45 -168t186 -55q158 0 253 62.5t177 221.5h127l-90 -358h-1177v74q15 -1 28 -1q97 0 133 38q41 43 41 157v871q0 102 -40 146q-35 39 -134 39q-13 0 -28 -1z" />
<glyph unicode="M" horiz-adv-x="2048" d="M27 0v74q100 0 141 51t70 233l106 678q16 98 16 146q0 141 -186 141h-10v74h506q-2 -123 59.5 -288t169 -383t148.5 -325l143 316l125 270q41 90 72.5 186.5t31.5 155.5q0 31 -4 68h510v-74q-20 1 -38 1q-181 0 -181 -130q0 -10 18 -150l99 -741q18 -137 56 -183t149 -46 v-74h-685v74q121 0 168.5 34.5t47.5 129.5q0 59 -13 145l-96 756h-4q-25 -92 -221.5 -519t-233.5 -620h-86q-4 111 -218 555t-255 580h-4l-113 -744q-14 -104 -14 -160q0 -86 54 -123q49 -34 152 -35q11 0 23 1v-74h-503z" />
<glyph unicode="N" horiz-adv-x="1599" d="M6 0v74h12q160 0 210 52q52 54 53 236v822q-63 70 -121 99.5t-140 39.5v74h435l825 -994h4v668q0 154 -56 205q-52 47 -193 47h-23v74h581v-74q-20 1 -38 1q-104 0 -147 -40q-50 -47 -50 -162v-696q0 -43 17.5 -176t19.5 -270h-105l-932 1116h-4v-779q0 -131 58.5 -185 t212.5 -58v-74h-619z" />
<glyph unicode="O" horiz-adv-x="1748" d="M117 682q0 313 225 528t555 215q315 0 525 -198.5t210 -495.5q0 -307 -213 -533.5t-559 -226.5q-324 0 -533.5 205t-209.5 506zM434 729q0 -303 128 -493.5t333 -190.5q193 0 306.5 167t113.5 450q0 127 -25.5 244.5t-76 220t-139.5 164t-206 61.5q-199 0 -316.5 -169 t-117.5 -454z" />
<glyph unicode="P" horiz-adv-x="1452" d="M51 0v74q17 -1 32 -1q99 0 138 35q45 40 45 154v871q0 115 -44 155q-38 36 -139 36q-15 0 -32 -1v74h901q119 0 208 -37t137.5 -96.5t71 -125t22.5 -134.5q0 -170 -133.5 -278t-348.5 -108q-250 0 -250 56q0 47 35 47q14 0 46 -1t38 -1q301 0 301 266q0 158 -96 248 t-262 90h-178v-1057q0 -117 46 -158q39 -35 142 -36q20 0 43 2v-74h-723z" />
<glyph unicode="Q" horiz-adv-x="1748" d="M117 680q0 315 225 530t555 215q315 0 525 -198.5t210 -495.5q0 -252 -155.5 -465t-417.5 -274q233 -176 631 -205v-125q0 -35 -12.5 -43t-57.5 -8q-248 0 -494 125q-125 63 -241.5 140t-192.5 112q-225 41 -400 230.5t-175 461.5zM434 729q0 -303 128 -493.5t333 -190.5 q193 0 306.5 167t113.5 450q0 176 -44 326.5t-147.5 257t-253.5 106.5q-199 0 -317.5 -169t-118.5 -454z" />
<glyph unicode="R" horiz-adv-x="1599" d="M61 0v74q12 0 23 -1q100 0 142 33q46 37 46 162v869q0 104 -41 147q-37 39 -148 39h-22v74h854q227 0 357.5 -99.5t130.5 -257.5q0 -139 -104.5 -238.5t-278.5 -127.5q59 -68 216 -282t204 -261q35 -35 66 -47q27 -11 69 -11q7 0 14 1v-74h-366q-96 82 -251 309.5 t-204 276.5q-51 51 -141 51h-78v-383q0 -104 44 -146q37 -35 135 -36q19 0 40 2v-74h-707zM549 711h137q217 0 311.5 75.5t94.5 217t-92.5 230.5t-278.5 89h-172v-612z" />
<glyph unicode="S" horiz-adv-x="1323" d="M123 399h137q45 -182 138.5 -268t242.5 -86q143 0 212 63.5t69 161.5q0 94 -62 156q-59 59 -302 174t-329 201q-100 100 -100 231q0 162 126 277.5t390 115.5q225 0 453 -112l16 -299h-127q-31 162 -121 250t-225 88q-109 0 -179.5 -58.5t-70.5 -148.5q0 -78 64 -141 q37 -37 155.5 -94.5t259 -135.5t224.5 -162q113 -113 112 -250q0 -49 -14 -99t-53 -103.5t-98.5 -94t-160 -67.5t-229.5 -27q-285 0 -506 103z" />
<glyph unicode="T" horiz-adv-x="1472" d="M74 1079v318h1325v-318h-111q-61 143 -137 193.5t-231 50.5h-46v-1059q0 -113 42 -154q37 -37 138 -37q15 0 31 1v-74h-698v74q12 0 22 -1q103 0 144 36q45 39 45 155v1059h-45q-156 0 -231.5 -50t-137.5 -194h-110z" />
<glyph unicode="U" horiz-adv-x="1642" d="M16 1323v74h713v-74h-14q-117 0 -159 -33q-44 -35 -44 -149v-629q0 -211 68 -283q111 -121 329 -120q211 0 318 106q51 51 78.5 141t27.5 183v503q0 154 -49 222q-44 60 -159 60q-14 0 -29 -1v74h532v-74h-10q-107 0 -158 -40q-53 -42 -53 -161v-573q0 -279 -137 -428.5 t-445 -149.5q-324 0 -467 144q-68 68 -95 175t-27 306v522q0 125 -41 168q-36 38 -146 38q-16 0 -33 -1z" />
<glyph unicode="V" horiz-adv-x="1515" d="M37 1323v74h668v-74q-96 0 -133 -23.5t-37 -78.5q0 -41 26 -113l227 -573q45 -113 70 -211h4l180 499q96 270 97 367q0 61 -44 97t-122 36v74h493v-74q-98 -4 -155.5 -57.5t-102.5 -182.5l-303 -856q-31 -86 -82 -256h-118q-76 233 -93 275l-327 854q-51 133 -105 180 q-49 43 -129 43h-14z" />
<glyph unicode="W" horiz-adv-x="2091" d="M31 1323v74h592v-74q-131 -2 -131 -98q0 -35 24 -109l260 -770h4l242 705l-37 106q-35 100 -72.5 131t-121.5 35v74h622v-74q-88 0 -124 -20.5t-36 -67.5q0 -37 35 -135l264 -746h4l181 664q25 88 24 156q0 147 -186 149v74h477v-74q-76 0 -108.5 -17.5t-62.5 -81 t-73 -220.5l-284 -1033h-125l-121 363l-215 606h-4l-205 -606q-70 -205 -111 -363h-120l-371 1110q-45 139 -87 184.5t-134 57.5z" />
<glyph unicode="X" horiz-adv-x="1665" d="M74 1323v74h737v-74q-156 0 -156 -78q0 -49 68 -145l170 -234l154 211q70 94 69 162q0 78 -137 84v74h532v-74q-135 0 -197.5 -45t-193.5 -223l-182 -248l438 -604q59 -84 102.5 -106.5t131.5 -22.5v-74h-744v74q170 0 170 92q0 53 -82 168l-180 250l-176 -240 q-63 -86 -63 -162q0 -104 139 -108v-74h-576v74h9q122 0 204 58q86 60 219 241l199 270l-377 514q-78 106 -130 138q-46 28 -127 28h-21z" />
<glyph unicode="Y" horiz-adv-x="1515" d="M41 1323v74h696v-74q-88 0 -126 -18.5t-38 -67.5q0 -39 52 -135l237 -440l219 370q63 109 64 174q0 111 -156 117v74h481v-74q-86 -2 -134 -40t-119 -163l-318 -542v-320q0 -111 45 -150q39 -35 141 -35q16 0 33 1v-74h-723v74q17 -1 34 -1q104 0 145 35q48 40 49 160 v281l-326 606q-57 106 -103 139q-41 29 -130 29h-23z" />
<glyph unicode="Z" horiz-adv-x="1429" d="M111 0v74l843 1249h-303q-150 0 -223.5 -46t-140.5 -185h-115v305h1112v-54l-858 -1269h346q164 0 258 58t172 216h129l-86 -348h-1134z" />
<glyph unicode="[" horiz-adv-x="747" d="M244 -362v1759h499v-74h-110q-90 0 -126 -33t-36 -123v-1292q0 -86 30.5 -125t123.5 -39h118v-73h-499z" />
<glyph unicode="\" horiz-adv-x="606" d="M-29 1425h187l469 -1701h-187z" />
<glyph unicode="]" horiz-adv-x="747" d="M4 -289h119q92 0 122.5 39t30.5 125v1292q0 90 -35.5 123t-125.5 33h-111v74h500v-1759h-500v73z" />
<glyph unicode="^" horiz-adv-x="1189" d="M150 678l419 719h49l420 -719h-139l-305 512l-303 -512h-141z" />
<glyph unicode="_" horiz-adv-x="1024" d="M-18 -154h1058v-102h-1058v102z" />
<glyph unicode="`" horiz-adv-x="681" d="M70 1409h247l103 -334h-64z" />
<glyph unicode="a" horiz-adv-x="1130" d="M100 199q0 113 104.5 183.5t319.5 121.5l185 45v160q0 164 -183 163q-76 0 -123 -35.5t-47 -95.5q0 -33 23 -86l-217 -75q-33 74 -33 129q0 102 111.5 169.5t328.5 67.5q182 0 274.5 -54t92.5 -190v-444q0 -109 65 -108q35 0 95 38l22 -79q-123 -133 -250 -134 q-115 0 -151 121q-209 -121 -357 -121q-117 0 -188.5 62t-71.5 162zM342 236q0 -55 43 -97.5t100 -42.5q100 0 224 86v307q-98 -33 -151.5 -54t-110 -53t-81 -66.5t-24.5 -79.5z" />
<glyph unicode="b" horiz-adv-x="1196" d="M-23 1260v49l340 116h54v-667q170 188 364 188q160 0 266.5 -117.5t106.5 -326.5q0 -246 -143.5 -386.5t-395.5 -140.5q-225 0 -426 99v1114zM371 379q0 -168 42 -249t175 -81q135 0 206.5 96.5t71.5 276.5q0 172 -68.5 273.5t-185.5 101.5q-113 0 -241 -127v-291z" />
<glyph unicode="c" horiz-adv-x="1024" d="M94 455q0 223 134 357t356 134q154 0 248 -60.5t94 -160.5q0 -47 -35 -78t-86 -31q-41 0 -62 21q-16 16 -36.5 86t-53.5 102q-47 47 -118 47q-104 0 -167 -77.5t-63 -204.5q0 -168 97.5 -310.5t248.5 -142.5q131 0 252 109l55 -53q-164 -217 -426 -218q-150 0 -252 76 t-144 180.5t-42 223.5z" />
<glyph unicode="d" horiz-adv-x="1236" d="M98 418q0 231 133.5 379.5t368.5 148.5q82 0 229 -33v275l-165 72v49l327 116h66v-1089q0 -143 21.5 -182t103.5 -39q10 0 51 4v-68l-404 -76v183q-176 -182 -364 -183q-162 0 -264.5 124t-102.5 319zM340 502q0 -176 68.5 -275.5t187.5 -99.5q137 0 233 127v379 q0 115 -64.5 177t-164.5 62q-123 0 -191.5 -97t-68.5 -273z" />
<glyph unicode="e" horiz-adv-x="1044" d="M94 442q0 225 125 364.5t326 139.5q178 0 305 -104.5t129 -292.5h-686q0 -156 104.5 -267.5t261.5 -111.5q135 0 250 96l52 -45q-166 -246 -429 -246q-195 0 -316.5 130t-121.5 337zM293 623h426q-4 115 -60.5 182t-148.5 67q-90 0 -148.5 -66t-68.5 -183z" />
<glyph unicode="f" horiz-adv-x="661" d="M25 0v74q100 0 137 35.5t37 152.5v559h-174v101q7 0 13 -1q89 0 116 27q18 18 36.5 82t51 141.5t88.5 133.5q121 121 313 120q127 0 201 -44t74 -121q0 -45 -34 -78t-81 -33q-41 0 -72 28.5t-48 64.5t-52 64.5t-82 28.5q-123 0 -123 -213v-200h215v-101h-215v-559 q0 -115 48 -151.5t177 -36.5v-74h-626z" />
<glyph unicode="g" d="M92 -213q0 115 191 207v4q-68 12 -106 45t-38 80q0 57 47 108.5t168 122.5q-219 90 -219 256q0 141 117 238.5t287 97.5q49 0 178 -15.5t178 -15.5q115 0 182 7v-125q-29 -6 -63 -6q-80 0 -160 18q53 -90 53 -166q0 -137 -124 -225t-273 -88q-31 0 -74 6 q-102 -57 -102 -107q0 -66 115 -65h208q162 0 258.5 -64.5t96.5 -171.5q0 -53 -29 -105t-88 -102.5t-171 -81t-259 -30.5q-168 0 -270.5 49t-102.5 129zM225 -193q0 -57 72 -90.5t205 -33.5q162 0 267 49t105 125q0 57 -60 85.5t-144 28.5h-174q-63 0 -123 4 q-148 -76 -148 -168zM354 651q0 -127 40 -187.5t126 -60.5q170 0 170 230q0 240 -168 239q-90 0 -129 -51t-39 -170z" />
<glyph unicode="h" horiz-adv-x="1216" d="M18 0v74h9q85 0 117 39q34 41 34 135v940l-160 72v49l328 116h60v-637q150 158 323 158q150 0 230.5 -87t80.5 -234v-379q0 -90 35 -131t119 -41v-74h-516v74q74 2 104.5 42t30.5 120v348q0 225 -186 225q-113 0 -221 -111v-448q0 -90 31.5 -132t113.5 -44v-74h-533z" />
<glyph unicode="i" horiz-adv-x="618" d="M47 0v74q86 0 124 35.5t38 138.5v465l-162 71v50l332 112h57v-692q0 -100 32 -139t124 -41v-74h-545zM176 1288.5q0 57.5 41 97t98.5 39.5t97.5 -39.5t40 -97t-40 -98.5t-97.5 -41t-98.5 41t-41 98.5z" />
<glyph unicode="j" horiz-adv-x="575" d="M-23 -338q121 109 170.5 199t49.5 196v654l-164 73v50l329 112h62v-825q0 -133 -60.5 -219t-289.5 -293zM154 1288.5q0 57.5 41 97t98 39.5t97 -39.5t40 -97t-40 -98.5t-97 -41t-98 41t-41 98.5z" />
<glyph unicode="k" d="M29 0v74q80 0 112.5 42t32.5 130v942l-145 72v49l311 116h61v-927q145 133 196.5 192.5t51.5 95.5q0 59 -106 62v74h506v-74h-11q-124 0 -207 -48q-86 -50 -258 -231l504 -430v-84q0 -35 -8 -45t-37 -10h-53q-57 0 -96 31l-482 409v-192q0 -84 30 -128t112 -46v-74h-514z " />
<glyph unicode="l" horiz-adv-x="598" d="M16 0v74q8 0 16 -1q84 0 113 43q33 46 33 148v924l-162 72v49l320 116h70v-1173q0 -96 33.5 -137t119.5 -41v-74h-543z" />
<glyph unicode="m" horiz-adv-x="1984" d="M37 0v74h9q87 0 119 39q34 41 34 151v447l-162 69v49l321 117h68v-166q172 166 381 166q225 0 295 -180q90 96 183 138t214 42q311 0 311 -303v-385q0 -98 35 -143q32 -41 116 -42q8 0 15 1v-74h-555v74h9q89 0 120 42q33 44 33 148v340q0 94 -41 149.5t-151 55.5 q-141 0 -273 -111v-448q0 -86 34 -134q30 -43 107 -43q10 0 21 1v-74h-545v74q8 0 15 -1q70 0 104 37q37 40 37 132v342q0 117 -47 171t-150 54q-145 0 -268 -111v-434q0 -106 33 -149q31 -41 124 -41h9v-74h-555z" />
<glyph unicode="n" horiz-adv-x="1236" d="M41 0v74h8q87 0 119 42q33 44 33 148v463l-160 72v49l319 98h68v-164q84 88 159 126t167 38q147 0 228 -89t81 -224v-385q0 -98 34 -137q32 -37 115 -37h9v-74h-521v74q78 6 107 49t29 141v320q0 225 -183 225q-123 0 -225 -113v-452q0 -92 33 -129t114 -41v-74h-534z " />
<glyph unicode="o" horiz-adv-x="1153" d="M88 463q0 209 140.5 346t353.5 137q211 0 345 -132t134 -339q0 -201 -129 -350.5t-359 -149.5q-221 0 -353 134.5t-132 353.5zM340 496q0 -207 66.5 -327t181.5 -120q221 0 221 393q0 207 -63.5 318.5t-180.5 111.5q-225 1 -225 -376z" />
<glyph unicode="p" horiz-adv-x="1216" d="M12 -295q94 0 126 43t32 148v819l-158 69v50l314 112h71v-192q172 193 371 192q143 0 255 -112.5t112 -331.5q0 -119 -35 -213t-90.5 -151.5t-129 -95.5t-143 -52.5t-141.5 -14.5q-90 0 -199 25v-104q0 -115 45 -154q43 -37 171 -37h14v-74h-615v74zM397 668v-316 q0 -164 47.5 -233.5t180.5 -69.5q127 0 200.5 94.5t73.5 266.5q0 174 -70.5 279.5t-187.5 105.5q-111 0 -244 -127z" />
<glyph unicode="q" horiz-adv-x="1216" d="M102 414q0 254 138.5 393t390.5 139q182 0 360 -104v104h70v-1063q0 -100 38 -140q36 -38 119 -38h9v-74h-613v74h25q107 0 148 33q46 37 47 158v272q-166 -193 -351 -193q-176 0 -278.5 118t-102.5 321zM336 506q0 -168 70.5 -273.5t185.5 -105.5q127 0 242 123v352 q0 270 -211 270q-137 0 -212 -96t-75 -270z" />
<glyph unicode="r" horiz-adv-x="917" d="M29 0v74h9q90 0 125 37q36 39 36 137v463l-170 73v50l329 112h52v-272h4q145 272 303 272q66 0 129 -47t63 -94q0 -39 -30.5 -115t-79.5 -76q-41 0 -108.5 62.5t-112.5 62.5q-51 0 -101.5 -68.5t-50.5 -158.5v-248q0 -119 43 -158q37 -34 138 -33q16 0 34 1v-74h-612z " />
<glyph unicode="s" horiz-adv-x="897" d="M92 666q0 131 89 205.5t243 74.5q150 0 291 -53l30 -236h-71q-57 113 -123 164t-150 51q-63 0 -99 -29.5t-36 -82.5q0 -51 37 -88q29 -29 197 -94.5t225 -122.5q45 -45 62.5 -85t17.5 -102q0 -135 -97.5 -214t-263.5 -79q-156 0 -317 72l-23 238h80q98 -236 287 -236 q68 0 114 37t46 90q0 45 -33 78q-35 35 -209 105.5t-223 119.5q-74 74 -74 187z" />
<glyph unicode="t" horiz-adv-x="768" d="M43 821v101q197 25 303 227h78v-227h307v-101h-307v-510q0 -88 28.5 -139t114.5 -51q66 0 176 37v-88q-176 -94 -325 -95q-221 0 -221 271v575h-154z" />
<glyph unicode="u" horiz-adv-x="1236" d="M31 848v74q26 -1 51 -1q172 0 258 25h57v-629q0 -111 51.5 -167t133.5 -56q123 0 223 131v449q0 88 -36 133q-33 41 -108 41h-14v74q201 0 326 24h59v-692q0 -88 32 -124q27 -31 101 -31q13 0 27 1v-73q-150 0 -330 -52h-57v160q-84 -86 -164 -123t-182 -37 q-141 0 -215 82t-74 236v391q0 164 -139 164z" />
<glyph unicode="v" horiz-adv-x="1110" d="M27 848v74h497v-74q-131 0 -131 -70q0 -27 25 -78l215 -458l188 420q27 55 27 90q0 49 -32 70.5t-103 25.5v74h372v-74q-70 -2 -97 -32t-91 -169l-311 -688h-56l-370 778q-35 74 -57.5 92.5t-75.5 18.5z" />
<glyph unicode="w" horiz-adv-x="1599" d="M27 848v74h430v-74q-84 0 -84 -70q0 -35 18 -84l182 -452l193 399l-47 117q-23 57 -49.5 73.5t-96.5 16.5v74h490v-74q-13 1 -25 1q-92 0 -92 -44q0 -18 19 -68l182 -469l172 406q18 39 18 74q0 98 -137 100v74h377v-74q-72 -2 -97.5 -25.5t-70.5 -128.5l-315 -735h-58 l-233 586l-287 -586h-59l-318 778q-29 70 -48 89.5t-64 21.5z" />
<glyph unicode="x" horiz-adv-x="1153" d="M61 848v74h492v-74h-9q-87 0 -87 -37q0 -20 30 -61l140 -172l137 151q23 31 22 55q0 57 -96 64v74h402v-74q-72 -2 -120 -31t-130 -115l-168 -180l311 -383q37 -45 57.5 -55t73.5 -10v-74h-506v74q98 0 99 53q0 14 -17 39l-157 207l-84 -92q-94 -102 -95 -140 q0 -68 105 -67v-74h-400v74q55 0 81 8t55 39l290 307l-241 293q-74 90 -101 108.5t-84 18.5z" />
<glyph unicode="y" horiz-adv-x="1067" d="M10 848v74h514v-74q-72 0 -103.5 -18.5t-31.5 -63.5q0 -39 21 -80l223 -471l170 430q23 53 22 94q0 53 -35 82q-33 27 -95 27h-9v74h373v-74q-63 -4 -92 -36t-76 -150l-295 -734q-74 -182 -144.5 -250.5t-187.5 -68.5q-80 0 -132 40t-52 101q0 41 28.5 69.5t67.5 28.5 q49 0 91 -51t83 -51q49 0 91 42t83 157l-372 786q-37 78 -62 97.5t-80 19.5z" />
<glyph unicode="z" horiz-adv-x="1024" d="M86 0v70q43 66 263 360.5t292 417.5h-129q-279 0 -326 -225h-73l20 340h47q12 -4 49 -27q29 -14 62 -14h575q31 0 39 -5.5t8 -21.5v-37q-41 -68 -265 -371t-292 -413h166q139 0 218 53t132 182h74l-55 -309h-805z" />
<glyph unicode="{" horiz-adv-x="806" d="M182 494v45q96 14 155.5 71.5t59.5 139.5q0 47 -23.5 158.5t-23.5 160.5q0 133 112.5 245.5t276.5 119.5v-39q-96 -12 -155.5 -76t-59.5 -129q0 -25 25 -160q23 -143 22 -184q0 -104 -84 -197.5t-223 -132.5v-2q139 -37 223 -130t84 -198q0 -51 -23.5 -184t-23.5 -160 q0 -66 59.5 -129t155.5 -75v-39q-164 6 -276.5 118.5t-112.5 245.5q0 27 25 160q23 104 22 160q0 82 -59.5 139.5t-155.5 71.5z" />
<glyph unicode="|" horiz-adv-x="1118" d="M465 -512v2048h186v-2048h-186z" />
<glyph unicode="}" horiz-adv-x="806" d="M68 -362q96 12 155.5 75.5t59.5 128.5q0 16 -23 160q-25 135 -24 184q0 104 83.5 197.5t223.5 132.5v2q-139 37 -223 130t-84 198q0 51 23.5 184t23.5 160q0 66 -59.5 129t-155.5 76v39q164 -6 276.5 -119t112.5 -246q0 -39 -23 -160q-25 -115 -24 -159q0 -82 59 -139.5 t156 -71.5v-45q-96 -14 -155.5 -71.5t-59.5 -139.5q0 -47 23.5 -159t23.5 -161q0 -133 -113 -245.5t-276 -118.5v39z" />
<glyph unicode="~" horiz-adv-x="1366" d="M133 383q2 166 78 254t192 88q104 0 321.5 -90t272.5 -90q72 0 118 48t54 136h64q-6 -162 -81 -255t-200 -93q-96 0 -309 90t-274 90q-143 0 -172 -178h-64z" />
<glyph unicode="&#xa1;" horiz-adv-x="598" d="M150 794.5q0 63.5 43 107.5t106 44t107.5 -44t44.5 -107.5t-44.5 -106.5t-107.5 -43t-106 43t-43 106.5zM158 -395q0 74 22 225l88 629q2 25 8.5 31t24.5 6q20 0 25 -37l90 -629q23 -152 22 -227q0 -106 -90 -107h-102q-88 0 -88 109z" />
<glyph unicode="&#xa2;" horiz-adv-x="1003" d="M96 455q0 217 132 354t343 137q29 0 47 -2l136 375h77l-139 -385q104 -23 161.5 -78t57.5 -131q0 -47 -34.5 -81t-83.5 -34q-51 0 -73 34t-36 88t-35 79l-211 -582q92 -92 215 -92q109 0 230 105l55 -56q-160 -211 -408 -211q-96 0 -174 33l-135 -377h-78l150 412 q-92 61 -144.5 171t-52.5 241zM305 594q0 -154 80 -295l203 559q-39 14 -66 14q-94 0 -155.5 -78.5t-61.5 -199.5z" />
<glyph unicode="&#xa3;" horiz-adv-x="1044" d="M78 -205q0 78 56 153t134 95q39 152 51 297h-206l20 129h201l31 270q43 365 157 508q96 119 236 119q96 0 155.5 -53t59.5 -137q0 -98 -90 -99q-39 0 -61.5 24.5t-22.5 53.5q0 8 3 40t3 46q0 18 -16.5 34.5t-36.5 16.5q-41 0 -74 -32q-63 -63 -90 -324l-47 -467h219 l-23 -129h-219q-31 -186 -82 -297q31 -8 62.5 -35.5t57.5 -56.5t72 -52.5t103 -23.5t94 22.5t37 57.5q0 25 -48 72t-48 81.5t25.5 60.5t60.5 26q47 0 74.5 -41t27.5 -111q0 -158 -78.5 -254t-207.5 -96q-90 0 -161 48t-138 157q-117 -205 -215 -205q-76 0 -76 102z" />
<glyph unicode="&#xa4;" horiz-adv-x="1366" d="M170 283l133 131q-82 137 -82 264q0 129 82 250l-133 133l123 123l133 -133q115 82 254 82t260 -82l133 133l121 -123l-131 -133q80 -131 80 -262q0 -133 -80 -252l131 -131l-121 -121l-133 129q-125 -82 -262 -82t-252 82l-133 -129zM393 672q0 -119 85 -204t206 -85 q119 0 203 85t84 204t-84 202.5t-203 83.5q-121 0 -206 -83.5t-85 -202.5z" />
<glyph unicode="&#xa5;" horiz-adv-x="1515" d="M123 1323v74h680v-74q-92 0 -128 -20.5t-36 -65.5q0 -39 51 -135l168 -318h8l168 295q37 63 37 127q0 111 -156 117v74h482v-74q-86 -2 -134.5 -41t-119.5 -162l-199 -346h393v-74h-438v-245h438v-74h-438v-78q0 -145 38 -188q36 -41 168 -41h13v-74h-723v74q13 0 25 -1 q115 0 157 36q46 39 46 165v107h-465v74h465v245h-465v74h424l-220 412q-45 82 -97 111q-46 26 -121 27q-10 -1 -21 -1z" />
<glyph unicode="&#xa6;" horiz-adv-x="1118" d="M465 358h186v-716h-186v716zM465 666v716h186v-716h-186z" />
<glyph unicode="&#xa7;" horiz-adv-x="1153" d="M86 969q0 176 132 316t368 140q188 0 315 -65.5t127 -161.5q0 -39 -29.5 -67.5t-70.5 -28.5q-51 0 -94 38t-72 82t-90.5 81.5t-143.5 37.5t-126 -39.5t-44 -113.5q0 -55 37 -117.5t131 -161.5l211 -221q184 -195 254 -313.5t70 -280.5q0 -213 -144.5 -347t-371.5 -134 q-96 0 -192.5 24.5t-172.5 82t-76 137.5q0 41 25 66.5t64 25.5q41 0 73.5 -26.5t59 -64.5t57.5 -75t83 -63.5t122 -26.5q96 0 158.5 47t62.5 123q0 129 -191 321l-239 246q-166 170 -229.5 291t-63.5 248zM174 1010q0 -104 62.5 -212t224.5 -282l205 -221q215 -229 215 -387 q0 -94 -60 -160l4 -4q80 72 113 140.5t33 162.5q0 117 -52.5 222.5t-175.5 234.5l-272 289q-106 115 -148 188.5t-42 144.5q0 96 63 187l-4 4q-166 -106 -166 -307z" />
<glyph unicode="&#xa8;" horiz-adv-x="681" d="M55 1243q0 43 32 74t75 31t73.5 -31t30.5 -74t-30.5 -74.5t-73.5 -31.5t-75 31.5t-32 74.5zM418 1243q0 43 31.5 74t74.5 31t74 -31t31 -74t-31 -74.5t-74 -31.5t-74.5 31.5t-31.5 74.5z" />
<glyph unicode="&#xa9;" horiz-adv-x="1529" d="M57 688q0 293 208 501t501 208t501 -208t208 -501t-208 -500.5t-501 -207.5t-501 207.5t-208 500.5zM127 688q0 -264 186.5 -450.5t450.5 -186.5t450.5 186.5t186.5 450.5t-186.5 450.5t-450.5 186.5t-450.5 -186.5t-186.5 -450.5zM315 682q0 193 136.5 323t339.5 130 q68 0 149.5 -24t87.5 -24q31 0 41 46h39l14 -275h-39q-63 229 -280 229q-137 0 -218 -100t-81 -268q0 -410 305 -410q174 0 289 154l24 -37q-137 -176 -360 -176q-193 0 -320 123t-127 309z" />
<glyph unicode="&#xaa;" horiz-adv-x="724" d="M53 981q0 76 85 121t304 90v63q0 61 -23.5 85t-82.5 24q-43 0 -68.5 -18.5t-25.5 -49.5q0 -25 14 -53l-160 -53q-25 51 -24 86q0 68 79.5 108.5t213.5 40.5q129 0 188 -36.5t59 -122.5v-219q0 -55 5.5 -73t23.5 -18q20 0 70 31l18 -61q-33 -37 -82 -61.5t-90 -24.5 q-74 0 -104 65q-137 -66 -224 -65q-78 0 -127 39t-49 102zM231 1001q0 -33 24 -55t58 -22q47 0 129 47v168q-125 -39 -168 -68t-43 -70z" />
<glyph unicode="&#xab;" horiz-adv-x="1003" d="M74 522q182 236 274 461h135q-78 -223 -252 -461q174 -238 252 -461h-135q-92 225 -274 461zM520 522q182 236 275 461h135q-78 -223 -252 -461q174 -238 252 -461h-135q-93 225 -275 461z" />
<glyph unicode="&#xac;" horiz-adv-x="1366" d="M131 700v185h1104v-660h-184v475h-920z" />
<glyph unicode="&#xad;" horiz-adv-x="788" d="M80 365v198h631v-198h-631z" />
<glyph unicode="&#xae;" horiz-adv-x="1529" d="M57 688q0 293 208 501t501 208t501 -208t208 -501t-208 -500.5t-501 -207.5t-501 207.5t-208 500.5zM127 688q0 -264 186.5 -450.5t450.5 -186.5t450.5 186.5t186.5 450.5t-186.5 450.5t-450.5 186.5t-450.5 -186.5t-186.5 -450.5zM365 270v33q68 2 86 26.5t18 110.5v506 q0 86 -15.5 108.5t-76.5 26.5v35h375q154 0 237.5 -58.5t83.5 -166.5q0 -158 -207 -215l183 -281q33 -49 56 -68.5t58 -23.5v-33h-205l-262 392h-63v-259q0 -55 26.5 -77.5t92.5 -22.5v-33h-387zM633 709l49 -2q94 0 151.5 49t57.5 131q0 84 -52.5 134t-142.5 50 q-31 0 -63 -10v-352z" />
<glyph unicode="&#xaf;" horiz-adv-x="681" d="M8 1171v144h666v-144h-666z" />
<glyph unicode="&#xb0;" horiz-adv-x="819" d="M88 1075q0 133 94 227.5t227.5 94.5t227.5 -94.5t94 -227.5t-94 -227t-227.5 -94t-227.5 94t-94 227zM188 1075q0 -92 64.5 -156.5t157 -64.5t157 64.5t64.5 156.5t-64.5 156.5t-157 64.5t-157 -64.5t-64.5 -156.5z" />
<glyph unicode="&#xb1;" horiz-adv-x="1366" d="M129 0v184h1106v-184h-1106zM129 795v184h461v446h184v-446h461v-184h-461v-447h-184v447h-461z" />
<glyph unicode="&#xb2;" horiz-adv-x="641" d="M37 655v66l110 98q133 119 185.5 190.5t52.5 145.5q0 53 -40 88t-99 35q-70 0 -158 -68l-41 39q135 117 275 117q96 0 161.5 -49t65.5 -123q0 -86 -87 -181t-292 -247v-4h192q70 0 92.5 13t57.5 73h68l-72 -193h-471z" />
<glyph unicode="&#xb3;" horiz-adv-x="641" d="M47 702q0 23 21.5 40.5t48.5 17.5q25 0 75 -32t84 -32q51 0 84 40t33 104q0 150 -164 149q-25 0 -104 -6l12 51q219 25 219 144q0 47 -32.5 77.5t-83.5 30.5q-68 0 -142 -63l-41 39q92 104 236 104q94 0 155.5 -43t61.5 -109q0 -82 -115 -137q156 -57 156 -190 q0 -104 -93 -174t-237 -70q-74 0 -124 17t-50 42z" />
<glyph unicode="&#xb4;" horiz-adv-x="681" d="M250 1075l102 334h248l-287 -334h-63z" />
<glyph unicode="&#xb5;" horiz-adv-x="1138" d="M47 -338q0 53 36 184t36 312v788h227v-622q0 -106 48 -167t138 -61q129 0 222 129v721h227v-706q0 -139 76 -140q68 0 86 133h47q-4 -121 -71.5 -189.5t-172.5 -68.5q-145 0 -192 160q-150 -162 -348 -162q-117 0 -197 74q-2 -18 -2 -38q0 -75 24 -175q31 -127 31 -166 q0 -51 -31.5 -85t-80.5 -34q-47 0 -75 31t-28 82z" />
<glyph unicode="&#xb6;" horiz-adv-x="1003" d="M-2 989q0 193 126 300.5t359 107.5h521v-47h-10q-67 0 -104 -28q-40 -30 -40 -69v-1529h-84v1609h-182v-1609h-84v856q-8 0 -15 -1q-134 0 -232 35q-103 37 -156.5 99.5t-76 130t-22.5 145.5z" />
<glyph unicode="&#xb7;" horiz-adv-x="598" d="M147 669.5q0 63.5 44.5 106.5t107.5 43t106.5 -43t43.5 -106.5t-43.5 -107.5t-106.5 -44t-107.5 44t-44.5 107.5z" />
<glyph unicode="&#xb8;" horiz-adv-x="681" d="M152 -281h22q131 0 131 68q0 49 -76 70q49 37 90 129h58l-19 -62q113 -41 113 -129q0 -66 -52 -103.5t-151 -37.5h-116v65z" />
<glyph unicode="&#xb9;" horiz-adv-x="641" d="M100 1208v49q158 29 244 109h59v-551q0 -76 24 -95q19 -16 83 -16q13 0 29 1v-50h-426v50q11 0 20 -1q72 0 92 14q23 15 23 81v334q0 51 -10.5 63t-55.5 12h-82z" />
<glyph unicode="&#xba;" horiz-adv-x="747" d="M49 1135q0 125 93.5 207.5t234.5 82.5q139 0 229 -79.5t90 -204.5q0 -131 -92 -216t-235.5 -85t-231.5 82t-88 213zM236 1153q0 -117 39.5 -185.5t107.5 -68.5q127 0 127 223q0 117 -37 180.5t-104 63.5q-133 0 -133 -213z" />
<glyph unicode="&#xbb;" horiz-adv-x="1003" d="M74 61q78 223 252 461q-174 238 -252 461h135q92 -225 274 -461q-182 -236 -274 -461h-135zM520 61q78 223 252 461q-174 238 -252 461h135q92 -225 275 -461q-182 -236 -275 -461h-135z" />
<glyph unicode="&#xbc;" horiz-adv-x="1665" d="M100 1208v49q158 29 244 109h59v-551q0 -76 24 -95q19 -16 83 -16q13 0 29 1v-50h-426v50q11 0 20 -1q72 0 92 14q23 15 23 81v334q0 51 -10.5 63t-55.5 12h-82zM279 -86l919 1507h109l-920 -1507h-108zM932 172v76l368 463h99v-449h102v-90h-102v-184h-158v184h-309z M1022 262h219v277h-4z" />
<glyph unicode="&#xbd;" horiz-adv-x="1665" d="M100 1208v49q158 29 244 109h59v-551q0 -76 24 -95q19 -16 83 -16q13 0 29 1v-50h-426v50q11 0 20 -1q72 0 92 14q23 15 23 81v334q0 51 -10.5 63t-55.5 12h-82zM279 -86l919 1507h109l-920 -1507h-108zM979 0v66l111 98q133 119 185 190.5t52 145.5q0 53 -40 88t-99 35 q-70 0 -158 -68l-41 39q135 117 275 117q96 0 161.5 -49.5t65.5 -122.5q0 -86 -87 -181.5t-292 -246.5v-5h193q70 0 92 13.5t57 73.5h68l-72 -193h-471z" />
<glyph unicode="&#xbe;" horiz-adv-x="1665" d="M47 702q0 23 21.5 40.5t48.5 17.5q25 0 75 -32t84 -32q51 0 84 40t33 104q0 150 -164 149q-25 0 -104 -6l12 51q219 25 219 144q0 47 -32.5 77.5t-83.5 30.5q-68 0 -142 -63l-41 39q92 104 236 104q94 0 155.5 -43t61.5 -109q0 -82 -115 -137q156 -57 156 -190 q0 -104 -93 -174t-237 -70q-74 0 -124 17t-50 42zM279 -86l919 1507h109l-920 -1507h-108zM932 172v76l368 463h99v-449h102v-90h-102v-184h-158v184h-309zM1022 262h219v277h-4z" />
<glyph unicode="&#xbf;" horiz-adv-x="937" d="M115 8q0 100 67.5 168t196.5 101.5t145 50.5q36 36 36 133q0 15 -1 31h72q6 -115 21.5 -225.5t15.5 -127.5q0 -20 -13 -33q-16 -16 -84.5 -26t-149.5 -31.5t-124 -64.5q-41 -41 -41 -111q0 -88 73.5 -164t162.5 -76q55 0 144 40t118 40q74 0 73 -96q0 -121 -202 -121 q-174 0 -342 154.5t-168 357.5zM440 794.5q0 63.5 43 107.5t106.5 44t107.5 -44t44 -107.5t-44 -106.5t-107.5 -43t-106.5 43t-43 106.5z" />
<glyph unicode="&#xc0;" horiz-adv-x="1556" d="M12 0v74q111 18 162 72.5t111 205.5l360 928l-45 117h285l473 -1184q33 -80 70.5 -107.5t115.5 -31.5v-74h-696v74q13 0 24 -1q205 0 205 101q0 27 -30 107l-97 245h-514l-71 -196q-29 -80 -29 -129q0 -57 52 -93q49 -34 140 -34h11v-74h-527zM473 627h438l-229 561z M508 1880h248l102 -334h-63z" />
<glyph unicode="&#xc1;" horiz-adv-x="1556" d="M12 0v74q111 18 162 72.5t111 205.5l360 928l-45 117h285l473 -1184q33 -80 70.5 -107.5t115.5 -31.5v-74h-696v74q13 0 24 -1q205 0 205 101q0 27 -30 107l-97 245h-514l-71 -196q-29 -80 -29 -129q0 -57 52 -93q49 -34 140 -34h11v-74h-527zM473 627h438l-229 561z M688 1546l103 334h247l-286 -334h-64z" />
<glyph unicode="&#xc2;" horiz-adv-x="1556" d="M12 0v74q111 18 162 72.5t111 205.5l360 928l-45 117h285l473 -1184q33 -80 70.5 -107.5t115.5 -31.5v-74h-696v74q13 0 24 -1q205 0 205 101q0 27 -30 107l-97 245h-514l-71 -196q-29 -80 -29 -129q0 -57 52 -93q49 -34 140 -34h11v-74h-527zM473 627h438l-229 561z M496 1513l174 367h221l172 -367h-57l-226 207l-225 -207h-59z" />
<glyph unicode="&#xc3;" horiz-adv-x="1556" d="M12 0v74q111 18 162 72.5t111 205.5l360 928l-45 117h285l473 -1184q33 -80 70.5 -107.5t115.5 -31.5v-74h-696v74q13 0 24 -1q205 0 205 101q0 27 -30 107l-97 245h-514l-71 -196q-29 -80 -29 -129q0 -57 52 -93q49 -34 140 -34h11v-74h-527zM422 1583 q16 121 77.5 192.5t147.5 71.5q59 0 169 -56t149 -56q90 0 114 110h58q-2 -109 -65.5 -185.5t-147.5 -76.5q-63 0 -170 53.5t-154 53.5q-94 0 -123 -107h-55zM473 627h438l-229 561z" />
<glyph unicode="&#xc4;" horiz-adv-x="1556" d="M12 0v74q111 18 162 72.5t111 205.5l360 928l-45 117h285l473 -1184q33 -80 70.5 -107.5t115.5 -31.5v-74h-696v74q13 0 24 -1q205 0 205 101q0 27 -30 107l-97 245h-514l-71 -196q-29 -80 -29 -129q0 -57 52 -93q49 -34 140 -34h11v-74h-527zM473 627h438l-229 561z M494 1714q0 43 31.5 74t74.5 31t74 -31t31 -74t-31 -74.5t-74 -31.5t-74.5 31.5t-31.5 74.5zM856 1714q0 43 32 74t75 31t73.5 -31t30.5 -74t-30.5 -74.5t-73.5 -31.5t-75 31.5t-32 74.5z" />
<glyph unicode="&#xc5;" horiz-adv-x="1556" d="M12 0v74q111 18 162 72.5t111 205.5l360 928l-45 117h285l473 -1184q33 -80 70.5 -107.5t115.5 -31.5v-74h-696v74q13 0 24 -1q205 0 205 101q0 27 -30 107l-97 245h-514l-71 -196q-29 -80 -29 -129q0 -57 52 -93q49 -34 140 -34h11v-74h-527zM473 627h438l-229 561z M606 1722.5q0 71.5 51.5 122.5t123 51t122.5 -51t51 -122.5t-51 -123t-122.5 -51.5t-123 51.5t-51.5 123zM674 1722q0 -45 30.5 -75.5t75.5 -30.5t76 30.5t31 75.5t-31 76t-76 31t-75.5 -31t-30.5 -76z" />
<glyph unicode="&#xc6;" horiz-adv-x="2027" d="M12 0v74q96 4 151.5 57t92.5 174l225 729q31 98 31 158q0 131 -151 131h-5v74h1364l88 -303h-108q-84 143 -172 186t-299 43h-322l154 -584h278q104 0 143 27q33 23 32 75q0 8 -1 17l-6 62h117l119 -433h-119q-41 119 -98.5 149t-212.5 30h-236l82 -303 q45 -168 111.5 -228.5t208.5 -60.5q145 0 224 53t144 235h127l-76 -362h-1161v74h14q174 0 175 100q0 47 -19 115l-96 377h-354l-97 -334q-20 -70 -20 -117q0 -141 190 -141v-74h-518zM477 739h316l-150 584h-4z" />
<glyph unicode="&#xc7;" horiz-adv-x="1599" d="M117 672q0 180 66.5 326.5t178 237.5t249 140t284.5 49q246 0 510 -112l49 -316h-123q-53 164 -173 259.5t-275 95.5q-172 0 -273 -101q-176 -176 -176 -557q0 -297 132 -473t354 -176q172 0 290.5 104.5t135.5 274.5h135l-21 -318q-270 -135 -612 -135h-45l-15 -47 q113 -41 113 -129q0 -66 -52 -103.5t-151 -37.5h-116v65h22q131 0 131 68q0 49 -76 70q45 35 86 120q-307 29 -467.5 224t-160.5 471z" />
<glyph unicode="&#xc8;" horiz-adv-x="1472" d="M53 0v74q17 -1 32 -1q105 0 142 37q43 42 43 158v862q0 106 -42 154q-36 40 -137 40q-18 0 -38 -1v74h1258v-293h-113q-88 219 -342 219h-309v-553h227q145 0 206.5 40t76.5 142h135v-444h-135q-10 188 -217 188h-293v-401q0 -121 47 -171t194 -50q193 0 302.5 60.5 t193.5 209.5h129l-78 -344h-1282zM465 1880h248l102 -334h-63z" />
<glyph unicode="&#xc9;" horiz-adv-x="1472" d="M53 0v74q17 -1 32 -1q105 0 142 37q43 42 43 158v862q0 106 -42 154q-36 40 -137 40q-18 0 -38 -1v74h1258v-293h-113q-88 219 -342 219h-309v-553h227q145 0 206.5 40t76.5 142h135v-444h-135q-10 188 -217 188h-293v-401q0 -121 47 -171t194 -50q193 0 302.5 60.5 t193.5 209.5h129l-78 -344h-1282zM645 1546l103 334h247l-286 -334h-64z" />
<glyph unicode="&#xca;" horiz-adv-x="1472" d="M53 0v74q17 -1 32 -1q105 0 142 37q43 42 43 158v862q0 106 -42 154q-36 40 -137 40q-18 0 -38 -1v74h1258v-293h-113q-88 219 -342 219h-309v-553h227q145 0 206.5 40t76.5 142h135v-444h-135q-10 188 -217 188h-293v-401q0 -121 47 -171t194 -50q193 0 302.5 60.5 t193.5 209.5h129l-78 -344h-1282zM453 1513l174 367h221l172 -367h-57l-226 207l-225 -207h-59z" />
<glyph unicode="&#xcb;" horiz-adv-x="1472" d="M53 0v74q17 -1 32 -1q105 0 142 37q43 42 43 158v862q0 106 -42 154q-36 40 -137 40q-18 0 -38 -1v74h1258v-293h-113q-88 219 -342 219h-309v-553h227q145 0 206.5 40t76.5 142h135v-444h-135q-10 188 -217 188h-293v-401q0 -121 47 -171t194 -50q193 0 302.5 60.5 t193.5 209.5h129l-78 -344h-1282zM451 1714q0 43 31.5 74t74.5 31t74 -31t31 -74t-31 -74.5t-74 -31.5t-74.5 31.5t-31.5 74.5zM813 1714q0 43 32 74t75 31t73.5 -31t30.5 -74t-30.5 -74.5t-73.5 -31.5t-75 31.5t-32 74.5z" />
<glyph unicode="&#xcc;" horiz-adv-x="811" d="M53 0v74q16 -1 32 -1q98 0 136 35q45 40 45 152v879q0 106 -44 148q-38 37 -138 37q-15 0 -31 -1v74h705v-74q-17 1 -33 1q-102 0 -139 -35q-43 -40 -43 -152v-871q0 -113 42 -156q35 -37 134 -38q18 0 39 2v-74h-705zM135 1880h248l102 -334h-63z" />
<glyph unicode="&#xcd;" horiz-adv-x="811" d="M53 0v74q16 -1 32 -1q98 0 136 35q45 40 45 152v879q0 106 -44 148q-38 37 -138 37q-15 0 -31 -1v74h705v-74q-17 1 -33 1q-102 0 -139 -35q-43 -40 -43 -152v-871q0 -113 42 -156q35 -37 134 -38q18 0 39 2v-74h-705zM315 1546l103 334h248l-287 -334h-64z" />
<glyph unicode="&#xce;" horiz-adv-x="811" d="M53 0v74q16 -1 32 -1q98 0 136 35q45 40 45 152v879q0 106 -44 148q-38 37 -138 37q-15 0 -31 -1v74h705v-74q-17 1 -33 1q-102 0 -139 -35q-43 -40 -43 -152v-871q0 -113 42 -156q35 -37 134 -38q18 0 39 2v-74h-705zM123 1513l174 367h221l172 -367h-57l-225 207 l-226 -207h-59z" />
<glyph unicode="&#xcf;" horiz-adv-x="811" d="M53 0v74q16 -1 32 -1q98 0 136 35q45 40 45 152v879q0 106 -44 148q-38 37 -138 37q-15 0 -31 -1v74h705v-74q-17 1 -33 1q-102 0 -139 -35q-43 -40 -43 -152v-871q0 -113 42 -156q35 -37 134 -38q18 0 39 2v-74h-705zM121 1714q0 43 31.5 74t74.5 31t74 -31t31 -74 t-31 -74.5t-74 -31.5t-74.5 31.5t-31.5 74.5zM483 1714q0 43 32 74t75 31t73.5 -31t30.5 -74t-30.5 -74.5t-73.5 -31.5t-75 31.5t-32 74.5z" />
<glyph unicode="&#xd0;" horiz-adv-x="1705" d="M43 651v94h223v381q0 113 -38 158q-33 40 -142 40q-15 0 -31 -1v74h779q385 0 578.5 -195.5t193.5 -496.5q0 -293 -203 -499t-557 -206h-791v74q12 0 24 -1q108 0 145 36q42 39 42 157v385h-223zM543 313q0 -125 52 -182t183 -57q238 0 370 164.5t132 463.5 q0 305 -152.5 463t-427.5 158h-157v-578h428v-94h-428v-338z" />
<glyph unicode="&#xd1;" horiz-adv-x="1599" d="M6 0v74h12q160 0 210 52q52 54 53 236v822q-63 70 -121 99.5t-140 39.5v74h435l825 -994h4v668q0 154 -56 205q-52 47 -193 47h-23v74h581v-74q-20 1 -38 1q-104 0 -147 -40q-50 -47 -50 -162v-696q0 -43 17.5 -176t19.5 -270h-105l-932 1116h-4v-779q0 -131 58.5 -185 t212.5 -58v-74h-619zM442 1583q16 121 78 192.5t148 71.5q59 0 168.5 -56t148.5 -56q90 0 115 110h57q-2 -109 -65.5 -185.5t-147.5 -76.5q-63 0 -169.5 53.5t-153.5 53.5q-94 0 -123 -107h-56z" />
<glyph unicode="&#xd2;" horiz-adv-x="1748" d="M117 682q0 313 225 528t555 215q315 0 525 -198.5t210 -495.5q0 -307 -213 -533.5t-559 -226.5q-324 0 -533.5 205t-209.5 506zM434 729q0 -303 128 -493.5t333 -190.5q193 0 306.5 167t113.5 450q0 127 -25.5 244.5t-76 220t-139.5 164t-206 61.5q-199 0 -316.5 -169 t-117.5 -454zM604 1880h248l102 -334h-63z" />
<glyph unicode="&#xd3;" horiz-adv-x="1748" d="M117 682q0 313 225 528t555 215q315 0 525 -198.5t210 -495.5q0 -307 -213 -533.5t-559 -226.5q-324 0 -533.5 205t-209.5 506zM434 729q0 -303 128 -493.5t333 -190.5q193 0 306.5 167t113.5 450q0 127 -25.5 244.5t-76 220t-139.5 164t-206 61.5q-199 0 -316.5 -169 t-117.5 -454zM784 1546l103 334h248l-287 -334h-64z" />
<glyph unicode="&#xd4;" horiz-adv-x="1748" d="M117 682q0 313 225 528t555 215q315 0 525 -198.5t210 -495.5q0 -307 -213 -533.5t-559 -226.5q-324 0 -533.5 205t-209.5 506zM434 729q0 -303 128 -493.5t333 -190.5q193 0 306.5 167t113.5 450q0 127 -25.5 244.5t-76 220t-139.5 164t-206 61.5q-199 0 -316.5 -169 t-117.5 -454zM592 1513l174 367h221l172 -367h-57l-225 207l-226 -207h-59z" />
<glyph unicode="&#xd5;" horiz-adv-x="1748" d="M117 682q0 313 225 528t555 215q315 0 525 -198.5t210 -495.5q0 -307 -213 -533.5t-559 -226.5q-324 0 -533.5 205t-209.5 506zM434 729q0 -303 128 -493.5t333 -190.5q193 0 306.5 167t113.5 450q0 127 -25.5 244.5t-76 220t-139.5 164t-206 61.5q-199 0 -316.5 -169 t-117.5 -454zM518 1583q16 121 77.5 192.5t147.5 71.5q59 0 169 -56t149 -56q90 0 115 110h57q-2 -109 -65.5 -185.5t-147.5 -76.5q-63 0 -170 53.5t-154 53.5q-94 0 -123 -107h-55z" />
<glyph unicode="&#xd6;" horiz-adv-x="1748" d="M117 682q0 313 225 528t555 215q315 0 525 -198.5t210 -495.5q0 -307 -213 -533.5t-559 -226.5q-324 0 -533.5 205t-209.5 506zM434 729q0 -303 128 -493.5t333 -190.5q193 0 306.5 167t113.5 450q0 127 -25.5 244.5t-76 220t-139.5 164t-206 61.5q-199 0 -316.5 -169 t-117.5 -454zM590 1714q0 43 31.5 74t74.5 31t74 -31t31 -74t-31 -74.5t-74 -31.5t-74.5 31.5t-31.5 74.5zM952 1714q0 43 32 74t75 31t73.5 -31t30.5 -74t-30.5 -74.5t-73.5 -31.5t-75 31.5t-32 74.5z" />
<glyph unicode="&#xd7;" horiz-adv-x="1368" d="M170 168l383 383l-383 383l129 129l383 -383l383 383l131 -131l-381 -381l383 -383l-131 -131l-383 383l-383 -383z" />
<glyph unicode="&#xd8;" horiz-adv-x="1748" d="M117 682q0 313 225 528t555 215q227 0 436 -125l109 127l57 -49l-106 -125q240 -207 239 -522q0 -307 -213 -533.5t-559 -226.5q-125 0 -244.5 37t-199.5 96l-131 -153l-56 49l127 150q-239 208 -239 532zM434 729q0 -225 76 -397l692 813q-115 207 -334 207 q-199 0 -316.5 -169t-117.5 -454zM547 260q133 -215 348 -215q193 0 306.5 167t113.5 450q0 109 -21.5 227.5t-54.5 183.5z" />
<glyph unicode="&#xd9;" horiz-adv-x="1642" d="M16 1323v74h713v-74h-14q-117 0 -159 -33q-44 -35 -44 -149v-629q0 -211 68 -283q111 -121 329 -120q211 0 318 106q51 51 78.5 141t27.5 183v503q0 154 -49 222q-44 60 -159 60q-14 0 -29 -1v74h532v-74h-10q-107 0 -158 -40q-53 -42 -53 -161v-573q0 -279 -137 -428.5 t-445 -149.5q-324 0 -467 144q-68 68 -95 175t-27 306v522q0 125 -41 168q-36 38 -146 38q-16 0 -33 -1zM592 1880h248l102 -334h-63z" />
<glyph unicode="&#xda;" horiz-adv-x="1642" d="M16 1323v74h713v-74h-14q-117 0 -159 -33q-44 -35 -44 -149v-629q0 -211 68 -283q111 -121 329 -120q211 0 318 106q51 51 78.5 141t27.5 183v503q0 154 -49 222q-44 60 -159 60q-14 0 -29 -1v74h532v-74h-10q-107 0 -158 -40q-53 -42 -53 -161v-573q0 -279 -137 -428.5 t-445 -149.5q-324 0 -467 144q-68 68 -95 175t-27 306v522q0 125 -41 168q-36 38 -146 38q-16 0 -33 -1zM731 1546l103 334h247l-286 -334h-64z" />
<glyph unicode="&#xdb;" horiz-adv-x="1642" d="M16 1323v74h713v-74h-14q-117 0 -159 -33q-44 -35 -44 -149v-629q0 -211 68 -283q111 -121 329 -120q211 0 318 106q51 51 78.5 141t27.5 183v503q0 154 -49 222q-44 60 -159 60q-14 0 -29 -1v74h532v-74h-10q-107 0 -158 -40q-53 -42 -53 -161v-573q0 -279 -137 -428.5 t-445 -149.5q-324 0 -467 144q-68 68 -95 175t-27 306v522q0 125 -41 168q-36 38 -146 38q-16 0 -33 -1zM580 1513l174 367h221l172 -367h-57l-226 207l-225 -207h-59z" />
<glyph unicode="&#xdc;" horiz-adv-x="1642" d="M16 1323v74h713v-74h-14q-117 0 -159 -33q-44 -35 -44 -149v-629q0 -211 68 -283q111 -121 329 -120q211 0 318 106q51 51 78.5 141t27.5 183v503q0 154 -49 222q-44 60 -159 60q-14 0 -29 -1v74h532v-74h-10q-107 0 -158 -40q-53 -42 -53 -161v-573q0 -279 -137 -428.5 t-445 -149.5q-324 0 -467 144q-68 68 -95 175t-27 306v522q0 125 -41 168q-36 38 -146 38q-16 0 -33 -1zM578 1714q0 43 31.5 74t74.5 31t73.5 -31t30.5 -74t-30.5 -74.5t-73.5 -31.5t-74.5 31.5t-31.5 74.5zM940 1714q0 43 32 74t75 31t73.5 -31t30.5 -74t-30.5 -74.5 t-73.5 -31.5t-75 31.5t-32 74.5z" />
<glyph unicode="&#xdd;" horiz-adv-x="1515" d="M41 1323v74h696v-74q-88 0 -126 -18.5t-38 -67.5q0 -39 52 -135l237 -440l219 370q63 109 64 174q0 111 -156 117v74h481v-74q-86 -2 -134 -40t-119 -163l-318 -542v-320q0 -111 45 -150q39 -35 141 -35q16 0 33 1v-74h-723v74q17 -1 34 -1q104 0 145 35q48 40 49 160 v281l-326 606q-57 106 -103 139q-41 29 -130 29h-23zM709 1546l102 334h248l-287 -334h-63z" />
<glyph unicode="&#xde;" horiz-adv-x="1472" d="M35 1323v74h723v-74q-17 1 -32 1q-101 0 -139 -36q-44 -41 -44 -164h409q223 0 331 -119.5t108 -273.5q0 -170 -133.5 -277.5t-348.5 -107.5q-250 0 -250 55q0 47 35 48q14 0 46 -1.5t38 -1.5q301 0 301 267q0 158 -96 248t-262 90h-178v-785q0 -117 46 -158 q39 -35 142 -36q20 0 43 2v-74h-723v74q17 -1 32 -1q99 0 138 35q45 40 45 154v868q0 117 -46 159q-39 35 -142 35q-20 0 -43 -1z" />
<glyph unicode="&#xdf;" horiz-adv-x="1280" d="M43 827v95q6 0 13 -1q52 0 83 31q18 18 64.5 151.5t103.5 190.5q70 70 146.5 100.5t191.5 30.5q188 0 314 -90t126 -227q0 -104 -75.5 -179t-214.5 -108v-4q174 -23 273 -131t99 -276q0 -184 -101 -309.5t-251 -125.5q-82 0 -134 45.5t-52 114.5q0 39 20.5 62.5 t52.5 23.5q37 0 51.5 -26.5t12.5 -59.5t10 -59.5t45 -26.5q57 0 98.5 63.5t41.5 153.5q0 111 -43.5 218.5t-112.5 170.5q-76 72 -199 86v74q10 -1 19 -1q98 0 162 80q71 87 71 202q0 113 -66.5 184.5t-170.5 71.5q-98 0 -154.5 -73t-56.5 -220v-744q0 -139 24.5 -180 t85.5 -61v-74h-471v74q74 4 103.5 44t29.5 130v579h-139z" />
<glyph unicode="&#xe0;" horiz-adv-x="1130" d="M100 199q0 113 104.5 183.5t319.5 121.5l185 45v160q0 164 -183 163q-76 0 -123 -35.5t-47 -95.5q0 -33 23 -86l-217 -75q-33 74 -33 129q0 102 111.5 169.5t328.5 67.5q182 0 274.5 -54t92.5 -190v-444q0 -109 65 -108q35 0 95 38l22 -79q-123 -133 -250 -134 q-115 0 -151 121q-209 -121 -357 -121q-117 0 -188.5 62t-71.5 162zM295 1409h248l102 -334h-63zM342 236q0 -55 43 -97.5t100 -42.5q100 0 224 86v307q-98 -33 -151.5 -54t-110 -53t-81 -66.5t-24.5 -79.5z" />
<glyph unicode="&#xe1;" horiz-adv-x="1130" d="M100 199q0 113 104.5 183.5t319.5 121.5l185 45v160q0 164 -183 163q-76 0 -123 -35.5t-47 -95.5q0 -33 23 -86l-217 -75q-33 74 -33 129q0 102 111.5 169.5t328.5 67.5q182 0 274.5 -54t92.5 -190v-444q0 -109 65 -108q35 0 95 38l22 -79q-123 -133 -250 -134 q-115 0 -151 121q-209 -121 -357 -121q-117 0 -188.5 62t-71.5 162zM342 236q0 -55 43 -97.5t100 -42.5q100 0 224 86v307q-98 -33 -151.5 -54t-110 -53t-81 -66.5t-24.5 -79.5zM475 1075l103 334h247l-286 -334h-64z" />
<glyph unicode="&#xe2;" horiz-adv-x="1130" d="M100 199q0 113 104.5 183.5t319.5 121.5l185 45v160q0 164 -183 163q-76 0 -123 -35.5t-47 -95.5q0 -33 23 -86l-217 -75q-33 74 -33 129q0 102 111.5 169.5t328.5 67.5q182 0 274.5 -54t92.5 -190v-444q0 -109 65 -108q35 0 95 38l22 -79q-123 -133 -250 -134 q-115 0 -151 121q-209 -121 -357 -121q-117 0 -188.5 62t-71.5 162zM283 1042l174 367h221l172 -367h-57l-226 207l-225 -207h-59zM342 236q0 -55 43 -97.5t100 -42.5q100 0 224 86v307q-98 -33 -151.5 -54t-110 -53t-81 -66.5t-24.5 -79.5z" />
<glyph unicode="&#xe3;" horiz-adv-x="1130" d="M100 199q0 113 104.5 183.5t319.5 121.5l185 45v160q0 164 -183 163q-76 0 -123 -35.5t-47 -95.5q0 -33 23 -86l-217 -75q-33 74 -33 129q0 102 111.5 169.5t328.5 67.5q182 0 274.5 -54t92.5 -190v-444q0 -109 65 -108q35 0 95 38l22 -79q-123 -133 -250 -134 q-115 0 -151 121q-209 -121 -357 -121q-117 0 -188.5 62t-71.5 162zM209 1112q16 121 77.5 192.5t147.5 71.5q59 0 169 -56t149 -56q90 0 114 110h58q-2 -109 -65.5 -185.5t-147.5 -76.5q-63 0 -170 53.5t-154 53.5q-94 0 -123 -107h-55zM342 236q0 -55 43 -97.5t100 -42.5 q100 0 224 86v307q-98 -33 -151.5 -54t-110 -53t-81 -66.5t-24.5 -79.5z" />
<glyph unicode="&#xe4;" horiz-adv-x="1130" d="M100 199q0 113 104.5 183.5t319.5 121.5l185 45v160q0 164 -183 163q-76 0 -123 -35.5t-47 -95.5q0 -33 23 -86l-217 -75q-33 74 -33 129q0 102 111.5 169.5t328.5 67.5q182 0 274.5 -54t92.5 -190v-444q0 -109 65 -108q35 0 95 38l22 -79q-123 -133 -250 -134 q-115 0 -151 121q-209 -121 -357 -121q-117 0 -188.5 62t-71.5 162zM281 1243q0 43 31.5 74t74.5 31t74 -31t31 -74t-31 -74.5t-74 -31.5t-74.5 31.5t-31.5 74.5zM342 236q0 -55 43 -97.5t100 -42.5q100 0 224 86v307q-98 -33 -151.5 -54t-110 -53t-81 -66.5t-24.5 -79.5z M643 1243q0 43 32 74t75 31t73.5 -31t30.5 -74t-30.5 -74.5t-73.5 -31.5t-75 31.5t-32 74.5z" />
<glyph unicode="&#xe5;" horiz-adv-x="1130" d="M100 199q0 113 104.5 183.5t319.5 121.5l185 45v160q0 164 -183 163q-76 0 -123 -35.5t-47 -95.5q0 -33 23 -86l-217 -75q-33 74 -33 129q0 102 111.5 169.5t328.5 67.5q182 0 274.5 -54t92.5 -190v-444q0 -109 65 -108q35 0 95 38l22 -79q-123 -133 -250 -134 q-115 0 -151 121q-209 -121 -357 -121q-117 0 -188.5 62t-71.5 162zM342 236q0 -55 43 -97.5t100 -42.5q100 0 224 86v307q-98 -33 -151.5 -54t-110 -53t-81 -66.5t-24.5 -79.5zM393 1251.5q0 71.5 51.5 122.5t123 51t122.5 -51t51 -122.5t-51 -123t-122.5 -51.5t-123 51.5 t-51.5 123zM461 1251q0 -45 30.5 -75.5t75.5 -30.5t76 30.5t31 75.5t-31 76t-76 31t-75.5 -31t-30.5 -76z" />
<glyph unicode="&#xe6;" horiz-adv-x="1622" d="M94 193q0 127 132 206.5t458 143.5v137q0 193 -166 192q-76 0 -119 -44t-43 -121q0 -18 6 -72l-208 -55q-25 59 -25 110q0 121 102.5 188.5t282.5 67.5q199 0 313 -115q125 115 301 115q182 0 299 -112q106 -102 106 -268q0 -17 -1 -36h-627q-1 -22 -1 -42 q0 -359 272 -359q156 0 307 131l51 -55q-70 -111 -185.5 -170.5t-261.5 -59.5q-248 0 -366 164q-209 -164 -381 -164q-109 0 -177.5 61t-68.5 157zM330 231q0 -57 40 -101t91 -44q92 0 223 104v289q-168 -27 -261 -92.5t-93 -155.5zM905 604h400q-10 268 -203 268 q-197 0 -197 -268z" />
<glyph unicode="&#xe7;" horiz-adv-x="1024" d="M94 455q0 223 134 357t356 134q154 0 248 -60.5t94 -160.5q0 -47 -35 -78t-86 -31q-41 0 -62 21q-16 16 -36.5 86t-53.5 102q-47 47 -118 47q-104 0 -167 -77.5t-63 -204.5q0 -168 97.5 -310.5t248.5 -142.5q131 0 252 109l55 -53q-164 -217 -426 -218h-24l-16 -51 q113 -41 112 -129q0 -66 -52 -103.5t-151 -37.5h-116v65h22q131 0 131 68q0 49 -76 70q47 37 91 125q-180 31 -269.5 167t-89.5 306z" />
<glyph unicode="&#xe8;" horiz-adv-x="1044" d="M94 442q0 225 125 364.5t326 139.5q178 0 305 -104.5t129 -292.5h-686q0 -156 104.5 -267.5t261.5 -111.5q135 0 250 96l52 -45q-166 -246 -429 -246q-195 0 -316.5 130t-121.5 337zM252 1409h248l102 -334h-63zM293 623h426q-4 115 -60.5 182t-148.5 67 q-90 0 -148.5 -66t-68.5 -183z" />
<glyph unicode="&#xe9;" horiz-adv-x="1044" d="M94 442q0 225 125 364.5t326 139.5q178 0 305 -104.5t129 -292.5h-686q0 -156 104.5 -267.5t261.5 -111.5q135 0 250 96l52 -45q-166 -246 -429 -246q-195 0 -316.5 130t-121.5 337zM293 623h426q-4 115 -60.5 182t-148.5 67q-90 0 -148.5 -66t-68.5 -183zM432 1075 l103 334h247l-286 -334h-64z" />
<glyph unicode="&#xea;" horiz-adv-x="1044" d="M94 442q0 225 125 364.5t326 139.5q178 0 305 -104.5t129 -292.5h-686q0 -156 104.5 -267.5t261.5 -111.5q135 0 250 96l52 -45q-166 -246 -429 -246q-195 0 -316.5 130t-121.5 337zM240 1042l174 367h221l172 -367h-57l-226 207l-225 -207h-59zM293 623h426 q-4 115 -60.5 182t-148.5 67q-90 0 -148.5 -66t-68.5 -183z" />
<glyph unicode="&#xeb;" horiz-adv-x="1044" d="M94 442q0 225 125 364.5t326 139.5q178 0 305 -104.5t129 -292.5h-686q0 -156 104.5 -267.5t261.5 -111.5q135 0 250 96l52 -45q-166 -246 -429 -246q-195 0 -316.5 130t-121.5 337zM238 1243q0 43 31.5 74t74.5 31t74 -31t31 -74t-31 -74.5t-74 -31.5t-74.5 31.5 t-31.5 74.5zM293 623h426q-4 115 -60.5 182t-148.5 67q-90 0 -148.5 -66t-68.5 -183zM600 1243q0 43 32 74t75 31t73.5 -31t30.5 -74t-30.5 -74.5t-73.5 -31.5t-75 31.5t-32 74.5z" />
<glyph unicode="&#xec;" horiz-adv-x="618" d="M39 1409h248l102 -334h-63zM47 0v74q86 0 124 35.5t38 138.5v465l-162 71v50l332 112h57v-692q0 -100 32 -139t124 -41v-74h-545z" />
<glyph unicode="&#xed;" horiz-adv-x="618" d="M47 0v74q86 0 124 35.5t38 138.5v465l-162 71v50l332 112h57v-692q0 -100 32 -139t124 -41v-74h-545zM219 1075l103 334h247l-286 -334h-64z" />
<glyph unicode="&#xee;" horiz-adv-x="618" d="M27 1042l174 367h221l172 -367h-57l-226 207l-225 -207h-59zM47 0v74q86 0 124 35.5t38 138.5v465l-162 71v50l332 112h57v-692q0 -100 32 -139t124 -41v-74h-545z" />
<glyph unicode="&#xef;" horiz-adv-x="618" d="M25 1243q0 43 31.5 74t74.5 31t74 -31t31 -74t-31 -74.5t-74 -31.5t-74.5 31.5t-31.5 74.5zM47 0v74q86 0 124 35.5t38 138.5v465l-162 71v50l332 112h57v-692q0 -100 32 -139t124 -41v-74h-545zM387 1243q0 43 32 74t75 31t73.5 -31t30.5 -74t-30.5 -74.5t-73.5 -31.5 t-75 31.5t-32 74.5z" />
<glyph unicode="&#xf0;" horiz-adv-x="1024" d="M70 451q0 203 116.5 343t284.5 140q84 0 162 -49l4 4q-47 133 -150 272l-231 -129l-33 62l221 123q-68 84 -157 149l75 43q111 -68 185 -135l246 135l32 -61l-221 -123q174 -166 259 -362.5t85 -368.5q0 -231 -123 -375t-321 -144q-186 0 -310 135.5t-124 340.5zM297 524 q0 -231 61.5 -357t173.5 -126q188 0 189 383q0 211 -59.5 328.5t-165.5 117.5q-199 0 -199 -346z" />
<glyph unicode="&#xf1;" horiz-adv-x="1236" d="M41 0v74h8q87 0 119 42q33 44 33 148v463l-160 72v49l319 98h68v-164q84 88 159 126t167 38q147 0 228 -89t81 -224v-385q0 -98 34 -137q32 -37 115 -37h9v-74h-521v74q78 6 107 49t29 141v320q0 225 -183 225q-123 0 -225 -113v-452q0 -92 33 -129t114 -41v-74h-534z M262 1112q16 121 77.5 192.5t147.5 71.5q59 0 169 -56t149 -56q90 0 115 110h57q-2 -109 -65.5 -185.5t-147.5 -76.5q-63 0 -170 53.5t-154 53.5q-94 0 -123 -107h-55z" />
<glyph unicode="&#xf2;" horiz-adv-x="1153" d="M88 463q0 209 140.5 346t353.5 137q211 0 345 -132t134 -339q0 -201 -129 -350.5t-359 -149.5q-221 0 -353 134.5t-132 353.5zM305 1409h248l102 -334h-63zM340 496q0 -207 66.5 -327t181.5 -120q221 0 221 393q0 207 -63.5 318.5t-180.5 111.5q-225 1 -225 -376z" />
<glyph unicode="&#xf3;" horiz-adv-x="1153" d="M88 463q0 209 140.5 346t353.5 137q211 0 345 -132t134 -339q0 -201 -129 -350.5t-359 -149.5q-221 0 -353 134.5t-132 353.5zM340 496q0 -207 66.5 -327t181.5 -120q221 0 221 393q0 207 -63.5 318.5t-180.5 111.5q-225 1 -225 -376zM485 1075l103 334h248l-287 -334 h-64z" />
<glyph unicode="&#xf4;" horiz-adv-x="1153" d="M88 463q0 209 140.5 346t353.5 137q211 0 345 -132t134 -339q0 -201 -129 -350.5t-359 -149.5q-221 0 -353 134.5t-132 353.5zM293 1042l174 367h221l172 -367h-57l-225 207l-226 -207h-59zM340 496q0 -207 66.5 -327t181.5 -120q221 0 221 393q0 207 -63.5 318.5 t-180.5 111.5q-225 1 -225 -376z" />
<glyph unicode="&#xf5;" horiz-adv-x="1153" d="M88 463q0 209 140.5 346t353.5 137q211 0 345 -132t134 -339q0 -201 -129 -350.5t-359 -149.5q-221 0 -353 134.5t-132 353.5zM219 1112q16 121 77.5 192.5t147.5 71.5q59 0 169 -56t149 -56q90 0 115 110h57q-2 -109 -65.5 -185.5t-147.5 -76.5q-63 0 -170 53.5 t-154 53.5q-94 0 -123 -107h-55zM340 496q0 -207 66.5 -327t181.5 -120q221 0 221 393q0 207 -63.5 318.5t-180.5 111.5q-225 1 -225 -376z" />
<glyph unicode="&#xf6;" horiz-adv-x="1153" d="M88 463q0 209 140.5 346t353.5 137q211 0 345 -132t134 -339q0 -201 -129 -350.5t-359 -149.5q-221 0 -353 134.5t-132 353.5zM291 1243q0 43 31.5 74t74.5 31t74 -31t31 -74t-31 -74.5t-74 -31.5t-74.5 31.5t-31.5 74.5zM340 496q0 -207 66.5 -327t181.5 -120 q221 0 221 393q0 207 -63.5 318.5t-180.5 111.5q-225 1 -225 -376zM653 1243q0 43 32 74t75 31t73.5 -31t30.5 -74t-30.5 -74.5t-73.5 -31.5t-75 31.5t-32 74.5z" />
<glyph unicode="&#xf7;" horiz-adv-x="1368" d="M131 463v184h1104v-184h-1104zM569 143q0 47 34 80t81 33t80 -33t33 -80t-33 -80.5t-80 -33.5t-81 33.5t-34 80.5zM569 969q0 47 34 79.5t81 32.5t80 -32.5t33 -79.5t-33 -81t-80 -34t-81 34t-34 81z" />
<glyph unicode="&#xf8;" horiz-adv-x="1153" d="M88 463q0 209 140.5 346t353.5 137q164 0 286 -84l111 129l55 -47l-108 -127q135 -131 135 -342q0 -201 -129 -350.5t-359 -149.5q-174 0 -294 86l-113 -131l-55 50l112 131q-135 127 -135 352zM340 496q0 -131 25 -220l395 459q-68 137 -195 137q-225 1 -225 -376z M391 195q78 -145 197 -146q221 0 221 393q0 121 -21 215z" />
<glyph unicode="&#xf9;" horiz-adv-x="1236" d="M31 848v74q26 -1 51 -1q172 0 258 25h57v-629q0 -111 51.5 -167t133.5 -56q123 0 223 131v449q0 88 -36 133q-33 41 -108 41h-14v74q201 0 326 24h59v-692q0 -88 32 -124q27 -31 101 -31q13 0 27 1v-73q-150 0 -330 -52h-57v160q-84 -86 -164 -123t-182 -37 q-141 0 -215 82t-74 236v391q0 164 -139 164zM348 1409h248l102 -334h-63z" />
<glyph unicode="&#xfa;" horiz-adv-x="1236" d="M31 848v74q26 -1 51 -1q172 0 258 25h57v-629q0 -111 51.5 -167t133.5 -56q123 0 223 131v449q0 88 -36 133q-33 41 -108 41h-14v74q201 0 326 24h59v-692q0 -88 32 -124q27 -31 101 -31q13 0 27 1v-73q-150 0 -330 -52h-57v160q-84 -86 -164 -123t-182 -37 q-141 0 -215 82t-74 236v391q0 164 -139 164zM528 1075l103 334h248l-287 -334h-64z" />
<glyph unicode="&#xfb;" horiz-adv-x="1236" d="M31 848v74q26 -1 51 -1q172 0 258 25h57v-629q0 -111 51.5 -167t133.5 -56q123 0 223 131v449q0 88 -36 133q-33 41 -108 41h-14v74q201 0 326 24h59v-692q0 -88 32 -124q27 -31 101 -31q13 0 27 1v-73q-150 0 -330 -52h-57v160q-84 -86 -164 -123t-182 -37 q-141 0 -215 82t-74 236v391q0 164 -139 164zM336 1042l174 367h221l172 -367h-57l-225 207l-226 -207h-59z" />
<glyph unicode="&#xfc;" horiz-adv-x="1236" d="M31 848v74q26 -1 51 -1q172 0 258 25h57v-629q0 -111 51.5 -167t133.5 -56q123 0 223 131v449q0 88 -36 133q-33 41 -108 41h-14v74q201 0 326 24h59v-692q0 -88 32 -124q27 -31 101 -31q13 0 27 1v-73q-150 0 -330 -52h-57v160q-84 -86 -164 -123t-182 -37 q-141 0 -215 82t-74 236v391q0 164 -139 164zM334 1243q0 43 31.5 74t74.5 31t74 -31t31 -74t-31 -74.5t-74 -31.5t-74.5 31.5t-31.5 74.5zM696 1243q0 43 32 74t75 31t73.5 -31t30.5 -74t-30.5 -74.5t-73.5 -31.5t-75 31.5t-32 74.5z" />
<glyph unicode="&#xfd;" horiz-adv-x="1067" d="M10 848v74h514v-74q-72 0 -103.5 -18.5t-31.5 -63.5q0 -39 21 -80l223 -471l170 430q23 53 22 94q0 53 -35 82q-33 27 -95 27h-9v74h373v-74q-63 -4 -92 -36t-76 -150l-295 -734q-74 -182 -144.5 -250.5t-187.5 -68.5q-80 0 -132 40t-52 101q0 41 28.5 69.5t67.5 28.5 q49 0 91 -51t83 -51q49 0 91 42t83 157l-372 786q-37 78 -62 97.5t-80 19.5zM442 1075l103 334h248l-287 -334h-64z" />
<glyph unicode="&#xfe;" horiz-adv-x="1216" d="M12 -295q94 0 126 43t32 148v1298l-158 70v49l314 112h71v-671q172 193 371 192q143 0 255 -112.5t112 -331.5q0 -119 -35 -213t-90.5 -151.5t-129 -95.5t-143 -52.5t-141.5 -14.5q-90 0 -199 25v-104q0 -115 45 -154q43 -37 171 -37h14v-74h-615v74zM397 668v-316 q0 -164 47.5 -233.5t180.5 -69.5q127 0 200.5 94.5t73.5 266.5q0 174 -70.5 279.5t-187.5 105.5q-111 0 -244 -127z" />
<glyph unicode="&#xff;" horiz-adv-x="1067" d="M10 848v74h514v-74q-72 0 -103.5 -18.5t-31.5 -63.5q0 -39 21 -80l223 -471l170 430q23 53 22 94q0 53 -35 82q-33 27 -95 27h-9v74h373v-74q-63 -4 -92 -36t-76 -150l-295 -734q-74 -182 -144.5 -250.5t-187.5 -68.5q-80 0 -132 40t-52 101q0 41 28.5 69.5t67.5 28.5 q49 0 91 -51t83 -51q49 0 91 42t83 157l-372 786q-37 78 -62 97.5t-80 19.5zM248 1243q0 43 31.5 74t74.5 31t74 -31t31 -74t-31 -74.5t-74 -31.5t-74.5 31.5t-31.5 74.5zM610 1243q0 43 32 74t75 31t73.5 -31t30.5 -74t-30.5 -74.5t-73.5 -31.5t-75 31.5t-32 74.5z" />
<glyph unicode="&#x152;" horiz-adv-x="2048" d="M113 688q0 188 68.5 345t221 260.5t363.5 103.5h1139v-293h-113q-43 129 -112.5 174t-225.5 45h-453v-4q160 -68 255.5 -213t109.5 -338h119q78 0 119 43t53 139h106v-442h-106q-20 115 -61.5 150.5t-153.5 35.5h-76q1 -17 1 -33q0 -120 -51 -235q-58 -131 -140 -216 t-175 -132v-4h377q162 0 247 23.5t135 75.5t114 171h119l-76 -344h-1124q-186 0 -337 73.5t-247 233.5t-96 381zM430 772q0 -698 328 -698q291 0 291 553q0 137 -16.5 254.5t-52.5 220t-103.5 162t-159.5 59.5q-139 0 -213 -142.5t-74 -408.5z" />
<glyph unicode="&#x153;" horiz-adv-x="1748" d="M92 449q0 238 145.5 367.5t335.5 129.5q203 0 324 -139q88 78 166 108.5t184 30.5q201 0 320 -112.5t121 -305.5h-672q0 -13 -1 -26q0 -168 76 -268q81 -108 240 -107q162 0 283 127l53 -51q-172 -227 -453 -228q-211 0 -337 134q-135 -133 -338 -133.5t-325 129 t-122 344.5zM344 459q0 -197 61.5 -303.5t176 -106.5t169 93.5t54.5 293.5q0 436 -232 436q-111 0 -170 -107t-59 -306zM1016 602h416v16q0 103 -51 176q-54 79 -158 78q-191 0 -207 -270z" />
<glyph unicode="&#x178;" horiz-adv-x="1515" d="M41 1323v74h696v-74q-88 0 -126 -18.5t-38 -67.5q0 -39 52 -135l237 -440l219 370q63 109 64 174q0 111 -156 117v74h481v-74q-86 -2 -134 -40t-119 -163l-318 -542v-320q0 -111 45 -150q39 -35 141 -35q16 0 33 1v-74h-723v74q17 -1 34 -1q104 0 145 35q48 40 49 160 v281l-326 606q-57 106 -103 139q-41 29 -130 29h-23zM514 1714q0 43 32 74t75 31t73.5 -31t30.5 -74t-30.5 -74.5t-73.5 -31.5t-75 31.5t-32 74.5zM877 1714q0 43 31.5 74t74.5 31t73.5 -31t30.5 -74t-30.5 -74.5t-73.5 -31.5t-74.5 31.5t-31.5 74.5z" />
<glyph unicode="&#x2c6;" horiz-adv-x="681" d="M57 1042l174 367h222l172 -367h-58l-225 207l-225 -207h-60z" />
<glyph unicode="&#x2dc;" horiz-adv-x="681" d="M-16 1112q16 121 77.5 192.5t147.5 71.5q59 0 168.5 -56t148.5 -56q90 0 115 110h57q-2 -109 -65.5 -185.5t-147.5 -76.5q-63 0 -169.5 53.5t-153.5 53.5q-94 0 -123 -107h-55z" />
<glyph unicode="&#x2013;" horiz-adv-x="1024" d="M-12 420v184h1048v-184h-1048z" />
<glyph unicode="&#x2014;" horiz-adv-x="2048" d="M-12 420v184h2072v-184h-2072z" />
<glyph unicode="&#x2018;" horiz-adv-x="598" d="M141 1090q0 254 279 335l16 -49q6 -18 -9 -24t-54 -20.5t-72 -47.5q-51 -51 -51 -129q0 -61 49 -61q4 0 17.5 1t19.5 1q123 0 123 -113q0 -55 -37 -93t-92 -38q-80 0 -134.5 69t-54.5 169z" />
<glyph unicode="&#x2019;" horiz-adv-x="598" d="M141 1294q0 55 37 93t92 38q80 0 134.5 -68.5t54.5 -168.5q0 -254 -279 -336l-16 49q-4 12 1 18.5t18 10.5l30 9q16 5 41 19.5t45 34.5q51 51 51 129q0 61 -49 62q-4 0 -17.5 -1t-19.5 -1q-123 -1 -123 112z" />
<glyph unicode="&#x201a;" horiz-adv-x="598" d="M145 137q0 55 37 93t92 38q80 0 134.5 -68.5t54.5 -168.5q0 -254 -279 -336l-16 49q-4 12 1 18.5t18 10.5l30 9q16 5 41 19.5t45 34.5q51 51 51 129q0 61 -49 62q-4 0 -17.5 -1t-19.5 -1q-123 -1 -123 112z" />
<glyph unicode="&#x201c;" d="M150 1090q0 254 278 335l16 -49q4 -12 -1 -18t-18 -10l-30 -10q-16 -5 -40.5 -19t-45.5 -35q-51 -51 -51 -129q0 -61 49 -61q4 0 17.5 1t19.5 1q123 0 123 -113q0 -55 -37 -93t-92 -38q-80 0 -134 69t-54 169zM637 1090q0 254 278 335l17 -49q4 -12 -1 -18t-19 -10 l-29 -10q-16 -5 -41 -19t-45 -35q-51 -51 -52 -129q0 -61 50 -61q4 0 17 1t19 1q123 0 123 -113q0 -55 -36.5 -93t-92.5 -38q-80 0 -134 69t-54 169z" />
<glyph unicode="&#x201d;" d="M133 1294q0 55 37 93t92 38q80 0 134.5 -68.5t54.5 -168.5q0 -254 -279 -336l-16 49q-4 12 1 18.5t18 10.5l30 9q16 5 40.5 19.5t45.5 34.5q51 51 51 129q0 61 -49 62q-4 0 -17.5 -1t-19.5 -1q-123 -1 -123 112zM621 1294q0 55 36.5 93t92.5 38q80 0 134 -68.5t54 -168.5 q0 -254 -279 -336l-16 49q-4 12 1 18.5t19 10.5l29 9q16 5 41 19.5t45 34.5q51 51 51 129q0 61 -49 62q-4 0 -17 -1t-20 -1q-122 -1 -122 112z" />
<glyph unicode="&#x201e;" d="M156 137q0 55 36.5 93t92.5 38q80 0 134 -68.5t54 -168.5q0 -254 -278 -336l-17 49q-4 12 1 18.5t19 10.5l29 9q16 5 41 19.5t45 34.5q51 51 52 129q0 61 -50 62q-4 0 -17 -1t-19 -1q-123 -1 -123 112zM641 137q0 55 37 93t92 38q80 0 134 -68.5t54 -168.5 q0 -254 -278 -336l-16 49q-4 12 1 18.5t18 10.5l30 9q16 5 40.5 19.5t45.5 34.5q51 51 51 129q0 61 -49 62q-4 0 -17.5 -1t-19.5 -1q-123 -1 -123 112z" />
<glyph unicode="&#x2022;" horiz-adv-x="716" d="M94 675.5q0 108.5 78 186.5t186.5 78t186.5 -78t78 -186.5t-78 -186t-186.5 -77.5t-186.5 77.5t-78 186z" />
<glyph unicode="&#x2026;" horiz-adv-x="2048" d="M188 126.5q0 63.5 44 106.5t107.5 43t106.5 -43t43 -106.5t-43 -107.5t-106.5 -44t-107.5 44t-44 107.5zM872 126.5q0 63.5 44.5 106.5t107.5 43t106.5 -43t43.5 -106.5t-43.5 -107.5t-106.5 -44t-107.5 44t-44.5 107.5zM1556 126.5q0 63.5 44.5 106.5t108 43t106.5 -43 t43 -106.5t-43 -107.5t-106.5 -44t-108 44t-44.5 107.5z" />
<glyph unicode="&#x2039;" horiz-adv-x="555" d="M80 522q182 236 274 461h135q-78 -223 -251 -461q174 -238 251 -461h-135q-92 225 -274 461z" />
<glyph unicode="&#x203a;" horiz-adv-x="555" d="M66 61q78 223 251 461q-174 238 -251 461h135q92 -225 274 -461q-182 -236 -274 -461h-135z" />
<glyph unicode="&#x20ac;" d="M4 492l21 129h110v24q0 31 4 88h-135l21 129h131q49 238 189 372t302 134q82 0 169 -26.5t124 -55.5l29 -276h-74q-33 154 -94.5 221t-161.5 67q-238 0 -260 -436h557l-23 -129h-536v-65v-47h530l-22 -129h-500q23 -223 98.5 -333t190.5 -110q68 0 144.5 39t113.5 70 l47 -54q-133 -129 -361 -129q-195 0 -317.5 144.5t-155.5 372.5h-141z" />
<glyph unicode="&#x2122;" horiz-adv-x="2048" d="M31 1145l12 211h745l15 -211h-35q-10 88 -53 120.5t-142 32.5h-59v-583q0 -82 20 -105q18 -24 84 -26v-35h-403v35q72 6 87 26.5t15 104.5v583h-61q-94 0 -136 -33.5t-57 -119.5h-32zM889 549v35q72 2 91 24.5t19 106.5v469q0 88 -19 111.5t-91 23.5v37h317l256 -543 l252 543h303v-37q-70 -2 -88 -25.5t-18 -109.5v-469q0 -82 18.5 -104.5t87.5 -26.5v-35h-420v35q76 2 96.5 24.5t20.5 106.5v495h-4l-307 -661h-31l-307 655h-4v-495q0 -80 21 -104q20 -22 91 -21h13v-35h-297z" />
<glyph unicode="&#xe000;" horiz-adv-x="920" d="M0 920h920v-920h-920v920z" />
<glyph unicode="&#xfb01;" horiz-adv-x="1300" d="M33 0v74q13 -1 25 -1q87 0 119 39q36 44 36 150v559h-174v101q7 0 14 -1q92 0 117 25q12 12 60.5 140t117.5 198q141 141 395 141q150 0 239 -48t89 -126q0 -45 -32.5 -74.5t-82.5 -29.5q-47 0 -83.5 30.5t-58 67.5t-65.5 67.5t-102 30.5q-100 0 -153.5 -78.5 t-53.5 -215.5v-127h447q117 0 166 24h61v-684q0 -102 34 -147q31 -41 118 -42q8 0 16 1v-74h-553v74h8q79 0 114 38q36 40 36 128v426q0 92 -31 123.5t-117 31.5h-299v-571q0 -109 41 -145q37 -32 140 -32q12 0 24 1v-74h-612z" />
<glyph unicode="&#xfb02;" horiz-adv-x="1300" d="M29 0v74q13 -1 25 -1q78 -1 115 33q42 39 42 144v571h-176v101q18 -1 34 -1q75 0 99 23q18 18 33.5 76.5t50.5 135.5t98 140q129 129 385 129q59 0 142 -10q12 -2 27.5 -5t22.5 -5t11 -2q59 0 111 22h63v-1185q0 -86 37 -129q32 -38 107 -38q11 0 22 1v-74h-551v74h8 q86 0 117 42q33 44 33 146v559h-447v-559q0 -118 38 -156q33 -34 132 -33q16 0 33 1v-74h-612zM438 922h447v237q-29 20 -64 69.5t-49 63.5q-53 53 -133 54q-102 0 -156 -91q-45 -76 -45 -227v-106z" />
<glyph unicode="&#xfb03;" horiz-adv-x="1941" d="M25 0v74q100 0 137 35.5t37 152.5v559h-174v101q7 0 13 -1q89 0 116 27q18 18 36.5 82t51 141.5t88.5 133.5q121 121 313 120q127 0 201 -44t74 -121q0 -45 -34 -78t-81 -33q-41 0 -72 28.5t-48 64.5t-52 64.5t-82 28.5q-123 0 -123 -213v-200h215v-101h-215v-559 q0 -115 48 -151.5t177 -36.5v-74h-626zM686 0v74q100 0 137 35.5t37 152.5v559h-174v101q7 0 13 -1q89 0 116 27q18 18 36.5 82t51.5 141.5t88 133.5q121 121 314 120q127 0 200.5 -44t73.5 -121q0 -45 -34 -78t-81 -33q-41 0 -71.5 28.5t-48 64.5t-52.5 64.5t-82 28.5 q-123 0 -123 -213v-200h216v-101h-216v-559q0 -115 48.5 -151.5t177.5 -36.5v-74h-627zM1370 0v74q86 0 124 35.5t38 138.5v465l-162 71v50l332 112h57v-692q0 -100 32 -139t124 -41v-74h-545zM1499 1288.5q0 57.5 41 97t98.5 39.5t97.5 -39.5t40 -97t-40 -98.5t-97.5 -41 t-98.5 41t-41 98.5z" />
<glyph unicode="&#xfb04;" horiz-adv-x="1921" d="M25 0v74q100 0 137 35.5t37 152.5v559h-174v101q7 0 13 -1q89 0 116 27q18 18 36.5 82t51 141.5t88.5 133.5q121 121 313 120q127 0 201 -44t74 -121q0 -45 -34 -78t-81 -33q-41 0 -72 28.5t-48 64.5t-52 64.5t-82 28.5q-123 0 -123 -213v-200h215v-101h-215v-559 q0 -115 48 -151.5t177 -36.5v-74h-626zM686 0v74q100 0 137 35.5t37 152.5v559h-174v101q7 0 13 -1q89 0 116 27q18 18 36.5 82t51.5 141.5t88 133.5q121 121 314 120q127 0 200.5 -44t73.5 -121q0 -45 -34 -78t-81 -33q-41 0 -71.5 28.5t-48 64.5t-52.5 64.5t-82 28.5 q-123 0 -123 -213v-200h216v-101h-216v-559q0 -115 48.5 -151.5t177.5 -36.5v-74h-627zM1339 0v74q8 0 16 -1q84 0 113 43q33 46 33 148v924l-162 72v49l320 116h70v-1173q0 -96 33.5 -137t119.5 -41v-74h-543z" />
</font>
</defs>
</svg>
